<svg width="219" height="49" viewBox="0 0 219 49" fill="none" xmlns="http://www.w3.org/2000/svg">
<path d="M28.2561 17.6054H43.1526L24.9219 2.00989L6.63749 17.6054L21.265 17.3366" stroke="#6C60FE" stroke-width="2"/>
<path d="M39.3885 17.7133L39.4941 31.6203L39.4961 31.8837" stroke="#6C60FE" stroke-width="2"/>
<path d="M10.5093 17.6593L10.4555 31.5215" stroke="#6C60FE" stroke-width="2"/>
<path d="M37.9901 47.9902L43.6905 41.967C44.8019 40.9811 47.1646 38.45 47.7238 36.2128C48.423 33.4164 48.6918 29.8133 48.5843 27.1782C48.4767 24.543 48.3154 22.9835 46.9172 22.9835C45.519 22.9835 44.7661 22.5533 44.2283 23.8977C43.7981 24.9733 43.6905 30.0463 43.6905 32.4484C43.7443 32.8607 43.5937 33.9757 42.5612 35.1373C41.5286 36.2989 37.6853 40.3896 35.8927 42.2897" stroke="#1E1D85" stroke-width="2"/>
<path d="M42.7224 34.7603C42.8299 34.5989 42.916 34.0504 42.3997 33.1469C41.7544 32.0176 41.2166 31.6412 40.4099 31.5336C39.6033 31.4261 39.0117 31.5874 38.4739 32.0176C38.0437 32.3618 35.6058 34.9575 34.4406 36.2123L33.7953 36.8576C33.3292 36.9114 32.1174 37.1157 30.9988 37.5029C29.6006 37.9869 28.4175 38.6323 27.2881 40.0305C26.1588 41.4287 25.5135 43.1496 25.1908 44.2789C24.9327 45.1824 24.8681 47.0575 24.8681 47.882" stroke="#1E1D85" stroke-width="2"/>
<path d="M24.9219 47.8827V44.5485C24.5813 44.0645 23.486 42.6609 21.8297 40.9185C20.1733 39.1761 16.9986 37.4857 15.6183 36.8583L10.8859 32.0183C10.4736 31.7135 9.67588 31.4267 8.92299 31.6149C8.1701 31.8032 7.6467 32.5321 7.01388 33.3627C6.89352 33.5207 6.51954 34.3508 7.76677 36.0516C8.24001 36.6969 12.0152 40.3717 13.8437 42.1285" stroke="#1E1D85" stroke-width="2"/>
<path d="M11.8542 47.8281L5.50847 41.6437C4.59425 40.6219 2.60447 38.1051 1.95914 36.2121C1.15247 33.8459 0.883583 27.1774 1.04492 25.8868C1.20625 24.5961 1.74403 23.4668 2.71203 23.1979C3.68003 22.929 5.12163 23.0393 5.50847 23.7357C5.89532 24.432 6.04625 27.2581 6.04625 28.4681C6.04625 29.4234 6.04625 31.3452 6.69158 32.7972L7.04114 34.8139" stroke="#1E1D85" stroke-width="2"/>
<path d="M61.1789 16.8495C66.4739 16.8394 69.7058 19.9493 69.7058 25.0614C69.7058 30.143 66.4739 33.2326 61.1789 33.2326H56.4124V16.8597L61.1789 16.8495ZM61.1992 29.9499C64.4209 29.9499 66.3824 28.1002 66.3824 25.0512C66.3824 21.9819 64.4108 20.1119 61.1687 20.1119H59.6951V29.9499H61.1992Z" fill="#1E1D85"/>
<path d="M84.3814 33.2326H80.3568L75.1431 25.4882V33.2326H71.8502L71.8401 16.8495H77.1859C80.245 16.8495 82.7553 19.2074 82.7553 22.1547C82.7553 24.2585 81.4849 26.098 79.7267 26.718L84.3814 33.2326ZM75.1329 20.1119V24.228L77.2469 24.2382C78.3648 24.2483 79.3608 23.3438 79.3608 22.175C79.3608 21.0063 78.3547 20.1119 77.2469 20.1119H75.1329Z" fill="#1E1D85"/>
<path d="M95.8252 20.0916H89.2394V23.293H94.8902V26.5757H89.2394V29.96H95.8252V33.2326H85.9466V16.8495H95.8252V20.0916Z" fill="#1E1D85"/>
<path d="M109.23 33.2326L108.194 30.9459H101.639L100.592 33.2326H97.0346L104.86 16.443H104.962L112.798 33.2326H109.23ZM102.919 28.1408H106.913L104.921 23.7605L102.919 28.1408Z" fill="#1E1D85"/>
<path d="M130.309 16.443H130.492V33.2326H127.199V26.098L122.483 32.9582H122.463L117.737 26.098V33.2326H114.444V16.443H114.627L122.473 27.2668L130.309 16.443Z" fill="#1E1D85"/>
<path d="M138.256 33.5578C135.573 33.5578 133.592 32.4398 132.494 30.4072L135.126 28.5575C135.848 29.7161 136.895 30.2446 138.307 30.2446C139.852 30.2446 140.889 29.6145 140.889 28.7404C140.889 27.5412 138.927 26.596 137.21 25.7423C135.37 24.8276 133.348 23.8215 133.348 21.2095C133.348 18.374 135.746 16.504 138.754 16.504C140.99 16.504 142.84 17.4288 143.582 19.4106L141.153 21.1079C140.665 20.1322 139.72 19.7359 138.805 19.7359C137.576 19.7359 136.661 20.4473 136.661 21.2908C136.661 22.2665 137.901 22.6019 139.781 23.4861C142.495 24.7666 144.202 26.1488 144.202 28.6693C144.202 31.6573 141.763 33.5578 138.256 33.5578Z" fill="#1E1D85"/>
<path d="M156.959 19.309H149.773V23.5064H155.973V26.0675H149.773V30.6003H156.959V33.1614H147.202V16.7784H156.959V19.309Z" fill="#6C60FE"/>
<path d="M164.368 33.4358C161.674 33.4358 159.631 32.1756 158.696 30.2852L160.729 28.8319C161.461 30.1125 162.823 30.8442 164.398 30.8442C166.238 30.8442 167.63 29.96 167.63 28.71C167.63 27.1956 165.475 26.281 163.565 25.4577C161.644 24.604 159.51 23.608 159.51 21.0368C159.51 18.3537 161.837 16.4836 164.784 16.4836C167.122 16.4836 168.87 17.6118 169.541 19.4106L167.63 20.7319C167.122 19.6241 165.994 19.0041 164.805 19.0041C163.3 19.0041 162.101 19.9391 162.101 21.0977C162.101 22.3783 163.615 22.8356 165.607 23.6893C168.199 24.8276 170.211 26.0777 170.211 28.6591C170.211 31.5658 167.691 33.4358 164.368 33.4358Z" fill="#6C60FE"/>
<path d="M182.692 16.7784V19.3293H178.301V33.1614H175.72V19.3293H171.329V16.7784H182.692Z" fill="#6C60FE"/>
<path d="M194.146 33.1614L193.028 30.6714H185.273L184.155 33.1614H181.371L189.074 16.443H189.227L196.93 33.1614H194.146ZM186.269 28.466H192.032L189.156 22.0632L186.269 28.466Z" fill="#6C60FE"/>
<path d="M206.982 16.7784V19.3293H202.591V33.1614H200.01V19.3293H195.619V16.7784H206.982Z" fill="#6C60FE"/>
<path d="M218.791 19.309H211.606V23.5064H217.806V26.0675H211.606V30.6003H218.791V33.1614H209.035V16.7784H218.791V19.309Z" fill="#6C60FE"/>
<path d="M30.9254 24.1939C32.5934 25.7896 32.6507 28.3317 31.0994 29.9898L24.8493 35.966L18.5993 29.9898C17.0481 28.3317 17.106 25.7855 18.7732 24.1939C20.4423 22.6005 23.1135 22.5468 24.8501 24.0329C26.5817 22.549 29.2575 22.5982 30.9254 24.1939ZM19.8157 25.1892C18.7176 26.2376 18.6624 27.9167 19.6745 29.0258L24.8493 33.9739L30.0242 29.0258C31.0367 27.9163 30.9817 26.2403 29.8819 25.1881C28.7855 24.1393 27.0209 24.0888 25.8624 25.057L22.7643 28.015L21.7219 27.0197L23.8041 25.0304L23.7438 24.9819C22.5829 24.0916 20.8858 24.1676 19.8157 25.1892Z" fill="#FD3358"/>
<path d="M34.823 6.34595V9.9484L37.4248 11.5495V6.34595H34.823Z" stroke="#6C60FE" stroke-width="1.5"/>
</svg>
