<svg width="34" height="34" viewBox="0 0 34 34" fill="none" xmlns="http://www.w3.org/2000/svg">
<path fill-rule="evenodd" clip-rule="evenodd" d="M11.0528 0.114645C10.0709 0.537768 8.53841 1.46727 7.42949 2.31223C6.10276 3.32318 4.27992 5.25128 3.37215 6.6039C1.74161 9.03334 0.888625 11.5043 0.398482 15.2186C0.0688421 17.7163 0.0454007 18.3504 0.0149867 25.5999C-0.017353 33.3098 -0.0468373 32.8259 0.492114 33.4368C1.01214 34.0263 0.704481 33.9998 7.03869 33.9998C13.1565 33.9998 12.9423 34.014 13.4477 33.5769C13.5768 33.4654 13.7631 33.2185 13.8618 33.0283L14.0411 32.6825L14.0591 26.1136L14.0771 19.5447L13.9336 19.1666C13.7652 18.7227 13.3028 18.228 12.9535 18.118C12.8104 18.073 11.6173 18.0421 10.0069 18.0419L7.30086 18.0415V17.5681C7.30086 16.4904 7.57193 14.6614 7.91127 13.4497C8.36236 11.8386 9.05066 10.5397 10.0477 9.41784C10.8611 8.50257 11.803 7.77571 13.1271 7.04133C14.0953 6.50439 14.2405 6.37115 14.5065 5.77565C14.577 5.61795 14.6239 5.33687 14.6263 5.05903C14.6296 4.65683 14.5853 4.49349 14.2583 3.70001C13.0137 0.680641 12.9119 0.489065 12.392 0.188415C12.0108 -0.032066 11.4633 -0.0621763 11.0528 0.114645ZM30.6899 0.0594686C30.3219 0.136475 28.5914 1.09639 27.6543 1.7433C24.8115 3.70595 22.5924 6.3354 21.2938 9.27994C20.3443 11.433 19.8739 13.608 19.5427 17.3783C19.4546 18.3802 19.4294 19.8783 19.4056 25.524C19.3728 33.3186 19.343 32.825 19.8827 33.4368C20.4027 34.0262 20.0955 33.9998 26.4258 33.9998C32.5961 33.9998 32.3798 34.015 32.8815 33.5462C33.0132 33.4232 33.1982 33.1465 33.2929 32.9313L33.4649 32.54L33.4634 26.0247C33.4619 19.6328 33.4593 19.5029 33.3267 19.1706C33.1712 18.7812 32.9341 18.4779 32.6016 18.2432C32.3745 18.0829 32.3032 18.0782 29.5146 18.0415L26.6601 18.0038L26.6803 17.4016C26.7327 15.8462 27.064 13.9951 27.524 12.6874C27.997 11.3429 28.5636 10.3621 29.4233 9.39948C30.2056 8.52342 31.0044 7.89917 32.2583 7.18405C33.4603 6.49852 33.7963 6.18259 33.9324 5.60989C34.0934 4.93204 34.0086 4.59051 33.216 2.72293C32.7737 1.68067 32.3812 0.860022 32.2298 0.660994C31.8451 0.155369 31.2823 -0.0645098 30.6899 0.0594686Z" fill="#3E66DF" fill-opacity="0.1"/>
</svg>
