<svg width="18" height="17" viewBox="0 0 18 17" fill="none" xmlns="http://www.w3.org/2000/svg">
<path d="M17.2661 0.396443C17.4596 0.491776 17.5765 0.617213 17.7006 0.853036C17.9416 1.32468 18 2.12246 18 5.03763C18 7.21021 17.9525 8.87602 17.8686 9.67882C17.7955 10.3662 17.5619 10.8429 17.1493 11.1188L16.9047 11.2844H9H1.09534L0.890873 11.154C0.463692 10.878 0.200811 10.3662 0.131441 9.67882C0.0438137 8.84592 0 7.20018 0 4.96237C0 3.0206 0.0109539 2.49878 0.0620689 2.00204C0.0985794 1.67089 0.142393 1.31465 0.164301 1.2143C0.219067 0.943351 0.416227 0.617213 0.602434 0.471705L0.766735 0.346268L8.94523 0.336233C15.9006 0.326198 17.1456 0.336233 17.2661 0.396443ZM0.825151 1.20426C0.697363 1.34977 0.660852 1.50531 0.602434 2.17766C0.45639 3.77824 0.547668 9.29248 0.730223 9.88454C0.872618 10.3562 1.12819 10.5519 1.59554 10.5569H1.91684V9.43798C1.91684 8.46459 1.92779 8.29901 1.98621 8.1234C2.07018 7.8675 2.22353 7.65677 2.40974 7.54137C2.54848 7.45105 2.82596 7.44603 9.00365 7.44603H15.4552L15.6487 7.58652C15.7911 7.68687 15.8751 7.79224 15.9554 7.97287L16.0649 8.21371L16.0759 9.38781L16.0868 10.5569H16.4045C16.8718 10.5519 17.1274 10.3562 17.2698 9.88454C17.4523 9.28746 17.5436 3.78326 17.3976 2.17766C17.3391 1.50531 17.3026 1.34977 17.1748 1.20426L17.0617 1.07381H9H0.938337L0.825151 1.20426ZM2.55578 8.3241C2.4645 8.44452 2.4645 8.44452 2.4645 9.50321V10.5569H9H15.5355V9.50321C15.5355 8.44452 15.5355 8.44452 15.4442 8.3241L15.3566 8.19866H9H2.64341L2.55578 8.3241Z" fill="#6C60FE"/>
<path d="M2.96113 2.67956C3.1802 2.79998 3.22766 3.24152 3.05241 3.48738C2.79683 3.8386 2.36235 3.49239 2.44997 3.01071C2.50109 2.72973 2.75301 2.56416 2.96113 2.67956Z" fill="#6C60FE"/>
<path d="M12.7755 2.89029C12.8594 3.05085 12.8485 3.29671 12.7572 3.41211C12.6842 3.50243 12.5674 3.50745 9.00022 3.50745C5.43308 3.50745 5.31624 3.50243 5.24322 3.41211C5.15194 3.29671 5.14099 3.05085 5.22496 2.89029L5.27973 2.77991H9.00022H12.7207L12.7755 2.89029Z" fill="#6C60FE"/>
<path d="M13.673 12.9554C13.735 13.0256 13.7606 13.126 13.7825 13.417C13.8592 14.3402 14.0636 15.0678 14.4397 15.7501C14.6405 16.1164 14.677 16.3422 14.5565 16.4927C14.458 16.6182 14.2389 16.6031 14.144 16.4677C13.746 15.8906 13.421 14.9574 13.2896 14.0041C13.2093 13.4321 13.2166 13.0909 13.3079 12.9654C13.3991 12.84 13.5671 12.835 13.673 12.9554Z" fill="#6C60FE"/>
<path d="M11.3653 12.9554C11.4201 13.0307 11.4383 13.1612 11.4566 13.5977C11.5004 14.5209 11.6647 15.2535 11.9714 15.8806C12.1357 16.2118 12.1467 16.4225 12.0079 16.5731C11.8071 16.7888 11.6611 16.6734 11.4164 16.1115C11.1536 15.5144 10.9966 14.822 10.9308 13.9991C10.8797 13.3669 10.9016 13.0759 11.0075 12.9554C11.1134 12.84 11.2813 12.84 11.3653 12.9554Z" fill="#6C60FE"/>
<path d="M9.18235 12.9654C9.25172 13.0608 9.25537 13.131 9.25537 14.7617C9.25537 16.6834 9.25902 16.6533 8.99979 16.6533C8.74056 16.6533 8.74421 16.6834 8.74421 14.7617C8.74421 13.131 8.74786 13.0608 8.81723 12.9654C8.8574 12.9102 8.93772 12.8651 8.99979 12.8651C9.06186 12.8651 9.14218 12.9102 9.18235 12.9654Z" fill="#6C60FE"/>
<path d="M6.99216 12.9554C7.09804 13.0758 7.11995 13.3668 7.06883 13.999C6.99581 14.9122 6.80595 15.6698 6.4883 16.3121C6.29114 16.7135 6.17431 16.7737 5.99175 16.573C5.85301 16.4225 5.86396 16.2117 6.02826 15.8806C6.33496 15.2534 6.49926 14.5208 6.54307 13.5976C6.56133 13.1611 6.57958 13.0306 6.63435 12.9554C6.71832 12.84 6.88628 12.84 6.99216 12.9554Z" fill="#6C60FE"/>
<path d="M4.69179 12.9654C4.78307 13.0908 4.79037 13.432 4.71005 14.004C4.57861 14.9573 4.25366 15.8906 3.85568 16.4626C3.74615 16.6231 3.51248 16.6231 3.43581 16.4676C3.33723 16.2769 3.36643 16.1164 3.56359 15.7501C3.94696 15.0276 4.14047 14.3351 4.21714 13.4169C4.23905 13.1259 4.26461 13.0256 4.32668 12.9553C4.43256 12.8349 4.60051 12.8399 4.69179 12.9654Z" fill="#6C60FE"/>
</svg>
