<svg width="18" height="19" viewBox="0 0 18 19" fill="none" xmlns="http://www.w3.org/2000/svg">
<path d="M2.22546 0.40214C2.01101 0.50477 1.74734 0.840654 1.65594 1.12522C1.59266 1.31183 1.57156 1.4891 1.5575 1.96027L1.53641 2.5574L1.04071 2.57606C0.509856 2.59938 0.35517 2.65536 0.189937 2.90261C-0.0104511 3.19185 9.56623e-05 2.97725 9.56623e-05 7.16181C9.56623e-05 10.9032 0.00361125 11.0198 0.0704074 11.1924C0.161813 11.4303 0.358686 11.6449 0.548527 11.7056C0.629386 11.7336 0.886024 11.7569 1.11805 11.7569H1.53641L1.5575 12.3587C1.57859 13.0491 1.63836 13.2917 1.85633 13.5903C2.11296 13.9448 2.18328 13.9728 2.94967 13.9868L3.62818 14.0055L3.85318 13.8562C4.08521 13.7069 4.24341 13.4876 4.35239 13.1704C4.40513 13.0118 4.41216 12.7692 4.42271 10.9032L4.43325 8.81791H4.84809H5.26293L5.28402 9.30774C5.31215 9.96552 5.3684 10.1195 5.92035 11.0012L6.36331 11.7149V14.9291V18.1434L6.44065 18.2413C6.53909 18.358 6.71487 18.3626 6.82385 18.246L6.90823 18.1574L6.91877 14.8452C6.92229 12.8532 6.91526 11.491 6.89416 11.4257C6.87659 11.365 6.6551 10.9825 6.40198 10.5766C6.14886 10.1661 5.92386 9.79291 5.89925 9.73693C5.87816 9.68561 5.85355 9.46169 5.843 9.24243L5.82894 8.84124L8.37423 8.85523C10.7929 8.86923 10.923 8.86456 10.9969 8.78526C11.1199 8.64997 11.134 8.44004 11.0285 8.27676L10.9406 8.14148L10.1848 8.11815C9.44648 8.09483 9.42539 8.09016 9.3375 7.98287C9.13008 7.72629 9.15469 7.3111 9.3832 7.10583C9.50273 6.99854 9.50976 6.99854 10.7402 6.99854C11.925 6.99854 11.9777 7.0032 12.0515 7.09184C12.0902 7.14316 12.1359 7.25512 12.1465 7.33909C12.1886 7.62366 12.15 9.62497 12.1043 9.73693C12.0797 9.78825 11.8511 10.1661 11.598 10.5766C11.3449 10.9825 11.1234 11.365 11.1023 11.4303C11.0847 11.4957 11.0742 11.7942 11.0812 12.0975C11.0918 12.6153 11.0988 12.6573 11.1761 12.7412C11.2851 12.8579 11.475 12.8579 11.5664 12.7366C11.6261 12.6573 11.6367 12.5826 11.6367 12.1814V11.7149L12.0797 11.0012C12.6316 10.1195 12.6879 9.96552 12.716 9.30774L12.7371 8.81791H13.1519H13.5667L13.5773 10.9032C13.5878 12.7692 13.5949 13.0118 13.6476 13.1704C13.7566 13.4876 13.9148 13.7069 14.1468 13.8562L14.3718 14.0055L15.0503 13.9868C15.8167 13.9728 15.887 13.9448 16.1437 13.5903C16.3616 13.2917 16.4214 13.0491 16.4425 12.3587L16.4636 11.7569H16.8819C17.114 11.7569 17.3706 11.7336 17.4515 11.7056C17.6413 11.6449 17.8382 11.4303 17.9296 11.1924C17.9964 11.0198 17.9999 10.9032 17.9999 7.16181C17.9999 2.97725 18.0105 3.19185 17.8101 2.90261C17.6448 2.65536 17.4901 2.59938 16.9593 2.57606L16.4636 2.5574L16.4425 1.96027C16.4179 1.23252 16.3511 0.985271 16.0945 0.677378C15.8273 0.360153 15.6902 0.318169 14.9343 0.336828C14.3578 0.350822 14.2769 0.360153 14.1503 0.453455C13.9605 0.588741 13.7636 0.85465 13.6687 1.11589C13.5878 1.32582 13.5878 1.35848 13.5773 3.41577L13.5667 5.50572H12.9199H12.2695V4.90859C12.2695 3.95692 12.1324 3.55572 11.7035 3.27115C11.4328 3.09388 11.1094 3.07522 10.8211 3.21984C10.6277 3.3178 10.6172 3.31314 10.5117 3.07055C10.4906 3.0239 10.4098 2.9306 10.3254 2.85596C9.8789 2.4501 9.28125 2.53407 8.93672 3.05656C8.81016 3.24783 8.7961 3.25716 8.7293 3.19651C8.68711 3.15919 8.56407 3.09388 8.45157 3.05656C8.09649 2.93527 7.70626 3.07522 7.46017 3.41577L7.34767 3.57438L7.13674 3.43909C6.63753 3.10788 6.0223 3.37378 5.75511 4.03622C5.69183 4.19483 5.67777 4.32079 5.66722 4.86194L5.65316 5.50572H5.04496H4.43677L4.42271 4.91792C4.41216 4.36744 4.40864 4.32546 4.32778 4.24149C4.22232 4.12486 4.07466 4.12952 3.95865 4.25082L3.86724 4.34412V8.52868C3.86724 12.6246 3.86724 12.7132 3.79693 12.8998C3.6774 13.2264 3.58951 13.2591 2.94264 13.2404L2.38366 13.2264L2.26765 13.0585C2.17624 12.9232 2.1446 12.8299 2.12703 12.6386C2.11648 12.4986 2.10945 9.94219 2.11648 6.95189C2.12703 1.80166 2.13054 1.50776 2.19031 1.38647C2.22546 1.31183 2.30281 1.21386 2.36609 1.16254C2.46804 1.07857 2.53132 1.07391 3.03053 1.08324C3.56139 1.09723 3.58248 1.1019 3.6774 1.21386C3.84615 1.41912 3.86724 1.56374 3.86724 2.42211V3.21517L3.95865 3.30847C4.07466 3.42976 4.22232 3.43443 4.32778 3.3178C4.41216 3.22917 4.41216 3.21984 4.41216 2.27749C4.41216 1.38647 4.40864 1.31649 4.3313 1.11589C4.23638 0.859316 4.03951 0.588741 3.84966 0.453455C3.7231 0.360153 3.64928 0.350822 3.04108 0.341494C2.51374 0.332163 2.34148 0.346159 2.22546 0.40214ZM15.6339 1.16721C15.887 1.37247 15.873 1.10656 15.8835 5.11385C15.8906 8.58932 15.8941 8.71528 15.9609 8.79459C16.0558 8.90655 16.2667 8.89722 16.3616 8.77593C16.4355 8.67796 16.4355 8.6593 16.446 5.99088L16.4566 3.30381L16.8925 3.32247C17.2546 3.3318 17.339 3.35046 17.3917 3.42043C17.4515 3.49974 17.455 3.71433 17.455 7.16648V10.8332L17.3706 10.9219C17.3003 10.9965 17.23 11.0105 16.8749 11.0105H16.4601L16.4495 10.432C16.432 9.75093 16.3968 9.65762 16.1613 9.65762C15.887 9.65762 15.8906 9.62963 15.8906 11.1924C15.8906 11.9528 15.873 12.6573 15.8554 12.7552C15.8378 12.8579 15.7745 13.0025 15.7183 13.0818L15.6093 13.2264L15.0538 13.2404C14.4105 13.2591 14.3226 13.2264 14.2031 12.8998C14.1328 12.7086 14.1328 12.6293 14.1328 7.17115C14.1328 3.36912 14.1433 1.60106 14.1714 1.50776C14.2171 1.34915 14.3367 1.17188 14.4316 1.12056C14.4703 1.09723 14.7304 1.07857 15.0117 1.07857C15.4581 1.07391 15.5355 1.0879 15.6339 1.16721ZM1.54695 7.16181V11.0105H1.1286C0.770009 11.0105 0.699698 10.9965 0.629386 10.9219L0.545012 10.8332L0.534465 7.24112C0.530949 4.92258 0.537981 3.60704 0.56259 3.52773C0.611808 3.35046 0.703213 3.3178 1.15321 3.3178L1.54695 3.31314V7.16181ZM9.98085 3.45776C10.023 3.49508 10.0898 3.60237 10.1285 3.69567C10.1883 3.84962 10.1953 3.97558 10.1953 4.8806C10.1953 5.83227 10.1918 5.90225 10.118 6.07019L10.0406 6.25213H9.71367H9.38671L9.3164 6.09818C9.25312 5.96289 9.24609 5.86493 9.24609 4.88526C9.24609 4.06421 9.25664 3.79364 9.29531 3.69567C9.43242 3.34579 9.71718 3.24783 9.98085 3.45776ZM8.4586 3.87761C8.64493 4.02689 8.6836 4.23216 8.6836 5.09519C8.6836 5.75297 8.67305 5.87426 8.61329 6.0422C8.52891 6.27079 8.37071 6.40607 8.18438 6.40141C8.01915 6.39674 7.89611 6.29878 7.8047 6.09818C7.74142 5.96289 7.73439 5.86026 7.73439 5.09519C7.73439 4.1995 7.75197 4.08754 7.90314 3.9056C8.05431 3.72366 8.2547 3.71433 8.4586 3.87761ZM11.4679 3.95225C11.6718 4.11086 11.707 4.2928 11.707 5.14184C11.707 5.79495 11.6965 5.92557 11.6402 6.06553L11.5769 6.2288L11.2359 6.2428L10.8984 6.25679L10.8281 6.10285C10.7648 5.96289 10.7578 5.86493 10.7578 5.14184C10.7578 4.50273 10.7683 4.3068 10.8105 4.19483C10.9265 3.90094 11.2465 3.78431 11.4679 3.95225ZM6.92932 4.14352C7.12619 4.2928 7.15432 4.43275 7.15432 5.22581C7.15432 5.85093 7.14377 5.96756 7.08752 6.09352C6.99612 6.29411 6.85549 6.39208 6.66565 6.39208C6.52854 6.39208 6.48284 6.36409 6.37034 6.23347L6.24026 6.07485L6.22972 5.25847L6.21917 4.44208L6.32815 4.27414C6.50042 4.01756 6.70784 3.97091 6.92932 4.14352ZM5.77621 6.44806C5.98363 6.9099 6.28245 7.14316 6.6762 7.14316C6.93284 7.14316 7.10158 7.07318 7.31955 6.87725L7.44963 6.75595L7.56564 6.87725C7.63244 6.94256 7.74494 7.02653 7.81876 7.06851C7.99103 7.16648 8.38829 7.16648 8.56055 7.07318C8.63438 7.03119 8.69414 6.99854 8.69766 6.99854C8.70469 6.99854 8.6836 7.12449 8.65547 7.27844C8.60977 7.52569 8.60977 7.591 8.65547 7.83825L8.70821 8.11815H6.56721H4.42974V7.18514V6.25213H5.05903H5.68832L5.77621 6.44806ZM13.5703 7.18514V8.11815H13.1519H12.7371L12.7195 7.58634C12.7019 7.11983 12.6879 7.03119 12.6035 6.8166C12.5367 6.66265 12.4488 6.53203 12.3539 6.44806C12.2695 6.37808 12.2027 6.30811 12.1992 6.28478C12.1992 6.26612 12.5086 6.25213 12.8847 6.25213H13.5703V7.18514Z" fill="#6C60FE"/>
<path d="M11.1798 13.7068L11.0708 13.8514L11.0813 16.002L11.0919 18.1573L11.1763 18.2459C11.2888 18.3672 11.4645 18.3625 11.5595 18.2273C11.6368 18.12 11.6368 18.1106 11.6368 15.9694C11.6368 13.5809 11.6438 13.6555 11.4013 13.5949C11.3063 13.5715 11.2712 13.5902 11.1798 13.7068Z" fill="#6C60FE"/>
</svg>
