<svg width="19" height="19" viewBox="0 0 19 19" fill="none" xmlns="http://www.w3.org/2000/svg">
<path d="M5.71744 0.342148C4.70075 0.584887 4.03233 1.08796 3.60666 1.93227L3.46594 2.21722L3.27245 2.09761C2.9101 1.87246 2.68495 1.81617 2.12912 1.81617C1.68233 1.81969 1.61549 1.82673 1.4009 1.91116C0.788771 2.1539 0.349026 2.59364 0.116841 3.19873C-0.00628806 3.51183 -0.0379497 4.13099 0.0499993 4.47224C0.123877 4.75719 0.289221 5.09491 0.447529 5.27785L0.56714 5.41857L0.426421 5.59798C0.109805 5.99903 -0.013324 6.41767 0.0113017 7.00517C0.0324095 7.5012 0.109805 7.75098 0.366616 8.1274C0.658607 8.55659 1.1476 8.89431 1.65419 9.01393C1.911 9.07373 2.47036 9.06669 2.69199 8.99634C2.78697 8.96819 2.86789 8.94708 2.87141 8.9506C2.87492 8.95412 2.92066 9.028 2.97343 9.11595C3.0262 9.20389 3.11766 9.33406 3.17395 9.40442L3.27597 9.53458L3.2619 12.2188C3.25135 13.9954 3.23376 14.9804 3.20561 15.1317C3.11063 15.6769 2.97694 16.0323 2.78697 16.2363C2.7342 16.2926 2.61459 16.3735 2.51609 16.4192C2.34723 16.5001 2.30501 16.5037 1.60142 16.5037C0.728966 16.5037 0.655089 16.5142 0.415867 16.6585C0.148502 16.8168 0.0218556 17.0349 0.00778379 17.3691C-0.0027701 17.5133 0.0113017 17.6787 0.0359275 17.7561C0.0922149 17.9284 0.331436 18.1853 0.510852 18.2662C0.644535 18.3295 0.989296 18.333 8.9997 18.333C16.0849 18.333 17.3654 18.326 17.4639 18.2838C17.6363 18.2134 17.872 17.9847 17.9459 17.8229C18.0268 17.6505 18.0338 17.2565 17.9635 17.0841C17.879 16.8801 17.7418 16.7323 17.5483 16.6268C17.3795 16.5353 17.3232 16.5248 16.9503 16.5107L16.5352 16.4966V15.9197V15.3427H16.8975C17.3478 15.3427 17.5237 15.2689 17.6504 15.0261C17.7207 14.8924 17.7313 14.8256 17.7313 14.4421C17.7313 13.9743 17.7067 13.8652 17.5624 13.7104C17.3865 13.524 17.3232 13.5134 16.2889 13.5134H15.3391V12.9329V12.3525H16.2819C17.3443 12.3525 17.4217 12.3349 17.6117 12.0851L17.7137 11.9549L17.7242 10.896C17.7348 9.69993 17.7207 9.6155 17.4921 9.4396L17.3689 9.34461L13.946 9.33406L10.523 9.32702L10.6285 9.17223C11.012 8.60232 11.0612 7.69821 10.7446 7.07201L10.6637 6.90667L10.8044 6.80816C11.1703 6.55839 11.508 6.05884 11.6276 5.59798C11.705 5.30247 11.7085 4.80292 11.6311 4.51093C11.4834 3.94102 11.0331 3.38167 10.5195 3.12837C10.1782 2.95951 9.74902 2.87508 9.38667 2.89971C9.08413 2.92081 9.10172 2.93489 9.0595 2.64641C8.93285 1.84784 8.33128 1.0387 7.56789 0.641174C7.10703 0.40547 6.87836 0.349184 6.2979 0.335112C6.01646 0.331594 5.75613 0.331594 5.71744 0.342148ZM6.75172 1.00704C7.11055 1.09147 7.5116 1.32366 7.79304 1.6051C8.23278 2.04484 8.44034 2.50921 8.472 3.12837C8.49663 3.6631 8.61624 3.76864 9.01377 3.62792C9.76661 3.36408 10.5441 3.67718 10.8959 4.39484C11.026 4.65517 11.0296 4.67276 11.0296 5.0527C11.0296 5.43264 11.026 5.45023 10.8959 5.71056C10.7376 6.03069 10.4843 6.28399 10.1571 6.43526C9.8229 6.59357 9.76661 6.7765 9.97065 7.04387C10.2204 7.37104 10.3154 7.64896 10.3119 8.04297C10.3084 8.47216 10.1325 8.84506 9.77717 9.1652L9.59775 9.32702H7.2583C4.67612 9.32702 4.81684 9.31295 4.61631 9.55921L4.51078 9.68586L4.37006 9.61198C3.99012 9.41849 3.59611 8.97875 3.38503 8.51086C3.22672 8.16258 3.13877 8.13795 2.65681 8.3244C2.4387 8.40884 2.37185 8.41587 2.07283 8.40532C1.77732 8.39476 1.70696 8.37717 1.4994 8.27515C1.18982 8.12388 0.918936 7.853 0.771182 7.54342C0.570658 7.1283 0.591766 6.53728 0.820433 6.16086C0.862649 6.09402 1.00337 5.92515 1.13353 5.78444C1.45367 5.44319 1.45367 5.39394 1.13353 5.05622C0.999849 4.91902 0.866167 4.76071 0.830987 4.70794C0.556586 4.26819 0.570658 3.56812 0.862649 3.12837C1.43256 2.26999 2.66736 2.1926 3.3217 2.9771C3.48705 3.17763 3.58907 3.22336 3.75441 3.16707C3.89161 3.12486 3.93383 3.04042 4.0253 2.664C4.21527 1.86894 4.8485 1.22867 5.66467 1.01056C5.91796 0.94372 6.47028 0.940201 6.75172 1.00704ZM17.098 10.8397V11.7192H11.1175H5.13697V10.8397V9.96026H11.1175H17.098V10.8397ZM4.50374 11.1845C4.52133 11.9409 4.52485 11.9901 4.60224 12.0957C4.71482 12.2505 4.93997 12.3525 5.18271 12.3525H5.38323V12.9329V13.5134H5.17919C4.92941 13.5134 4.69723 13.6225 4.58465 13.7913C4.51078 13.9004 4.50374 13.9496 4.50374 14.4175C4.50374 14.9874 4.52485 15.0648 4.73944 15.2266C4.85905 15.3181 4.89072 15.3251 5.28473 15.3357L5.69985 15.3498V15.9267V16.5037H4.56003H3.42021L3.51871 16.2996C3.70516 15.9232 3.80367 15.5222 3.86699 14.8889C3.89161 14.6778 3.90569 13.6084 3.90569 12.3138V10.1045L4.19768 10.2452L4.48615 10.3824L4.50374 11.1845ZM6.89595 12.9329V13.5134H6.45621H6.01646V12.9329V12.3525H6.45621H6.89595V12.9329ZM8.09206 12.9329V13.5134H7.81063H7.52919V12.9329V12.3525H7.81063H8.09206V12.9329ZM13.5097 12.9329V13.5134H11.1175H8.7253V12.9329V12.3525H11.1175H13.5097V12.9329ZM14.7058 12.9329V13.5134H14.4244H14.143V12.9329V12.3525H14.4244H14.7058V12.9329ZM17.098 14.4281V14.7095H11.1175H5.13697V14.4281V14.1466H11.1175H17.098V14.4281ZM6.89595 15.9232V16.5037H6.61452H6.33308V15.9232V15.3427H6.61452H6.89595V15.9232ZM14.7058 15.9232V16.5037H11.1175H7.52919V15.9232V15.3427H11.1175H14.7058V15.9232ZM15.9019 15.9232V16.5037H15.6205H15.3391V15.9232V15.3427H15.6205H15.9019V15.9232ZM17.2352 17.1897C17.4006 17.2741 17.4323 17.4817 17.3021 17.6189L17.2282 17.6998H9.01025H0.795807L0.714894 17.6224C0.577694 17.4922 0.612873 17.2741 0.792289 17.1791C0.841541 17.151 3.17747 17.1404 8.9997 17.1369C16.0743 17.1369 17.1508 17.1439 17.2352 17.1897Z" fill="#6C60FE"/>
<path d="M8.17985 5.51007C8.12357 5.56284 8.0919 5.6332 8.0919 5.70708C8.0919 5.87946 7.96526 6.11164 7.82102 6.19959C7.75066 6.24532 7.61346 6.29106 7.51848 6.30513C7.28981 6.34383 7.19482 6.43178 7.19482 6.61471C7.19482 6.71673 7.22297 6.78005 7.28277 6.8469C7.36369 6.93484 7.38831 6.94188 7.59939 6.92781C8.21152 6.89263 8.69699 6.39308 8.70403 5.80206C8.70755 5.58395 8.69699 5.54877 8.62312 5.48896C8.50351 5.39046 8.28539 5.40101 8.17985 5.51007Z" fill="#6C60FE"/>
<path d="M3.07188 6.1116C2.98745 6.19603 2.98393 6.22065 2.998 6.43877C3.04022 7.01923 3.50107 7.4836 4.08154 7.5223C4.27854 7.53637 4.32428 7.52934 4.40871 7.46249C4.48258 7.40269 4.50369 7.35696 4.50369 7.2479C4.50369 7.00516 4.41926 6.93128 4.10616 6.88555C4.0358 6.87851 3.92675 6.8363 3.87046 6.79408C3.74733 6.70613 3.6242 6.4845 3.6242 6.35434C3.6242 6.23824 3.53977 6.06938 3.46589 6.04124C3.33221 5.99199 3.16335 6.02013 3.07188 6.1116Z" fill="#6C60FE"/>
</svg>
