<svg width="18" height="19" viewBox="0 0 18 19" fill="none" xmlns="http://www.w3.org/2000/svg">
<path d="M5.82211 0.389964C6.00975 0.483984 11.5927 3.89841 11.9603 4.14089C12.7836 4.69016 13.1168 5.90748 12.7377 6.97635C12.6841 7.12975 12.4773 7.62954 12.2705 8.0947C12.0676 8.55985 11.9182 8.95573 11.9335 8.98047C11.9527 9.00026 13.1321 9.90088 14.5489 10.9796L17.1336 12.9392H17.4132C17.842 12.9392 17.999 13.0926 17.999 13.5132C17.999 13.6469 17.9684 13.731 17.8727 13.8497C17.7616 13.9982 17.7233 14.013 17.4361 14.0427C17.0494 14.0823 16.789 14.1961 16.318 14.5425C15.6977 14.9978 15.2075 15.1512 14.5336 15.0967C13.9401 15.0522 13.6107 14.9087 12.887 14.3743C12.2169 13.8844 11.3936 13.919 10.6852 14.4732C10.1415 14.8939 9.76621 15.0522 9.19182 15.1017C8.54469 15.1512 8.01626 14.9879 7.4189 14.5475C6.84069 14.117 6.68752 14.0576 6.1476 14.0576C5.60768 14.0576 5.48131 14.1071 4.93374 14.5079C4.27894 14.9879 3.76583 15.1512 3.08422 15.1017C2.58643 15.0621 2.28392 14.9384 1.66359 14.5178C1.13898 14.1615 0.817329 14.0279 0.46504 14.0279C0.285067 14.0279 0.246775 14.0081 0.131899 13.8596C-0.0136108 13.6716 -0.0404167 13.4341 0.0591431 13.1916C0.143387 12.9788 0.296555 12.9194 0.706282 12.9541C1.15813 12.9887 1.57934 13.1669 2.09629 13.5479C2.59408 13.9141 2.8315 13.9982 3.31398 13.9932C3.75434 13.9883 4.05302 13.8844 4.41296 13.6023C4.73845 13.345 5.16349 13.1075 5.41239 13.0332L5.63065 12.9739L7.26956 9.87614C8.17325 8.17387 8.92378 6.75367 8.9391 6.71903C8.95824 6.67449 8.2843 6.21923 6.75261 5.2246C5.20944 4.22501 4.48572 3.73511 4.36318 3.59656C4.01472 3.19573 3.81943 2.46831 3.90368 1.8745C3.99175 1.25594 4.2866 0.746252 4.70398 0.488933C4.88779 0.37017 4.97969 0.350376 5.30517 0.33553C5.56173 0.325634 5.73404 0.345428 5.82211 0.389964ZM5.04095 1.52316C4.83418 1.67161 4.74228 1.90914 4.76142 2.23079C4.78823 2.70584 4.7193 2.6514 7.2351 4.27449C8.66339 5.19985 9.5556 5.80851 9.6207 5.89264C9.83513 6.1846 9.90789 6.70418 9.78918 7.07532C9.75855 7.16934 9.05014 8.52521 8.2192 10.0889C7.38443 11.6576 6.70283 12.9442 6.70283 12.959C6.70283 12.9689 6.79474 13.0036 6.90195 13.0382C7.13937 13.1075 7.63333 13.3994 7.90904 13.6271C8.22303 13.8844 8.53703 13.9883 9.00036 13.9883C9.49816 13.9883 9.72026 13.9042 10.2449 13.5132C10.4555 13.3598 10.7656 13.1718 10.9341 13.0976C11.2175 12.9739 11.2864 12.964 11.8723 12.964C12.4658 12.9689 12.5232 12.9739 12.8104 13.1025C12.9789 13.1817 13.2776 13.3648 13.4729 13.5132C13.9822 13.8943 14.2196 13.9883 14.6868 13.9932C15.1309 13.9982 15.3952 13.9141 15.7857 13.6419C15.9312 13.5429 16.0461 13.4489 16.0461 13.4341C16.0461 13.4192 15.0352 12.6423 13.7984 11.7021C12.5615 10.7619 11.4779 9.93057 11.3898 9.85634C11.0835 9.59408 10.9456 8.99531 11.0873 8.54995C11.1179 8.45098 11.34 7.93635 11.5736 7.40686C11.9412 6.57552 12.0025 6.39738 12.0178 6.1747C12.0408 5.84315 11.9565 5.5413 11.7842 5.33346C11.7038 5.22955 10.8154 4.66047 9.13439 3.63614C7.74438 2.78501 6.3582 1.93883 6.05187 1.75079C5.43153 1.36976 5.28985 1.34007 5.04095 1.52316Z" fill="#6C60FE"/>
<path d="M3.9685 4.89283C4.54288 5.06108 4.99473 5.38768 5.41977 5.93696C6.04011 6.74355 6.30815 7.62932 6.26986 8.78231C6.2354 9.80664 5.96735 10.5835 5.40446 11.306C4.86454 11.9988 4.27101 12.3353 3.50134 12.3798C2.92695 12.4194 2.55552 12.3205 2.03092 11.9889C1.68246 11.7712 1.59056 11.6821 1.28422 11.2862C0.905127 10.7963 0.69452 10.351 0.537522 9.69778C0.422645 9.22767 0.392011 8.34685 0.472425 7.85695C0.702178 6.46644 1.45653 5.40252 2.50957 4.97201C2.8542 4.83345 3.62004 4.78892 3.9685 4.89283ZM2.94227 5.98644C2.52488 6.10025 2.20706 6.32293 1.89689 6.72376C1.49483 7.24335 1.2689 7.93118 1.26507 8.63881C1.26507 8.95056 1.39527 9.57901 1.52163 9.88582C1.75904 10.4499 2.22238 10.9497 2.71252 11.1675C3.07246 11.3258 3.63153 11.3258 3.99147 11.1675C4.69988 10.8508 5.22831 10.0838 5.38148 9.15345C5.45041 8.71798 5.45041 8.50025 5.38148 8.06479C5.21682 7.05531 4.56586 6.20912 3.78087 5.98644C3.46687 5.89737 3.25627 5.89737 2.94227 5.98644Z" fill="#6C60FE"/>
<path d="M17.7541 16.225C17.9724 16.3536 18.0566 16.6456 17.9609 16.9672C17.9035 17.1652 17.7618 17.2493 17.398 17.2938C16.9998 17.3433 16.7509 17.4522 16.3182 17.7837C16.142 17.9173 15.851 18.0905 15.6672 18.1697C15.357 18.2984 15.2996 18.3083 14.7061 18.3083C14.1279 18.3033 14.0474 18.2934 13.7794 18.1747C13.6147 18.1054 13.3122 17.9223 13.1093 17.7689C12.5349 17.3483 12.4698 17.3235 11.8724 17.3235C11.3019 17.3186 11.0951 17.3829 10.7313 17.6848C10.1378 18.1697 9.70511 18.333 9.00053 18.333C8.39551 18.333 8.04706 18.2291 7.58755 17.9025C6.78724 17.3433 6.59961 17.2691 6.03289 17.3087C5.58104 17.3384 5.3666 17.4274 4.88412 17.7788C4.33654 18.1796 4.02255 18.2934 3.40987 18.3231C2.71296 18.3528 2.43725 18.2637 1.66758 17.7689C1.05108 17.3681 0.886421 17.2938 0.614546 17.2938C0.384792 17.2938 0.181845 17.2147 0.0976009 17.0959C0.059309 17.0415 0.0210171 16.893 0.0133591 16.7643C-0.00195694 16.5763 0.00952911 16.5021 0.078455 16.3932C0.204821 16.1804 0.392452 16.1309 0.809835 16.2002C1.25402 16.2745 1.61397 16.4378 2.03901 16.7545C2.47555 17.0761 2.74742 17.1949 3.13034 17.2295C3.61282 17.274 3.85023 17.1949 4.5012 16.7742C5.23258 16.2992 5.53509 16.1953 6.14776 16.1953C6.49239 16.1953 6.68386 16.22 6.91361 16.2992C7.18931 16.3932 7.34631 16.4823 8.04323 16.9524C8.33808 17.1503 8.6559 17.2443 9.01968 17.2394C9.44855 17.2394 9.76254 17.1157 10.2144 16.7841C10.7045 16.4229 11.03 16.2745 11.501 16.2002C12.1788 16.0914 12.8604 16.2794 13.4654 16.7446C13.9287 17.1008 14.1661 17.2048 14.5988 17.2345C15.0584 17.2641 15.3877 17.1701 15.7591 16.893C16.4369 16.3982 16.8006 16.2349 17.3482 16.1804C17.555 16.1606 17.6699 16.1755 17.7541 16.225Z" fill="#6C60FE"/>
</svg>
