<svg width="18" height="19" viewBox="0 0 18 19" fill="none" xmlns="http://www.w3.org/2000/svg">
<path d="M5.03233 0.37884C3.65734 0.72541 2.6094 2.23771 2.54258 3.97956L2.52148 4.45216L2.61995 4.55118C2.74655 4.6772 2.85556 4.6772 2.97513 4.54668C3.05601 4.45666 3.07007 4.39815 3.09821 4.02907C3.21425 2.41325 4.16022 1.20251 5.42268 1.05398C5.71104 1.01797 5.75675 0.999965 5.82708 0.896445C5.92907 0.743414 5.92907 0.603886 5.83412 0.446354C5.7673 0.338333 5.7462 0.32933 5.47542 0.333831C5.31718 0.338333 5.11673 0.356336 5.03233 0.37884Z" fill="#6C60FE"/>
<path d="M5.08145 1.85518C4.74034 1.98121 4.50121 2.16574 4.23395 2.50781C3.86119 2.98041 3.65723 3.57453 3.65723 4.17315C3.65723 4.38469 3.67129 4.4477 3.74514 4.53772C3.83657 4.65924 3.92449 4.67725 4.05812 4.60073C4.16362 4.53772 4.20933 4.39819 4.23395 4.04712C4.28318 3.29547 4.85287 2.57082 5.44014 2.50331C5.71092 2.4763 5.81993 2.41779 5.86917 2.28277C5.92543 2.12073 5.9184 2.02171 5.834 1.88669C5.76718 1.77866 5.73905 1.76966 5.52806 1.77416C5.39794 1.77416 5.1975 1.81017 5.08145 1.85518Z" fill="#6C60FE"/>
<path d="M5.39446 3.27299C5.21511 3.37201 5.0006 3.65106 4.94433 3.8536C4.91268 3.95712 4.79312 4.70877 4.67356 5.52794C4.44849 7.08525 4.43443 7.3283 4.55047 7.61186C4.63839 7.8324 4.85642 8.07095 5.01467 8.12496C5.15885 8.17447 5.15885 8.17897 5.13071 8.3365C5.07093 8.66957 5.09203 8.99363 5.19753 9.24568C5.33468 9.58325 5.50347 9.72278 5.88326 9.8173L6.18921 9.89381V10.5599C6.18921 11.1901 6.18569 11.2306 6.10129 11.3926C5.90085 11.7842 5.85161 12.2928 5.9747 12.7069L6.04151 12.9319H3.86474C2.15216 12.9319 1.68445 12.9184 1.67038 12.8734C1.66335 12.8464 1.64928 12.7429 1.63522 12.6529C1.60708 12.4278 1.4207 12.1263 1.23081 11.9867C1.09014 11.8877 1.02333 11.8742 0.632987 11.8607C0.225062 11.8427 0.18638 11.8517 0.0949481 11.9417L0 12.0362V15.0969C0 18.0945 0 18.153 0.0703319 18.243C0.133631 18.324 0.18638 18.333 0.590788 18.333C1.08311 18.333 1.23081 18.279 1.4207 18.0359C1.64225 17.7479 1.66687 17.6264 1.68093 16.6812L1.695 15.817L3.98782 15.8035L6.27712 15.79L6.47757 15.6685C6.71318 15.5289 6.99451 15.2049 7.12111 14.9348C7.24067 14.6738 7.31452 14.2822 7.31452 13.9176V13.6206L7.46925 13.544C7.69431 13.436 7.92641 13.1525 8.04245 12.8509C8.12685 12.6349 8.14092 12.5358 8.14092 12.2343C8.14092 11.8607 8.10224 11.6762 7.95806 11.4016C7.88772 11.2621 7.87717 11.1901 7.87717 10.785C7.87717 10.4069 7.88772 10.3214 7.92992 10.3214C7.95806 10.3214 9.72339 10.7355 11.8544 11.2441C14.0207 11.7617 15.8176 12.1668 15.9302 12.1668C16.215 12.1668 16.4717 11.9912 16.6124 11.6987C16.7038 11.5141 16.7425 11.3071 16.9008 10.2179C17.0027 9.52024 17.1293 8.65607 17.1821 8.305L17.2735 7.65687L17.6428 7.11676C17.9909 6.59915 18.0085 6.56315 17.9979 6.39211C17.9909 6.26159 17.9628 6.18957 17.8995 6.13106C17.8362 6.07255 16.746 5.79799 13.9081 5.12286C11.763 4.61425 9.07282 3.97513 7.93344 3.70507C6.79406 3.43052 5.78128 3.20997 5.68282 3.20997C5.58435 3.21447 5.45424 3.24148 5.39446 3.27299ZM9.86757 4.89781C16.0146 6.36061 17.1786 6.63966 17.1856 6.64866C17.2102 6.68017 15.2304 9.55175 15.1249 9.63276C14.9596 9.76779 14.8928 9.76329 14.1297 9.57875C9.217 8.39501 7.38837 7.98093 7.30397 8.03044C7.13517 8.12946 7.09297 8.40402 7.21957 8.58405C7.2899 8.68307 7.38837 8.71908 8.1585 8.89911C9.22755 9.15117 11.4571 9.68227 13.3068 10.1234C14.0769 10.3079 14.7803 10.4564 14.8717 10.4564C15.3007 10.4564 15.5152 10.2764 16.0708 9.44823C16.31 9.08815 16.5104 8.80009 16.5175 8.8091C16.5245 8.8136 16.4506 9.36271 16.3522 10.0288C16.1623 11.3521 16.1341 11.4466 15.9161 11.4466C15.779 11.4466 5.95711 9.11966 5.83403 9.05665C5.69337 8.98463 5.64765 8.8406 5.67579 8.55255L5.7004 8.3095L5.91843 8.36801C6.40372 8.50304 6.58307 8.42652 6.58307 8.08895C6.58307 7.8099 6.51977 7.76939 5.81997 7.60285C5.25379 7.46783 5.18346 7.44082 5.10961 7.3328C5.0639 7.26529 5.02873 7.17977 5.02873 7.14376C5.02873 6.99523 5.45072 4.19567 5.48589 4.11015C5.5316 4.00213 5.61952 3.93462 5.71798 3.93012C5.75667 3.93012 7.62398 4.3667 9.86757 4.89781ZM7.07187 10.1009L7.31452 10.1549V10.4744V10.794H7.03319H6.75186V10.4204C6.75186 10.1909 6.76593 10.0513 6.79055 10.0513C6.80813 10.0513 6.93473 10.0739 7.07187 10.1009ZM7.26529 11.5862C7.53255 11.7482 7.6486 12.1128 7.5431 12.4593C7.45518 12.7609 7.28639 12.9094 7.02967 12.9094C6.69208 12.9094 6.48812 12.6484 6.48812 12.2208C6.48812 11.9057 6.58658 11.7032 6.8011 11.5772C6.98748 11.4691 7.08242 11.4691 7.26529 11.5862ZM1.00223 12.6799C1.04795 12.7384 1.09366 12.8554 1.10773 12.9364C1.11828 13.0219 1.12531 14.0571 1.11828 15.2364L1.10773 17.3788L1.02333 17.4958C0.949481 17.5949 0.907282 17.6129 0.731452 17.6129H0.527489V15.0924V12.5719H0.720902C0.882666 12.5719 0.931898 12.5899 1.00223 12.6799ZM6.74483 13.9761C6.73428 14.1877 6.69911 14.3722 6.6534 14.4892C6.56197 14.7233 6.32284 14.9888 6.15756 15.0473C6.08019 15.0744 5.18346 15.0924 3.86122 15.0924H1.68797V14.3722V13.6521H4.22343H6.76241L6.74483 13.9761Z" fill="#6C60FE"/>
</svg>
