<svg width="18" height="19" viewBox="0 0 18 19" fill="none" xmlns="http://www.w3.org/2000/svg">
<path d="M0.0703125 0.422794C0.00351562 0.507974 0 0.570738 0 1.72291C0 2.87507 0.00351562 2.93784 0.0703125 3.02302C0.137109 3.1082 0.186328 3.11268 1.77539 3.11268H3.41016V3.8524V4.59212H2.97773C2.35195 4.59212 2.39062 4.50245 2.38711 5.94154V7.08026L2.08477 7.32683C1.04766 8.17863 0.270703 9.7029 0.0492187 11.3168C-0.028125 11.9041 -0.00351562 13.1504 0.0984375 13.675C0.256641 14.464 0.513281 15.1947 0.836719 15.782C1.12148 16.2931 1.23398 16.4276 1.38516 16.4276C1.65937 16.4276 1.74023 16.0869 1.54336 15.7731C1.06172 15.0065 0.745312 14.1502 0.611719 13.258C0.534375 12.7245 0.558984 11.5813 0.664453 11.0882C0.882422 10.0347 1.29727 9.14251 1.90547 8.4252C2.51016 7.71238 3.35039 7.20579 4.1625 7.06233C4.53867 6.99508 13.4613 6.99508 13.8375 7.06233C14.5758 7.19234 15.3035 7.6003 15.9187 8.22795C16.1051 8.41624 16.2105 8.49245 16.2844 8.49245C16.425 8.49245 16.5586 8.31312 16.5586 8.12932C16.5586 7.94551 16.3477 7.68548 15.9117 7.32683L15.6129 7.08026V5.93258C15.6094 4.49797 15.648 4.59212 15.0187 4.59212H14.5898V3.8524V3.11268H16.2246C17.8137 3.11268 17.8629 3.1082 17.9297 3.02302C17.9965 2.93784 18 2.87507 18 1.72291C18 0.570738 17.9965 0.507974 17.9297 0.422794C17.8594 0.333132 17.8137 0.333132 13.6617 0.333132H9.46055L9.39023 0.449693C9.26719 0.651434 9.29883 0.875591 9.46055 0.983187C9.54492 1.04147 10.1109 1.05043 13.5176 1.05043H17.4727V1.72291V2.39538H9H0.527344V1.72291V1.05043H4.48242C7.88906 1.05043 8.45508 1.04147 8.53945 0.983187C8.70117 0.875591 8.73281 0.651434 8.60977 0.449693L8.53945 0.333132H4.33828C0.186328 0.333132 0.140625 0.333132 0.0703125 0.422794ZM14.0273 3.8524V4.59212H13.5879C12.9797 4.59212 13.0078 4.54729 13.0078 5.53358V6.29571H9H4.99219V5.53358C4.99219 4.54729 5.02031 4.59212 4.41211 4.59212H3.97266V3.8524V3.11268H9H14.0273V3.8524ZM4.42969 5.79808V6.29123L4.26445 6.31813C3.87422 6.38537 3.49805 6.484 3.2625 6.58711C3.12187 6.64988 2.99531 6.69919 2.98125 6.69919C2.96367 6.69919 2.95312 6.38537 2.95312 6.00431V5.30942H3.69141H4.42969V5.79808ZM15.0469 6.00431C15.0469 6.38537 15.0328 6.69919 15.0187 6.69919C15.0012 6.69919 14.8711 6.64988 14.7305 6.58711C14.4879 6.484 14.1258 6.38537 13.7391 6.31813L13.5703 6.29123V5.79808V5.30942H14.3086H15.0469V6.00431Z" fill="#6C60FE"/>
<path d="M16.8473 9.04375C16.7312 9.20066 16.7523 9.35309 16.9422 9.80589C17.2832 10.6218 17.4379 11.4019 17.4379 12.3164C17.4379 13.8183 17.0336 15.0377 16.1723 16.1137C15.6133 16.813 15.0578 17.221 14.2844 17.4945L13.9398 17.6155H9.03554C4.37031 17.6155 4.11718 17.611 3.84999 17.5303C3.43163 17.4093 3.03437 17.212 2.69335 16.961C2.33476 16.701 2.19062 16.6785 2.07812 16.8579C1.97968 17.0193 1.9832 17.1986 2.08867 17.3331C2.2082 17.481 2.80585 17.8711 3.16445 18.0325C3.88163 18.3508 3.50898 18.3328 9.00038 18.3328C13.6937 18.3328 13.9539 18.3283 14.2387 18.2476C15.1809 17.9831 16.007 17.4003 16.675 16.5216C17.2832 15.7236 17.6629 14.8539 17.8809 13.76C18.0039 13.1548 18.0391 11.9578 17.9512 11.3167C17.8457 10.5411 17.466 9.33516 17.2375 9.03927C17.132 8.90478 16.9492 8.90478 16.8473 9.04375Z" fill="#6C60FE"/>
<path d="M3.60252 9.79695C3.29666 9.87765 2.88181 10.1556 2.63572 10.4515C2.21033 10.9581 1.99939 11.5633 1.99236 12.303C1.98885 12.8141 2.03806 13.1145 2.20681 13.5583C2.59353 14.567 3.5533 15.1678 4.41463 14.9346C4.74158 14.845 4.9947 14.6791 5.22674 14.4011C5.39549 14.1949 5.41306 14.1546 5.41306 13.9842C5.41306 13.7511 5.3322 13.648 5.15642 13.648C5.05447 13.648 4.99119 13.6928 4.83299 13.8721C4.42517 14.3249 3.89783 14.3877 3.35994 14.0425C2.80447 13.6838 2.45994 12.8455 2.56541 12.0878C2.66736 11.3436 3.0576 10.7743 3.61306 10.5546C4.0033 10.4022 4.32674 10.447 4.76267 10.7115C4.98416 10.8505 5.02986 10.8639 5.12478 10.8191C5.25838 10.7608 5.3322 10.5546 5.2865 10.3842C5.24431 10.2228 4.96658 9.99421 4.68181 9.87765C4.4076 9.77005 3.87322 9.7297 3.60252 9.79695Z" fill="#6C60FE"/>
<path d="M6.53613 9.83274L6.45176 9.91792L6.44121 12.3164L6.43066 14.7149L6.51855 14.8449L6.60293 14.9704L7.31309 14.9839C8.08301 14.9973 8.15684 14.9794 8.22715 14.7463C8.26582 14.6118 8.20957 14.3786 8.12168 14.3204C8.08652 14.2935 7.81934 14.2755 7.52754 14.2755H6.99668V12.1057V9.93137L6.90527 9.84171C6.78926 9.72514 6.6416 9.72066 6.53613 9.83274Z" fill="#6C60FE"/>
<path d="M9.34761 9.83279L9.26323 9.91797L9.25269 11.5947C9.24214 13.4059 9.2562 13.6524 9.4144 14.02C9.60425 14.4684 10.0648 14.8584 10.5042 14.9525C11.1582 15.0915 11.9 14.6253 12.1601 13.9169L12.2515 13.6704L12.2621 11.8143L12.2726 9.95832L12.1953 9.85072C12.1109 9.74312 11.9597 9.71623 11.8472 9.79244C11.7207 9.87762 11.7066 10.0704 11.7066 11.774C11.7066 13.5897 11.7066 13.5941 11.4921 13.8676C11.1828 14.2576 10.7082 14.3652 10.3285 14.1276C10.0859 13.9752 9.89956 13.7107 9.84683 13.4462C9.82222 13.3207 9.80815 12.6527 9.80815 11.5902V9.93142L9.71675 9.84175C9.60073 9.72519 9.45308 9.72071 9.34761 9.83279Z" fill="#6C60FE"/>
<path d="M13.377 9.85532L13.2891 9.96739V12.3614C13.2891 14.6568 13.2926 14.7644 13.3559 14.863C13.4227 14.9706 13.4227 14.9706 14.2453 14.9706H15.0645L15.293 14.8316C15.5848 14.6523 15.7676 14.4192 15.9012 14.0515C15.9961 13.805 16.0102 13.7108 16.0102 13.4015C16.0102 12.9263 15.8906 12.5721 15.6234 12.2628C15.4723 12.0834 15.4441 12.0341 15.4828 11.9938C15.5848 11.8862 15.6902 11.4782 15.6902 11.1823C15.6937 10.604 15.4758 10.1378 15.0891 9.89566C14.8922 9.77462 14.8746 9.77014 14.1785 9.75669L13.4684 9.74324L13.377 9.85532ZM14.8957 10.5816C15.0398 10.7206 15.1277 10.9402 15.1277 11.1689C15.1277 11.393 15.0539 11.5499 14.8711 11.7069C14.7656 11.801 14.7129 11.81 14.3051 11.81H13.8516V11.133V10.4561L14.3227 10.474C14.7375 10.4874 14.8078 10.5009 14.8957 10.5816ZM15.068 12.6259C15.2262 12.738 15.3914 12.9935 15.4336 13.2042C15.5004 13.5091 15.4195 13.805 15.2086 14.0426C15.0363 14.2353 14.8887 14.2757 14.3367 14.2757H13.8516V13.397V12.5183L14.407 12.5362C14.8359 12.5497 14.9836 12.5676 15.068 12.6259Z" fill="#6C60FE"/>
</svg>
