<svg width="18" height="19" viewBox="0 0 18 19" fill="none" xmlns="http://www.w3.org/2000/svg">
<path d="M14.0926 0.387951C12.4397 0.767466 11.027 2.24377 10.4139 4.22104C10.0912 5.26091 10.0517 6.47536 10.3099 7.42414C10.4892 8.07311 10.8047 8.66136 11.2027 9.08262L11.4214 9.31792L11.0091 10.2705L10.5931 11.2269L10.4139 11.2041C10.2131 11.1775 10.127 11.094 9.99435 10.8056C9.92981 10.6652 9.91547 10.5665 9.91189 10.2363C9.90472 9.76195 9.86886 9.60256 9.686 9.30274C9.48162 8.96877 4.98892 2.08058 4.8706 1.92119C4.53355 1.46957 3.8272 1.2836 3.27861 1.50752C2.97742 1.62896 2.62245 2.00468 2.50772 2.32347C2.39298 2.63847 2.38939 3.11286 2.50055 3.40509C2.54716 3.52274 3.1818 4.53225 3.97779 5.75428C4.74869 6.93078 5.37257 7.89854 5.3654 7.90233C5.36182 7.90613 5.26142 7.89854 5.1431 7.87956C3.80927 7.6974 2.40373 8.20215 1.41412 9.21545C-0.188621 10.855 -0.461123 13.4319 0.761551 15.4053C1.0484 15.8721 1.62926 16.4869 2.07028 16.7906C3.01686 17.4471 4.175 17.7204 5.26859 17.542C6.16857 17.3978 7.0291 16.9803 7.64223 16.3883C7.75338 16.282 7.84661 16.1947 7.85378 16.1947C7.86095 16.1947 7.86095 16.3427 7.85378 16.5211C7.83944 16.931 7.91473 17.2498 8.10118 17.5534C8.77527 18.6616 10.3708 18.5705 10.9158 17.394C11.2314 16.7184 11.1059 15.9101 10.6075 15.3901C10.421 15.2004 10.4103 15.1814 10.5035 15.208C10.5609 15.227 10.6935 15.2877 10.7939 15.3484C10.9625 15.4433 11.0306 15.5268 11.4537 16.1795L11.927 16.9044L11.8445 16.9879C11.7369 17.0942 11.6796 17.3219 11.7118 17.4889C11.7477 17.6824 12.0525 17.9898 12.2927 18.0733C12.5401 18.1568 12.8628 18.134 13.0851 18.0164C13.3253 17.8874 13.9385 17.4168 14.003 17.3143L14.0568 17.227L14.2898 17.3409C14.6627 17.5268 14.8528 17.523 15.5591 17.3181C16.226 17.1245 16.3121 17.0676 16.3121 16.8019C16.3121 16.6539 16.2547 16.5515 15.7563 15.8076L15.5591 15.5116L15.6918 15.4509C15.7671 15.4205 16.0217 15.3067 16.2583 15.2004C16.9467 14.893 16.9826 14.874 17.0471 14.726C17.1583 14.4831 17.0938 14.3693 16.5452 13.8228C16.2798 13.5571 16.0611 13.3294 16.0611 13.3142C16.0611 13.3028 16.2834 13.1396 16.5595 12.9575C17.0938 12.5969 17.1906 12.5096 17.2264 12.3578C17.273 12.1529 17.1726 12.0163 16.7029 11.6519C16.4591 11.466 16.2045 11.28 16.14 11.2459C15.8998 11.1168 15.742 11.113 14.0926 11.2269C13.2142 11.2876 12.4361 11.3331 12.3608 11.3293L12.2317 11.318L12.5186 10.6538L12.8054 9.98966L13.4042 9.98587C13.9456 9.98587 14.0281 9.97448 14.3221 9.8796C16.1615 9.28376 17.5635 7.48107 17.9435 5.20778C18.0188 4.75236 18.0188 3.83774 17.9435 3.40509C17.6567 1.79974 16.7926 0.729513 15.5161 0.406927C15.1576 0.315844 14.4512 0.308252 14.0926 0.387951ZM15.448 0.904091C17.1906 1.39366 18.0009 3.64798 17.2766 5.98958C16.8428 7.39758 15.8173 8.66895 14.6807 9.21166C13.8452 9.61394 12.8915 9.61774 12.1923 9.23063C11.382 8.77901 10.8441 7.93269 10.6613 6.80933C10.5752 6.29319 10.6075 5.37856 10.7294 4.86622C11.1776 2.98383 12.3644 1.49613 13.8201 0.979994C14.3938 0.778851 14.9137 0.752285 15.448 0.904091ZM4.2252 2.01986C4.31484 2.0654 4.42599 2.1489 4.46543 2.19823C4.573 2.31968 9.2378 9.48111 9.35254 9.69744C9.43501 9.85304 9.44576 9.91376 9.43859 10.1794C9.43142 10.5324 9.47803 10.8398 9.57843 11.0485C9.65731 11.2079 9.64655 11.2231 9.46369 11.299C9.39557 11.3293 9.28083 11.3901 9.20912 11.4356L9.08004 11.5191L8.99757 11.2307C8.89359 10.8815 8.64977 10.3388 8.44181 10.0086C8.11911 9.49629 7.59562 8.946 7.43068 8.946C7.22272 8.946 7.13667 9.18509 7.27292 9.37105L7.34463 9.46214L6.65262 10.1946L5.9606 10.9271L5.84587 10.7791C5.69527 10.5855 5.47297 10.1225 5.37616 9.7999C5.31521 9.59876 5.29369 9.4128 5.27935 9.0219C5.27218 8.72967 5.27935 8.48678 5.29728 8.45642C5.33672 8.3995 5.44787 8.41847 5.92475 8.57028C6.14705 8.64239 6.17574 8.64618 6.25462 8.58925C6.42673 8.46781 6.39446 8.22871 6.19367 8.13763C6.09686 8.09209 5.8136 7.67842 4.5479 5.73531C3.70529 4.44116 2.99535 3.33298 2.96308 3.27226C2.71926 2.75991 3.04196 2.0692 3.59414 1.92119C3.76625 1.87565 4.03875 1.91739 4.2252 2.01986ZM4.8204 8.95738C4.8204 9.48491 4.83116 9.61394 4.90287 9.87581C5.01043 10.2781 5.22915 10.7449 5.44428 11.0447L5.61639 11.2914L5.11083 11.8265L4.60527 12.3616L3.22483 10.9005L1.84439 9.43557L1.93403 9.35967C2.1384 9.1813 2.63321 8.85491 2.87703 8.73726C3.38618 8.49058 3.96704 8.35016 4.51563 8.34257L4.8204 8.33877V8.95738ZM12.0811 9.73159C12.2102 9.78852 12.3214 9.83786 12.3285 9.84545C12.3465 9.85683 11.7298 11.2914 11.6724 11.3711C11.6437 11.409 11.5756 11.4166 11.3855 11.4015C11.2493 11.3901 11.1238 11.3635 11.1059 11.3445C11.0772 11.3142 11.7871 9.62912 11.8302 9.62912C11.8409 9.62912 11.9521 9.67466 12.0811 9.73159ZM2.89137 11.2686L4.26464 12.7222L3.75907 13.2573L3.24993 13.7962L3.06706 13.6482C2.79815 13.4319 2.31768 13.1776 1.94837 13.0599C1.66153 12.9688 1.57189 12.9575 1.0484 12.9537L0.46395 12.9499V12.5855C0.46395 11.9821 0.600201 11.3901 0.88346 10.7828C1.02688 10.4754 1.44639 9.81888 1.50018 9.81888C1.51093 9.81888 2.1384 10.4716 2.89137 11.2686ZM8.03306 10.2705C8.33424 10.7487 8.58523 11.3749 8.65694 11.8189L8.68204 11.9783L8.54579 12.0049C8.35217 12.0428 7.68526 11.9935 7.43785 11.9252C7.15459 11.8417 6.69206 11.6064 6.47334 11.4318L6.30123 11.2876L6.99324 10.5551L7.68526 9.82267L7.76772 9.90237C7.81434 9.94792 7.93266 10.1149 8.03306 10.2705ZM15.8962 11.6785C16.0324 11.7316 16.6778 12.2554 16.6456 12.2857C16.5631 12.373 15.6416 12.9726 15.5627 12.9954C15.4695 13.022 11.4429 12.7222 11.4106 12.688C11.3891 12.669 11.529 11.9442 11.5612 11.9138C11.5899 11.8834 15.5627 11.6064 15.699 11.6292C15.7635 11.6368 15.8531 11.6595 15.8962 11.6785ZM6.66696 12.1415C6.81397 12.2174 7.08288 12.3275 7.25858 12.3844C7.54901 12.4793 7.63864 12.4869 8.16214 12.4907L8.74658 12.4945V12.7791C8.74658 13.6975 8.41671 14.6767 7.86453 15.4129L7.6996 15.6368L6.32275 14.1795L4.94589 12.7222L5.45146 12.187L5.95702 11.6519L6.17932 11.8265C6.29765 11.9214 6.51995 12.0656 6.66696 12.1415ZM10.1808 11.7051C10.1844 11.7734 9.62863 14.4717 9.60711 14.4983C9.56767 14.5476 9.21629 14.411 9.10514 14.3047L8.99757 14.2023L9.05135 14.0125C9.15175 13.6785 9.2127 13.1169 9.20912 12.6197C9.20553 12.206 9.21629 12.1263 9.27366 12.0466C9.3633 11.9176 9.53899 11.7961 9.72185 11.7354C9.89037 11.6785 10.1808 11.6633 10.1808 11.7051ZM10.9696 11.8303C11.0306 11.8493 11.0557 11.8796 11.0521 11.929C11.0449 11.9897 10.5788 14.3275 10.5214 14.597C10.4999 14.6805 10.4892 14.6843 10.3314 14.6577C10.2382 14.6425 10.1449 14.6197 10.1234 14.6083C10.0983 14.5894 10.1772 14.1264 10.3708 13.17L10.6613 11.7582L10.7688 11.781C10.8298 11.7961 10.9194 11.8151 10.9696 11.8303ZM7.29085 16.0505C7.17611 16.1795 6.70281 16.5021 6.37294 16.6691C5.82435 16.9462 5.18971 17.1056 4.63036 17.1056H4.39013L4.38655 16.5059C4.38296 16.0201 4.36862 15.8532 4.30408 15.6065C4.21085 15.2383 3.92401 14.6121 3.73398 14.3541L3.59055 14.1643L4.0997 13.6216L4.60527 13.0827L5.97495 14.5324C7.2514 15.8835 7.34104 15.986 7.29085 16.0505ZM13.3182 13.3484C14.3831 13.4319 15.3189 13.5002 15.3978 13.5002C15.534 13.5002 15.5699 13.5305 16.0432 14.0087L16.5452 14.5173L16.3121 14.6273C16.183 14.688 15.8747 14.8285 15.6237 14.9385L15.1683 15.1397L13.2034 14.3844L11.2385 13.6254L11.2457 13.4622C11.2565 13.2611 11.278 13.1966 11.3354 13.1966C11.3604 13.1966 12.2533 13.2649 13.3182 13.3484ZM1.84439 13.5381C2.16709 13.6482 2.47545 13.8114 2.71926 14.0011L2.9093 14.1529L2.21729 14.8892C1.83363 15.2953 1.51452 15.6254 1.50018 15.6254C1.48942 15.6254 1.39261 15.5002 1.28146 15.3446C0.937243 14.855 0.675498 14.244 0.521319 13.5685C0.492634 13.4319 0.524904 13.4243 1.10935 13.4394C1.48942 13.4508 1.64718 13.4698 1.84439 13.5381ZM13.3182 14.9575C14.2253 15.3067 14.9926 15.6141 15.0249 15.6368C15.1217 15.7127 15.7743 16.7033 15.7456 16.7336C15.7312 16.745 15.5161 16.8133 15.2615 16.8854C14.8169 17.0069 14.799 17.0069 14.6484 16.95C14.5588 16.9158 13.6911 16.4338 12.7194 15.8759L10.9481 14.8588L11.0127 14.5324C11.0485 14.3503 11.0844 14.1795 11.0951 14.1567C11.1059 14.1226 11.1848 14.1378 11.3891 14.2175C11.5433 14.2782 12.411 14.6121 13.3182 14.9575ZM3.63358 15.1511C3.86664 15.6482 3.92042 15.8949 3.92401 16.4869C3.92401 16.7602 3.91325 16.9993 3.89891 17.0145C3.8523 17.06 3.30371 16.9006 2.94874 16.7374C2.65114 16.6008 2.15992 16.282 1.93761 16.0809L1.84797 16.0012L2.54716 15.2611L3.24275 14.5211L3.36108 14.6653C3.42203 14.745 3.54753 14.9613 3.63358 15.1511ZM9.01191 14.8474C9.15175 14.9233 9.16968 14.9423 9.10155 14.9423C9.05494 14.9423 8.92944 14.9841 8.82905 15.0372C8.72507 15.0865 8.63901 15.1207 8.63901 15.1131C8.63901 15.0752 8.79678 14.7526 8.81471 14.7526C8.82905 14.7526 8.9151 14.7943 9.01191 14.8474ZM9.87245 15.4736C10.3063 15.6482 10.6111 16.1036 10.6147 16.5856C10.6182 16.9727 10.5071 17.2498 10.2489 17.5116C9.69317 18.0619 8.81471 17.8987 8.44181 17.1739C8.29839 16.8968 8.27687 16.4945 8.38803 16.1833C8.61033 15.5647 9.28083 15.2421 9.87245 15.4736ZM12.3608 16.2403L12.6226 16.3921L12.4863 16.5021C12.411 16.5628 12.3393 16.6122 12.3285 16.6122C12.3106 16.6122 12.221 16.4832 11.9915 16.1036L11.9234 15.9936L12.0094 16.0429C12.0596 16.0695 12.2174 16.1606 12.3608 16.2403ZM13.6122 17.0031C13.5871 17.0828 12.8592 17.5989 12.7337 17.6217C12.5688 17.6558 12.368 17.5837 12.2497 17.4547L12.1529 17.3484L12.6262 17.0069L13.0959 16.6653L13.3612 16.8133C13.5082 16.893 13.6193 16.9803 13.6122 17.0031Z" fill="#6C60FE"/>
<path d="M14.1152 1.37848C13.0539 1.62137 12.0571 2.50943 11.4763 3.73906C10.5404 5.71253 10.9707 8.001 12.4193 8.75244C13.4806 9.30653 14.7929 8.96117 15.8148 7.86817C17.2096 6.37288 17.586 3.94399 16.6502 2.4525C16.098 1.57203 15.1084 1.15456 14.1152 1.37848ZM15.155 1.87564L15.2375 1.906L15.1299 2.1451L15.026 2.38419L14.9076 2.32726C14.7248 2.24377 14.2156 1.99709 14.2049 1.9857C14.1762 1.95154 14.2515 1.84907 14.316 1.83389C14.4379 1.80733 15.0654 1.83769 15.155 1.87564ZM16.0299 2.44491C16.2522 2.6916 16.3526 2.85479 16.3275 2.9269C16.3168 2.96105 16.2917 2.98762 16.2773 2.98762C16.263 2.98762 16.0729 2.89653 15.8578 2.78647L15.4598 2.58913L15.5638 2.35003L15.6678 2.10714L15.7646 2.18305C15.8219 2.22479 15.9403 2.34244 16.0299 2.44491ZM13.5272 2.2172C13.538 2.23618 13.477 2.40696 13.3909 2.59672L13.2404 2.94587L13.0037 2.82443L12.7635 2.70298L12.9678 2.52841C13.3049 2.23997 13.4842 2.1413 13.5272 2.2172ZM14.4702 2.66883C14.7786 2.82063 14.8108 2.8434 14.7857 2.9193C14.7427 3.07111 14.5204 3.53791 14.4917 3.53791C14.4343 3.53791 13.6957 3.16219 13.6957 3.13563C13.6957 3.11665 13.7603 2.95726 13.8391 2.77509C14.0005 2.39937 13.9467 2.41076 14.4702 2.66883ZM15.6785 3.25707C15.8972 3.36334 16.0837 3.45442 16.0909 3.46201C16.098 3.4696 15.8148 4.12996 15.7897 4.16032C15.7682 4.18309 14.9471 3.77701 14.9578 3.74665C15.0403 3.5455 15.2518 3.06352 15.2626 3.06352C15.2698 3.06352 15.4562 3.15081 15.6785 3.25707ZM12.7563 3.25707C12.8961 3.32159 13.0145 3.39749 13.0145 3.42406C13.0145 3.45062 12.9499 3.61761 12.871 3.79598L12.7276 4.12236L12.3762 3.94779C12.1862 3.85291 12.0213 3.76942 12.0141 3.76183C11.9747 3.72388 12.4085 3.09388 12.4587 3.11665C12.4766 3.12424 12.6129 3.18876 12.7563 3.25707ZM13.8822 3.80737C14.0865 3.90225 14.2622 3.99333 14.2802 4.00851C14.2981 4.03128 14.0543 4.66887 14.0041 4.72579C13.9969 4.72959 13.3192 4.41459 13.1686 4.33489C13.1471 4.32351 13.4627 3.63279 13.4878 3.63279C13.5021 3.63279 13.6814 3.71249 13.8822 3.80737ZM16.6502 3.79598C16.6825 3.90984 16.7219 4.61953 16.7004 4.61953C16.6897 4.61953 16.5749 4.5664 16.4423 4.50188L16.2056 4.38423L16.2773 4.24001C16.3168 4.16032 16.3849 4.00092 16.4351 3.88327C16.5283 3.66315 16.6072 3.629 16.6502 3.79598ZM12.1754 4.39562C12.3511 4.4829 12.5017 4.55881 12.5089 4.5664C12.5161 4.57399 12.4551 4.74097 12.3726 4.93832L12.2185 5.29506L11.9101 5.14326C11.738 5.05977 11.5874 4.98007 11.5731 4.96868C11.5336 4.92694 11.7559 4.24001 11.8097 4.24001C11.8348 4.24001 11.9997 4.31212 12.1754 4.39562ZM15.2052 4.45254L15.5853 4.63471L15.4455 4.9573C15.3666 5.13946 15.2913 5.29506 15.2769 5.31404C15.2626 5.32922 15.0726 5.25711 14.8574 5.15085C14.5562 5.00663 14.4666 4.94591 14.4738 4.89278C14.4881 4.76754 14.7463 4.23622 14.7857 4.2514C14.8072 4.26278 14.9973 4.35007 15.2052 4.45254ZM13.7208 5.15464L13.7997 5.185L13.7101 5.40133C13.6599 5.51898 13.5881 5.68217 13.5523 5.76187L13.4806 5.90608L13.079 5.71253C12.8567 5.60627 12.6702 5.51518 12.6631 5.51139C12.6559 5.5038 12.7204 5.34061 12.8065 5.14326L12.9607 4.78272L13.3013 4.94971C13.4878 5.04458 13.6778 5.13567 13.7208 5.15464ZM16.3311 4.99904C16.6861 5.17362 16.6681 5.10531 16.5211 5.63663C16.4351 5.95162 16.4745 5.94783 16.0084 5.71632L15.7072 5.56452L15.7969 5.3482C15.8506 5.23055 15.9188 5.06736 15.951 4.99145C15.9833 4.91175 16.012 4.84724 16.0156 4.84724C16.0156 4.84724 16.159 4.91555 16.3311 4.99904ZM14.6495 5.60627C14.8646 5.71253 15.0439 5.80361 15.0511 5.815C15.0654 5.83018 14.818 6.42981 14.7678 6.49053C14.757 6.50951 14.5598 6.43361 14.3339 6.32355L13.9216 6.1262L14.0435 5.84156C14.1869 5.50759 14.23 5.41651 14.2515 5.41651C14.2586 5.41651 14.4379 5.5038 14.6495 5.60627ZM11.7452 5.61386C11.8814 5.67837 11.9962 5.7353 12.0033 5.74289C12.0105 5.74669 11.946 5.91367 11.8599 6.10722L11.7021 6.46776L11.591 6.41084C11.5049 6.36909 11.4763 6.32355 11.4583 6.21728C11.4189 5.9706 11.4404 5.49241 11.4906 5.49241C11.4978 5.49241 11.6125 5.54554 11.7452 5.61386ZM13.2511 6.38427C13.2619 6.40704 13.2009 6.57403 13.122 6.75619L12.975 7.08258L12.7814 6.99149C12.6738 6.93836 12.491 6.85107 12.3798 6.79794C12.2651 6.74481 12.1647 6.69168 12.1575 6.68409C12.1503 6.6765 12.2113 6.50951 12.2938 6.31216L12.4479 5.95542L12.8424 6.14897C13.0611 6.25523 13.2439 6.3615 13.2511 6.38427ZM15.8686 6.19831C16.0622 6.29319 16.2307 6.38047 16.2343 6.38427C16.2486 6.39945 15.9869 6.86625 15.9008 6.9877C15.8506 7.05601 15.8399 7.05601 15.553 6.91938C15.3881 6.83969 15.2447 6.76378 15.2267 6.7486C15.2052 6.72583 15.4777 6.02373 15.5064 6.02373C15.51 6.02373 15.6749 6.10343 15.8686 6.19831ZM14.1475 6.78655C14.3626 6.88902 14.5419 6.98011 14.5455 6.9877C14.5562 6.99908 14.2766 7.65944 14.2515 7.686C14.23 7.70877 13.4053 7.30269 13.416 7.27613C13.5451 6.96493 13.7172 6.593 13.7352 6.593C13.7495 6.593 13.9359 6.68029 14.1475 6.78655ZM12.7384 7.53799C12.7527 7.55317 12.7025 7.71636 12.62 7.89853L12.4766 8.2325L12.3332 8.11106C12.1683 7.97443 11.946 7.70877 11.8635 7.55697C11.8097 7.4545 11.8097 7.43552 11.8707 7.28751L11.9352 7.12812L12.3224 7.31788C12.534 7.42414 12.724 7.52281 12.7384 7.53799ZM15.3451 7.37101C15.5638 7.48866 15.5674 7.47727 15.1766 7.80745C14.9148 8.03136 14.9112 8.03516 14.8037 7.97823C14.7463 7.94407 14.6997 7.90612 14.6997 7.88715C14.6997 7.87197 14.7642 7.70877 14.8431 7.5304C15.008 7.16227 14.9722 7.17366 15.3451 7.37101ZM13.6419 7.96305L14.0471 8.1604L13.9754 8.32359C13.918 8.44503 13.875 8.49057 13.7925 8.50575C13.6312 8.53991 13.2654 8.52473 13.0754 8.47919L12.9069 8.43365L13.0575 8.09967C13.14 7.91751 13.2153 7.7695 13.2224 7.7695C13.2296 7.7695 13.4196 7.85679 13.6419 7.96305Z" fill="#6C60FE"/>
</svg>
