<svg width="18" height="19" viewBox="0 0 18 19" fill="none" xmlns="http://www.w3.org/2000/svg">
<g clip-path="url(#clip0_81_72350)">
<path d="M2.71726 0.40332C2.14773 0.572069 1.65906 0.979881 1.41297 1.49316C1.33562 1.6584 1.2618 1.84824 1.24773 1.91504C1.20555 2.13652 1.195 2.15762 1.07898 2.18223C0.716874 2.25957 0.340703 2.57598 0.150859 2.9627C0.0207807 3.22637 0.017265 3.23691 0.017265 3.63769C0.017265 4.02441 0.0242963 4.05254 0.136796 4.28457C0.273906 4.56582 0.498906 4.8084 0.755546 4.95254C1.06492 5.12129 1.2618 5.14941 2.29539 5.14941H3.23406L3.26922 5.24082C3.32195 5.37441 3.31492 5.38496 3.18484 5.40957C3.00203 5.44473 2.64695 5.59941 2.42898 5.73652C1.86648 6.09512 1.41297 6.71387 1.24773 7.34668C1.15633 7.69473 1.14226 8.21504 1.20906 8.55957C1.27937 8.90762 1.43758 9.32949 1.56414 9.51582C1.61336 9.58613 1.65203 9.65996 1.65203 9.67402C1.65203 9.68809 1.53953 9.77246 1.40242 9.86035C0.759062 10.2682 0.252812 10.9959 0.0664838 11.7799C0.00320255 12.0506 -0.0038287 12.1666 0.0102338 12.6201C0.0313275 13.2389 0.0770307 13.4287 0.316093 13.9209C0.783671 14.8771 1.68719 15.5064 2.75242 15.6225C3.25516 15.6787 3.83523 15.5873 4.28172 15.3799L4.49969 15.2779V16.4873V17.6967L2.34109 17.7072L0.182499 17.7178L0.0910932 17.8021C-0.0319537 17.9182 -0.0354693 18.1467 0.0805463 18.2557L0.161406 18.333H9.0032H17.8485L17.9223 18.2521C17.9751 18.1959 17.9997 18.1256 17.9997 18.0307C17.9997 17.8268 17.8907 17.7354 17.6165 17.7107L17.402 17.6896V17.2748V16.8564H17.5567C17.8591 16.8564 17.9962 16.7545 17.9997 16.5295C17.9997 16.3186 17.8802 16.2236 17.613 16.2236H17.402V16.083V15.9424H17.613C17.8802 15.9424 17.9997 15.8475 17.9997 15.6365C17.9962 15.4115 17.8591 15.3096 17.5567 15.3096H17.402V14.8912V14.4764L17.6165 14.4553C17.8942 14.4307 17.9997 14.3428 17.9997 14.1318C17.9997 13.9139 17.8977 13.833 17.6235 13.833C17.4161 13.833 17.4091 13.8295 17.3915 13.7275C17.3774 13.6607 17.3317 13.608 17.2649 13.5693C17.0645 13.4674 16.8993 13.5201 16.8184 13.7135L16.7692 13.833H14.3962H12.0231L12.002 13.7451C11.9739 13.6326 11.8298 13.5166 11.7173 13.5166C11.5591 13.5166 11.3938 13.6467 11.3903 13.7697C11.3903 13.8225 11.3552 13.833 11.1794 13.833C10.9157 13.833 10.7927 13.9279 10.7927 14.1283C10.7927 14.3322 10.9087 14.4307 11.1723 14.4553L11.3903 14.4764V14.8877V15.3025L11.1794 15.3166C10.9087 15.3342 10.7927 15.4326 10.7927 15.633C10.7927 15.8475 10.9087 15.9424 11.1794 15.9424H11.3903V16.083V16.2236H11.1794C10.9087 16.2236 10.7927 16.3186 10.7927 16.533C10.7927 16.7334 10.9087 16.8318 11.1794 16.8494L11.3903 16.8635V17.2818V17.7002H8.85906H6.32781V16.5014C6.32781 15.3729 6.33133 15.3025 6.39109 15.3307C6.42273 15.3447 6.60203 15.408 6.78484 15.4713C7.8993 15.858 9.09461 15.5662 9.93836 14.7049C10.522 14.1072 10.8032 13.3971 10.7997 12.5146C10.7962 11.5865 10.5079 10.8764 9.86804 10.24C9.72742 10.0959 9.34422 9.81113 9.15086 9.70215C9.14734 9.70215 9.22117 9.54395 9.31609 9.35762C9.87508 8.24316 9.68523 6.95996 8.83797 6.10918C8.52859 5.79629 7.96961 5.47637 7.61805 5.41308C7.51258 5.39199 7.48797 5.37441 7.50555 5.32871C7.67781 4.88223 7.71297 4.29512 7.59344 3.83457C7.35789 2.90996 6.55984 2.21738 5.60008 2.1084C5.38562 2.08379 5.38562 2.08379 5.36101 1.95723C5.32937 1.78848 5.18172 1.44746 5.05164 1.24707C4.77742 0.835741 4.37312 0.543945 3.86687 0.399803C3.56453 0.311913 3.01961 0.311913 2.71726 0.40332ZM3.92664 1.10645C4.05672 1.17324 4.23953 1.2998 4.32742 1.3877C4.49617 1.55644 4.6825 1.87988 4.72469 2.07324C4.74578 2.17519 4.73875 2.18223 4.42586 2.3334C3.97586 2.54785 3.59266 2.92754 3.38523 3.35644C3.22703 3.67988 3.12859 4.05957 3.12859 4.3373V4.5166H2.25672C1.56414 4.5166 1.34969 4.50605 1.22664 4.46387C0.625468 4.25996 0.43914 3.49004 0.871562 3.02598C0.984062 2.90644 1.27937 2.75879 1.40945 2.75879C1.55359 2.75879 1.71883 2.68848 1.76101 2.61113C1.78211 2.56894 1.81375 2.4248 1.83133 2.29121C1.90516 1.7041 2.30242 1.2084 2.84383 1.0291C2.995 0.979881 3.11805 0.969336 3.36414 0.976366C3.64891 0.990429 3.72273 1.00801 3.92664 1.10645ZM5.91297 2.8291C6.59851 3.08574 7.03094 3.70098 7.03094 4.41465C7.03094 4.73809 6.96414 4.98066 6.78133 5.31465C6.7075 5.45527 6.64422 5.60996 6.64422 5.65918C6.64422 5.80332 6.82 5.95801 6.98523 5.95801C7.38953 5.96152 7.91336 6.16191 8.25789 6.4502C8.97508 7.04785 9.20008 8.09902 8.79226 8.96387C8.71844 9.11855 8.58133 9.34004 8.48289 9.45605C8.28601 9.69512 8.25086 9.78301 8.30359 9.93769C8.33523 10.0256 8.395 10.0678 8.66219 10.1943C8.83797 10.2752 9.07703 10.4158 9.19305 10.5072C10.1352 11.242 10.4376 12.5006 9.92781 13.5764C9.61492 14.2373 8.94695 14.7787 8.24383 14.9439C7.94148 15.0143 7.47039 15.0143 7.18914 14.9404C6.71453 14.8174 6.20476 14.4869 5.90242 14.1072L5.7618 13.9279L6.78133 12.9014C7.78328 11.8994 7.80437 11.8748 7.80437 11.7377C7.80437 11.5127 7.60047 11.365 7.39656 11.4424C7.34031 11.4635 6.94305 11.8326 6.51414 12.2615L5.73016 13.042V11.5479V10.0572L6.46844 9.31543C7.15398 8.62637 7.20672 8.56309 7.20672 8.44707C7.20672 8.21504 6.9993 8.06387 6.78836 8.14121C6.73562 8.1623 6.47898 8.39434 6.21531 8.65801L5.73016 9.13965V8.47871C5.73016 7.71582 5.70555 7.60684 5.50867 7.54355C5.37508 7.49785 5.2907 7.51894 5.1782 7.6209C5.10086 7.69121 5.09734 7.70879 5.09734 8.43301V9.1748L4.59812 8.67559C4.32039 8.40137 4.04969 8.15879 3.99695 8.14121C3.92312 8.11309 3.87039 8.1166 3.77898 8.15176C3.64187 8.21152 3.58562 8.29941 3.58562 8.45762C3.58562 8.55605 3.67 8.65801 4.34148 9.33301L5.09734 10.0924V11.583V13.0771L4.29578 12.2791C3.85633 11.8396 3.45203 11.4635 3.3993 11.4424C3.19187 11.365 2.98797 11.5197 2.98797 11.7518C2.98797 11.8678 3.05476 11.9451 4.01101 12.9049L5.03758 13.935L4.92508 14.0756C4.52078 14.5854 3.92664 14.9193 3.30086 14.9896C2.07742 15.1268 0.906718 14.2408 0.667656 12.9998C0.597343 12.6447 0.636015 12.0436 0.752031 11.7061C0.984062 11.0205 1.50086 10.4615 2.15828 10.1838C2.42898 10.0713 2.48875 10.0186 2.51687 9.87793C2.54148 9.74082 2.51336 9.68105 2.30242 9.43496C1.76453 8.80918 1.645 7.87051 2.00359 7.13926C2.32 6.50293 2.96336 6.04238 3.64187 5.97558C3.95125 5.94394 4.00047 5.92988 4.07781 5.84551C4.17976 5.73301 4.16922 5.55723 4.04266 5.35684C3.81062 4.99473 3.71219 4.49199 3.79305 4.09121C3.99695 3.11738 5.03758 2.49863 5.91297 2.8291ZM16.7692 14.8877V15.3096H14.3962H12.0231V14.8877V14.4658H14.3962H16.7692V14.8877ZM5.695 16.2658V17.7002H5.41375H5.1325V16.2518V14.8033L5.26258 14.6697L5.39266 14.5361L5.54383 14.6838L5.695 14.8314V16.2658ZM16.7692 16.083V16.2236H14.3962H12.0231V16.083V15.9424H14.3962H16.7692V16.083ZM16.7692 17.2783V17.7002H14.3962H12.0231V17.2783V16.8564H14.3962H16.7692V17.2783Z" fill="#6C60FE"/>
<path d="M14.4667 3.02598C14.0519 3.08574 13.5983 3.28965 13.296 3.55332C12.9831 3.82754 12.6913 4.33027 12.628 4.70293C12.6069 4.82949 12.5894 4.84707 12.4628 4.88574C11.8687 5.06152 11.4503 5.57832 11.4011 6.19004C11.3659 6.67168 11.4819 7.02324 11.7983 7.36074C11.9003 7.46973 12.062 7.60332 12.1605 7.65605C12.5015 7.84238 12.6456 7.85645 14.6776 7.85645C15.7323 7.85645 16.6323 7.84238 16.7519 7.82129C17.2194 7.74395 17.6589 7.41348 17.8663 6.97754C18.0069 6.68574 18.0421 6.22871 17.9472 5.90176C17.8065 5.41309 17.4233 5.04043 16.8679 4.85762C16.8327 4.84355 16.7905 4.77324 16.7694 4.68535C16.5761 3.89785 16.0171 3.31074 15.2542 3.09629C15.0503 3.04004 14.639 3.00137 14.4667 3.02598ZM15.0819 3.71504C15.6409 3.84863 16.0909 4.38652 16.1683 5.00527C16.2105 5.34277 16.2737 5.41309 16.6007 5.46582C16.8784 5.51504 17.0718 5.63809 17.2405 5.87715C17.3214 5.99316 17.346 6.07051 17.3565 6.26387C17.3847 6.64355 17.2335 6.91777 16.903 7.1041L16.7167 7.20605L14.7866 7.2166C12.6175 7.22715 12.5999 7.22715 12.3327 6.98457C11.8511 6.55215 11.953 5.82441 12.5331 5.5502C12.6315 5.50449 12.7511 5.46582 12.8003 5.46582C12.948 5.46582 13.1097 5.39551 13.1554 5.31113C13.1765 5.27246 13.2151 5.11426 13.2397 4.9666C13.3171 4.49199 13.5386 4.1334 13.9007 3.90137C14.2769 3.66582 14.6355 3.60606 15.0819 3.71504Z" fill="#6C60FE"/>
</g>
<defs>
<clipPath id="clip0_81_72350">
<rect width="18" height="18" fill="white" transform="translate(0 0.333008)"/>
</clipPath>
</defs>
</svg>
