<svg width="18" height="19" viewBox="0 0 18 19" fill="none" xmlns="http://www.w3.org/2000/svg">
<g clip-path="url(#clip0_81_72328)">
<path d="M2.53477 1.45801C2.47148 1.47558 2.37656 1.51777 2.32383 1.55293C2.27461 1.5916 1.74023 2.32285 1.13555 3.17715C0.203906 4.49902 0.0351562 4.75566 0.0140625 4.89277C-0.0492187 5.31816 0.256641 5.6416 0.73125 5.6416H0.882422L0.653906 5.96504C0.0492187 6.82637 0.0351562 6.84746 0.0140625 7.0373C-0.00351562 7.18145 0.00703125 7.24824 0.0703125 7.38184C0.179297 7.60332 0.351562 7.71582 0.646875 7.74395L0.878906 7.76855L0.50625 8.2959C0.302344 8.58418 0.101953 8.88652 0.0667969 8.96387C-0.137109 9.39629 0.175781 9.86035 0.667969 9.86035C0.769922 9.86035 0.84375 9.8709 0.836719 9.88496C0.636328 10.2822 0.527344 10.6373 0.527344 10.915C0.527344 11.1189 0.622266 11.4951 0.727734 11.7131C0.780469 11.8221 0.928125 12.0225 1.05117 12.1525C1.33242 12.4549 1.70859 12.6518 2.11992 12.715L2.39062 12.7607V14.1916V15.626H1.19531H0V15.9072V16.1885H2.79492H5.58984V15.9072V15.626H5.11523H4.64062V14.3322V13.042L4.80586 12.9752C4.89726 12.9365 5.05547 12.824 5.15391 12.7291L5.33672 12.5498L5.56172 12.6307C6.38437 12.9365 7.3582 12.585 7.82226 11.815C7.85391 11.7623 7.88555 11.7658 8.20547 11.8467C8.39531 11.8959 8.5957 11.9346 8.65195 11.9346H8.75391V13.7803V15.626H7.94531H7.13672V15.9072V16.1885H12.5684H18V15.9072V15.626H16.8223H15.6445V14.1916V12.7572L15.9047 12.715C16.5762 12.599 17.1492 12.1139 17.3707 11.474C17.5184 11.0451 17.4621 10.4404 17.2406 10.0396C17.1949 9.95527 17.1562 9.88144 17.1562 9.87441C17.1562 9.86738 17.2371 9.86035 17.3391 9.86035C17.5957 9.86035 17.8031 9.75137 17.9156 9.55801C17.9965 9.42441 18.007 9.36816 17.993 9.17832C17.9789 8.96035 17.9754 8.9498 17.5676 8.37324C17.3426 8.05332 17.1562 7.7791 17.1562 7.76855C17.1562 7.75801 17.2266 7.75098 17.3145 7.75098C17.5852 7.75098 17.8383 7.61035 17.9508 7.39238C17.9789 7.33965 18 7.20254 18 7.08652C18 6.85449 18.007 6.86504 17.3883 5.99316L17.1492 5.65918L17.3566 5.63809C17.7855 5.5959 18 5.37441 18 4.97715C18 4.73105 18.1055 4.90332 16.7062 2.91699C16.0453 1.98184 15.7324 1.56348 15.648 1.51426C15.409 1.37715 15.0398 1.44746 14.8781 1.66543C14.5371 2.13301 12.7934 4.63262 12.7441 4.72402C12.6527 4.90332 12.6844 5.20918 12.8109 5.37441C12.934 5.53965 13.0781 5.60996 13.3312 5.63105C13.4437 5.6416 13.5352 5.65918 13.5352 5.66621C13.5352 5.67324 13.4086 5.85957 13.2539 6.07754C13.0992 6.29902 12.9727 6.49238 12.9727 6.50996C12.9727 6.55215 13.3945 6.84394 13.4227 6.82285C13.4367 6.8123 13.6301 6.54512 13.8516 6.22519L14.2559 5.64512L14.8113 5.6416H15.3633V5.36035V5.0791H14.3262C13.4437 5.0791 13.2855 5.07207 13.268 5.02637C13.2469 4.97715 15.2754 2.05215 15.3457 2.03457C15.3949 2.02051 17.4199 4.91387 17.4199 4.99473C17.4199 5.05801 17.3777 5.06152 16.6219 5.07207L15.8203 5.0791V5.36035V5.6416H16.1297H16.4391L16.9277 6.33418C17.1949 6.71738 17.4164 7.06191 17.4164 7.10059C17.4199 7.16738 17.3953 7.1709 16.4988 7.18145L15.5742 7.18848V7.46973V7.75098H16.0066L16.4355 7.75449L16.9383 8.46816C17.2125 8.86191 17.4375 9.20996 17.4375 9.2416C17.4375 9.29082 17.3777 9.29785 17.0016 9.29785C16.6324 9.29785 16.541 9.2873 16.3969 9.22051C16.1543 9.11504 15.9012 9.05176 15.7078 9.05176H15.5391V8.91816C15.5355 8.37676 15.1875 7.76855 14.6918 7.43809C13.9957 6.97402 13.0008 7.06894 12.4137 7.65605C12.0586 8.01113 11.8863 8.3627 11.8547 8.79512L11.8371 9.05176H11.693C11.3027 9.05176 10.8176 9.27324 10.4941 9.59668C10.1285 9.9623 9.94922 10.4018 9.94922 10.9326V11.2174L9.76641 11.2771C9.66445 11.3053 9.52031 11.3439 9.45 11.358L9.31641 11.3791V10.5951V9.80762L9.79805 9.32598L10.2832 8.84082L10.0793 8.64043L9.87891 8.43652L9.44648 8.86895L9.01758 9.29785L8.64844 8.92871L8.2793 8.55957L8.07891 8.75996L7.875 8.96387L8.31445 9.40332L8.75391 9.84277V10.6127V11.3791L8.58867 11.3545C8.49375 11.3404 8.34258 11.3053 8.24414 11.2736L8.06836 11.2139L8.04727 10.8447C8.02969 10.5986 7.99805 10.4088 7.94883 10.2822C7.68867 9.59316 7.09453 9.1291 6.38437 9.05879L6.13477 9.03418L6.11367 8.78809C6.07148 8.35918 5.88867 7.97949 5.56875 7.6666C5.21016 7.31855 4.77422 7.14629 4.25391 7.14629C3.33984 7.1498 2.57695 7.8248 2.45039 8.74238L2.41172 9.05176H2.26758C2.09883 9.05176 1.84219 9.11855 1.59961 9.22402C1.44141 9.29082 1.36758 9.29785 1.00195 9.29082C0.653906 9.28027 0.580078 9.26973 0.583594 9.22754C0.587109 9.19941 0.815625 8.85488 1.08984 8.46113L1.59258 7.75098H2.01094H2.42578V7.46973V7.18848H1.53984C1.05117 7.18848 0.629297 7.17441 0.601172 7.15684C0.541406 7.11816 0.509766 7.1709 1.09687 6.33418L1.58555 5.6416H1.88437H2.17969V5.36035V5.0791H1.42734C0.703125 5.0791 0.5625 5.06855 0.5625 5.00879C0.5625 4.95957 2.63672 2.03808 2.67187 2.03808C2.69297 2.03808 3.17461 2.70254 3.74414 3.51113C4.54922 4.65723 4.7707 4.99473 4.74258 5.0334C4.71094 5.06855 4.48945 5.0791 3.6668 5.0791H2.6332L2.64375 5.3498L2.6543 5.62402L3.20625 5.63457L3.7582 5.64512L4.16953 6.23223C4.39805 6.55566 4.58789 6.82637 4.59492 6.8334C4.60898 6.85098 5.05898 6.54512 5.0625 6.51699C5.0625 6.50644 4.92891 6.30957 4.76719 6.07754L4.47187 5.65918L4.69687 5.63457C4.95703 5.60996 5.13281 5.51504 5.23477 5.3498C5.32617 5.19863 5.36133 4.98418 5.31562 4.82246C5.28398 4.71348 3.31523 1.8623 3.11484 1.64082C2.97422 1.48262 2.74922 1.4123 2.53477 1.45801ZM4.725 7.78965C5.39648 8.04277 5.67773 8.65098 5.49141 9.43848C5.45273 9.60371 5.42461 9.74434 5.43164 9.75137C5.43867 9.7584 5.56172 9.73379 5.70234 9.69863C5.84648 9.65996 6.08203 9.63184 6.24023 9.63184C6.48984 9.63184 6.54961 9.6459 6.75351 9.74434C7.03125 9.88144 7.2457 10.1029 7.37578 10.3807C7.45664 10.5529 7.4707 10.6268 7.4707 10.8975C7.4707 11.1682 7.45664 11.242 7.37578 11.4143C7.2457 11.692 7.03125 11.9135 6.75351 12.0506C6.54258 12.1525 6.49336 12.1631 6.20508 12.1631C5.92031 12.1631 5.86758 12.1525 5.67422 12.0506C5.5582 11.9908 5.37891 11.8748 5.27695 11.7939C5.175 11.7131 5.08008 11.6604 5.0625 11.6744C5.04844 11.692 5.00977 11.7834 4.97812 11.8783C4.91484 12.0717 4.77773 12.3213 4.69687 12.3916C4.64766 12.4303 4.64062 12.3635 4.64062 11.7201V11.0029L5.0168 10.6268L5.39648 10.2471L5.175 10.0291L4.95703 9.80762L4.64062 10.124L4.32422 10.4404L4.03242 10.1486L3.74414 9.86035L3.52266 10.0818L3.30469 10.2998L3.65625 10.6514L4.00781 11.0029V11.7377V12.476L3.89883 12.3705C3.78984 12.2686 3.58594 11.8959 3.58594 11.7939C3.58594 11.7658 3.57187 11.7201 3.5543 11.692C3.52969 11.6533 3.47344 11.6779 3.27656 11.8221C2.89687 12.1068 2.7457 12.1631 2.37305 12.1631C2.09531 12.1631 2.03203 12.149 1.85625 12.0646C1.32891 11.8045 1.01953 11.2244 1.125 10.69C1.18125 10.4088 1.29727 10.1838 1.49414 9.99043C1.83516 9.64941 2.22891 9.55449 2.80547 9.67754C2.98828 9.71621 3.12891 9.73027 3.12891 9.7127C3.12891 9.6916 3.1043 9.5791 3.07266 9.45957C3.0375 9.34355 3.01289 9.11504 3.01289 8.96035C3.00937 8.70723 3.02344 8.64746 3.12187 8.44355C3.30117 8.07793 3.6668 7.79668 4.05703 7.71582C4.24336 7.67715 4.50703 7.70527 4.725 7.78965ZM14.1012 7.76855C14.4246 7.88457 14.7129 8.15527 14.8641 8.48574C14.9801 8.73184 14.9871 9.09043 14.8922 9.4666C14.857 9.60723 14.8324 9.73027 14.843 9.7373C14.85 9.74434 15.0152 9.71973 15.2051 9.68105C15.627 9.59316 15.8801 9.60723 16.1508 9.7373C16.4988 9.90254 16.752 10.2154 16.8574 10.6162C17.0051 11.1717 16.6992 11.7939 16.1437 12.0646C15.968 12.149 15.9012 12.1631 15.627 12.1631C15.2578 12.1631 15.075 12.0928 14.7023 11.8115C14.523 11.6779 14.4703 11.6533 14.4457 11.692C14.4281 11.7201 14.4141 11.7658 14.4141 11.7939C14.4141 11.8818 14.2172 12.265 14.1363 12.3354L14.0625 12.4021V11.6955V10.9889L14.4141 10.6654C14.6074 10.4826 14.7656 10.3209 14.7656 10.2998C14.7656 10.2787 14.6742 10.1732 14.5617 10.0607L14.3578 9.86035L14.0484 10.1486L13.7391 10.4334L13.4437 10.1381L13.1484 9.84277L12.9305 10.0643L12.709 10.2822L13.0711 10.6443L13.4297 11.0029V11.7342C13.4297 12.4619 13.4297 12.4654 13.3559 12.4268C13.2609 12.374 13.0922 12.1068 13.0219 11.8854C12.9902 11.7869 12.9516 11.692 12.9375 11.6779C12.9234 11.6604 12.8109 11.7236 12.6879 11.8186C12.3328 12.0857 12.1324 12.1631 11.7773 12.1631C11.5102 12.1631 11.4504 12.149 11.2465 12.0506C10.9687 11.9135 10.7543 11.692 10.6242 11.4143C10.5434 11.242 10.5293 11.1682 10.5293 10.8975C10.5293 10.6268 10.5434 10.5529 10.6242 10.3807C10.7543 10.1029 10.9687 9.88144 11.2465 9.74434C11.4574 9.64238 11.5031 9.63184 11.7949 9.63535C11.9672 9.63887 12.2062 9.66348 12.3223 9.69512C12.4348 9.72676 12.5332 9.74785 12.5367 9.74434C12.5402 9.74082 12.5121 9.60371 12.4734 9.43848C12.3785 9.03769 12.3961 8.71074 12.5332 8.43301C12.818 7.84941 13.507 7.56113 14.1012 7.76855ZM10.2621 11.9346C10.5012 12.3002 10.9898 12.6201 11.4539 12.7115C11.7492 12.7678 12.1641 12.7326 12.4383 12.6307L12.6633 12.5498L12.8461 12.7291C12.9551 12.8346 13.1098 12.94 13.2293 12.9893L13.4297 13.0736V14.3498V15.626H11.373H9.31641V13.7838V11.9451L9.57305 11.9029C9.71016 11.8783 9.88242 11.8396 9.94922 11.8115C10.1355 11.7447 10.1391 11.7447 10.2621 11.9346ZM3.72656 12.9436C3.81445 12.9822 3.91289 13.0244 3.94805 13.035C4.0043 13.0561 4.00781 13.151 4.00781 14.3428V15.626H3.48047H2.95312V14.1494V12.6764L3.10078 12.6096L3.25195 12.5463L3.41016 12.708C3.49805 12.7959 3.63867 12.9014 3.72656 12.9436ZM15.082 14.1564V15.626H14.5723H14.0625V14.3322V13.042L14.2453 12.9576C14.3473 12.9119 14.502 12.7994 14.5898 12.708L14.748 12.5463L14.9133 12.6166L15.082 12.6869V14.1564Z" fill="#6C60FE"/>
<path d="M1.61719 10.6338V10.915H1.89844H2.17969V10.6338V10.3525H1.89844H1.61719V10.6338Z" fill="#6C60FE"/>
<path d="M11.0813 10.6233L11.0919 10.8975L11.3661 10.908L11.6368 10.9186V10.6338V10.3526H11.3556H11.0708L11.0813 10.6233Z" fill="#6C60FE"/>
<path d="M1.90209 3.90139C1.81068 4.03498 1.75795 4.14397 1.77904 4.15803C1.92318 4.28459 2.18685 4.44631 2.21498 4.42873C2.23256 4.41819 2.31342 4.31272 2.39076 4.20022L2.53139 3.99631L2.30639 3.83459C2.17982 3.7467 2.07435 3.67288 2.06732 3.67288C2.06029 3.67288 1.98646 3.77483 1.90209 3.90139Z" fill="#6C60FE"/>
<path d="M14.6883 3.73616C14.6039 3.8346 14.4071 4.13343 14.4211 4.14398C14.4246 4.14749 14.5301 4.22132 14.6532 4.30569C14.8641 4.45335 14.8746 4.45687 14.9239 4.39007C15.0258 4.25648 15.1946 3.98577 15.184 3.97874C15.061 3.88734 14.8078 3.71507 14.7797 3.69749C14.7586 3.68343 14.7164 3.70101 14.6883 3.73616Z" fill="#6C60FE"/>
<path d="M8.36726 5.65918C7.41452 5.85605 6.59538 6.48184 6.16296 7.34668C6.01882 7.62793 6.01882 7.62793 6.27546 7.72988C6.40202 7.7791 6.52156 7.82129 6.53913 7.82129C6.56023 7.82129 6.59187 7.7791 6.61296 7.72285C6.70085 7.49434 6.9821 7.10762 7.23874 6.86504C8.01218 6.1373 9.1864 5.95449 10.1356 6.41504C10.6454 6.66465 11.0954 7.1041 11.3274 7.58223C11.3907 7.7123 11.461 7.82129 11.4821 7.82129C11.5137 7.82129 11.9532 7.65254 11.9778 7.63145C11.9813 7.62793 11.9391 7.52598 11.8829 7.40645C11.4645 6.52402 10.6173 5.85605 9.66101 5.6627C9.33406 5.5959 8.68718 5.59238 8.36726 5.65918Z" fill="#6C60FE"/>
<path d="M7.84688 6.9811C7.72734 7.05845 7.62891 7.14282 7.62891 7.16743C7.62891 7.19204 7.70273 7.29399 7.79766 7.39595L7.96289 7.58228L8.16328 7.46274C8.27578 7.39946 8.36367 7.33618 8.36719 7.32563C8.3707 7.26235 8.14922 6.83696 8.11055 6.83696C8.08594 6.83696 7.96992 6.90024 7.84688 6.9811Z" fill="#6C60FE"/>
<path d="M7.09093 7.87754C7.0171 8.0252 6.96085 8.15176 6.96788 8.15527C6.98194 8.16934 7.45655 8.34863 7.47764 8.34863C7.48468 8.34863 7.53389 8.25723 7.58663 8.14473C7.63585 8.03574 7.68507 7.93379 7.6921 7.91973C7.70264 7.89512 7.36866 7.6666 7.26671 7.62441C7.23858 7.61387 7.1753 7.70879 7.09093 7.87754Z" fill="#6C60FE"/>
<path d="M6.11719 15.9072V16.1885H6.39844H6.67969V15.9072V15.626H6.39844H6.11719V15.9072Z" fill="#6C60FE"/>
<path d="M11.0813 16.9514L11.0919 17.2256L11.3661 17.2362L11.6368 17.2467V16.9619V16.6807H11.3556H11.0708L11.0813 16.9514Z" fill="#6C60FE"/>
<path d="M12.136 16.9514L12.1466 17.2256L12.4208 17.2362L12.6915 17.2467V16.9619V16.6807H12.4103H12.1255L12.136 16.9514Z" fill="#6C60FE"/>
</g>
<defs>
<clipPath id="clip0_81_72328">
<rect width="18" height="18" fill="white" transform="translate(0 0.333008)"/>
</clipPath>
</defs>
</svg>
