<svg width="18" height="19" viewBox="0 0 18 19" fill="none" xmlns="http://www.w3.org/2000/svg">
<path d="M0.0914062 2.27012L0 2.34043V3.58496V4.82949L0.0914062 4.89981C0.210938 4.99473 0.316406 4.99473 0.435937 4.89981L0.527344 4.82949V3.79238V2.75879H4.62305H8.71875V5.6416V8.52441H4.62305H0.527344V7.06895V5.60996L0.435937 5.53965C0.383203 5.49746 0.305859 5.46582 0.263672 5.46582C0.221484 5.46582 0.144141 5.49746 0.0914062 5.53965L0 5.60996V10.4404V15.2709L0.0914062 15.3412L0.186328 15.415H7.94883H15.7148V15.8686C15.7148 16.3186 15.7148 16.3256 15.8062 16.3959C15.859 16.4381 15.9363 16.4697 15.9785 16.4697C16.0594 16.4697 17.9262 15.3729 17.9719 15.299C17.9859 15.2744 18 12.3494 18 8.79863V2.34043L17.9086 2.27012L17.8137 2.19629H9H0.186328L0.0914062 2.27012ZM17.4727 5.53965C17.4727 7.42051 17.4621 8.30996 17.4375 8.2959C16.7871 7.89512 16.0383 7.46973 15.9785 7.46973C15.9363 7.46973 15.859 7.50137 15.8062 7.54356C15.7148 7.61387 15.7148 7.6209 15.7148 8.0709V8.52441H12.498H9.28125V5.6416V2.75879H13.377H17.4727V5.53965ZM16.9102 8.64043L17.4551 8.96738V11.9697V14.9721L16.9102 15.299C16.6113 15.4818 16.3371 15.6436 16.3055 15.6646C16.2457 15.6963 16.2422 15.51 16.2422 11.9697C16.2422 8.42949 16.2457 8.24316 16.3055 8.27481C16.3371 8.2959 16.6113 8.45762 16.9102 8.64043ZM8.71875 11.9697V14.8525H4.62305H0.527344V11.9697V9.08691H4.62305H8.71875V11.9697ZM15.7148 11.9697V14.8525H12.498H9.28125V11.9697V9.08691H12.498H15.7148V11.9697Z" fill="#6C60FE"/>
<path d="M15.4336 3.3916C15.3703 3.45488 15.3633 3.50762 15.3633 3.91543C15.3633 4.36543 15.3633 4.37246 15.4547 4.44277C15.5074 4.48496 15.5848 4.5166 15.627 4.5166C15.6691 4.5166 15.7465 4.48496 15.7992 4.44277C15.8906 4.37246 15.8906 4.36543 15.8906 3.91543C15.8906 3.50762 15.8836 3.45488 15.8203 3.3916C15.7781 3.34941 15.7043 3.32129 15.627 3.32129C15.5496 3.32129 15.4758 3.34941 15.4336 3.3916Z" fill="#6C60FE"/>
<path d="M16.4883 3.3916C16.425 3.45488 16.418 3.50762 16.418 3.91543C16.418 4.36543 16.418 4.37246 16.5094 4.44277C16.5621 4.48496 16.6395 4.5166 16.6816 4.5166C16.7238 4.5166 16.8012 4.48496 16.8539 4.44277C16.9453 4.37246 16.9453 4.36543 16.9453 3.91543C16.9453 3.50762 16.9383 3.45488 16.875 3.3916C16.8328 3.34941 16.759 3.32129 16.6816 3.32129C16.6043 3.32129 16.5305 3.34941 16.4883 3.3916Z" fill="#6C60FE"/>
<path d="M10.5994 4.7416C10.3885 4.84004 10.2936 4.93848 10.1987 5.14941C10.058 5.45879 10.1213 5.78223 10.378 6.03535C10.4694 6.13027 10.5678 6.2041 10.5994 6.2041C10.6416 6.2041 10.6522 6.25684 10.6522 6.50293C10.6522 6.77715 10.6592 6.8123 10.7401 6.88965C10.7928 6.9459 10.8666 6.97754 10.9334 6.97754C11.0002 6.97754 11.0741 6.9459 11.1268 6.88965C11.2076 6.8123 11.2147 6.77715 11.2147 6.50293C11.2147 6.25684 11.2252 6.2041 11.2674 6.2041C11.2991 6.2041 11.3975 6.13027 11.4889 6.03535C11.7526 5.7752 11.8123 5.45527 11.6576 5.13184C11.5592 4.9209 11.4608 4.82598 11.2498 4.73105C11.0389 4.63613 10.8174 4.63965 10.5994 4.7416ZM11.0916 5.30762C11.1409 5.35332 11.1795 5.42363 11.1795 5.46582C11.1795 5.50449 11.1409 5.57832 11.0916 5.62402C11.0459 5.67324 10.9756 5.71191 10.9334 5.71191C10.8948 5.71191 10.8209 5.67324 10.7752 5.62402C10.726 5.57832 10.6873 5.50449 10.6873 5.46582C10.6873 5.42363 10.726 5.35332 10.7752 5.30762C10.8842 5.19512 10.9826 5.19512 11.0916 5.30762Z" fill="#6C60FE"/>
<path d="M5.62852 9.74082C5.56172 9.8252 5.55469 9.88145 5.55469 10.2541C5.55469 10.6514 5.5582 10.676 5.64258 10.7568C5.69531 10.8131 5.76914 10.8447 5.83594 10.8447C5.90273 10.8447 5.97656 10.8131 6.0293 10.7568C6.11367 10.676 6.11719 10.6514 6.11719 10.2541C6.11719 9.88145 6.11016 9.8252 6.04336 9.74082C5.98711 9.67051 5.94141 9.64941 5.83594 9.64941C5.73047 9.64941 5.68477 9.67051 5.62852 9.74082Z" fill="#6C60FE"/>
<path d="M6.6832 9.74082C6.61641 9.8252 6.60938 9.88145 6.60938 10.2541C6.60938 10.6514 6.61289 10.676 6.69727 10.7568C6.75 10.8131 6.82383 10.8447 6.89062 10.8447C6.95742 10.8447 7.03125 10.8131 7.08398 10.7568C7.16836 10.676 7.17188 10.6514 7.17188 10.2541C7.17188 9.88145 7.16484 9.8252 7.09805 9.74082C7.0418 9.67051 6.99609 9.64941 6.89062 9.64941C6.78516 9.64941 6.73945 9.67051 6.6832 9.74082Z" fill="#6C60FE"/>
<path d="M7.73789 9.74082C7.67109 9.8252 7.66406 9.88145 7.66406 10.2541C7.66406 10.6514 7.66758 10.676 7.75195 10.7568C7.80469 10.8131 7.87852 10.8447 7.94531 10.8447C8.01211 10.8447 8.08594 10.8131 8.13867 10.7568C8.22305 10.676 8.22656 10.6514 8.22656 10.2541C8.22656 9.88145 8.21953 9.8252 8.15273 9.74082C8.09648 9.67051 8.05078 9.64941 7.94531 9.64941C7.83984 9.64941 7.79414 9.67051 7.73789 9.74082Z" fill="#6C60FE"/>
<path d="M1.93025 11.0311C1.7615 11.0943 1.62439 11.2033 1.5154 11.365C1.44158 11.4705 1.424 11.5443 1.41345 11.7588C1.4029 11.9979 1.41345 12.04 1.50837 12.2053C1.5822 12.3283 1.67009 12.4197 1.77556 12.4795L1.93376 12.5744V12.8662C1.93376 13.1404 1.94079 13.165 2.02517 13.2318C2.0779 13.274 2.15525 13.3057 2.19744 13.3057C2.23962 13.3057 2.31697 13.274 2.3697 13.2318C2.45408 13.165 2.46111 13.1404 2.46111 12.8662V12.5744L2.61931 12.4795C3.0447 12.2299 3.12204 11.583 2.76697 11.2279C2.71072 11.1717 2.61579 11.0979 2.55603 11.0697C2.40837 10.9924 2.08494 10.9748 1.93025 11.0311ZM2.34861 11.6182C2.49978 11.7588 2.39783 12.04 2.19744 12.04C2.08845 12.04 1.96892 11.9135 1.96892 11.7939C1.96892 11.6744 2.08845 11.5479 2.19744 11.5479C2.23962 11.5479 2.30642 11.5795 2.34861 11.6182Z" fill="#6C60FE"/>
<path d="M9.86133 10.0186L9.77344 10.1029V12.1455V14.1881L9.86133 14.2725L9.9457 14.3604H12.3398H14.734L14.8184 14.2725L14.9062 14.1881V12.8486V11.5092L14.8184 11.4248L14.734 11.3369H13.2363H11.7422V10.7217C11.7422 10.1135 11.7422 10.1029 11.6543 10.0186L11.5699 9.93066H10.7578H9.9457L9.86133 10.0186ZM11.1797 12.1455V13.7979H10.7578H10.3359V12.1455V10.4932H10.7578H11.1797V12.1455ZM14.3438 12.8486V13.7979H13.043H11.7422V12.8486V11.8994H13.043H14.3438V12.8486Z" fill="#6C60FE"/>
<path d="M7.73789 3.4127C7.67109 3.49707 7.66406 3.55332 7.66406 3.92598C7.66406 4.32324 7.66758 4.34785 7.75195 4.42871C7.80469 4.48496 7.87852 4.5166 7.94531 4.5166C8.01211 4.5166 8.08594 4.48496 8.13867 4.42871C8.22305 4.34785 8.22656 4.32324 8.22656 3.92598C8.22656 3.55332 8.21953 3.49707 8.15273 3.4127C8.09648 3.34238 8.05078 3.32129 7.94531 3.32129C7.83984 3.32129 7.79414 3.34238 7.73789 3.4127Z" fill="#6C60FE"/>
<path d="M1.93025 4.70293C1.7615 4.76621 1.62439 4.8752 1.5154 5.03691C1.44158 5.14238 1.424 5.21621 1.41345 5.43066C1.4029 5.66973 1.41345 5.71191 1.50837 5.87715C1.5822 6.0002 1.67009 6.0916 1.77556 6.15137L1.93376 6.24629V6.53809C1.93376 6.8123 1.94079 6.83691 2.02517 6.90371C2.0779 6.9459 2.15525 6.97754 2.19744 6.97754C2.23962 6.97754 2.31697 6.9459 2.3697 6.90371C2.45408 6.83691 2.46111 6.8123 2.46111 6.53809V6.24629L2.61931 6.15137C3.0447 5.90176 3.12204 5.25488 2.76697 4.8998C2.71072 4.84355 2.61579 4.76973 2.55603 4.7416C2.40837 4.66426 2.08494 4.64668 1.93025 4.70293ZM2.34861 5.29004C2.49978 5.43066 2.39783 5.71191 2.19744 5.71191C2.08845 5.71191 1.96892 5.58535 1.96892 5.46582C1.96892 5.34629 2.08845 5.21973 2.19744 5.21973C2.23962 5.21973 2.30642 5.25137 2.34861 5.29004Z" fill="#6C60FE"/>
</svg>
