<svg width="18" height="19" viewBox="0 0 18 19" fill="none" xmlns="http://www.w3.org/2000/svg">
<path d="M2.85167 0.458817C2.69 0.647463 2.58104 0.87148 2.51427 1.15838C2.40883 1.62607 2.50021 2.05838 2.80246 2.50248C3.10823 2.95445 3.12581 3.14703 2.90439 3.51253C2.66539 3.90161 2.77786 4.26318 3.13283 4.26318C3.27342 4.26318 3.31559 4.24353 3.414 4.13349C3.57567 3.94877 3.68463 3.72476 3.7514 3.43786C3.85684 2.97017 3.76546 2.53786 3.46321 2.09375C3.15744 1.64179 3.13986 1.44921 3.36128 1.08371C3.60028 0.694625 3.48781 0.333053 3.13283 0.333053C2.99225 0.333053 2.95008 0.352703 2.85167 0.458817Z" fill="#6C60FE"/>
<path d="M9.2135 1.57493C8.65819 1.73606 8.16615 2.19196 7.92012 2.76969C7.75494 3.15877 7.70222 3.4103 7.70222 3.80331C7.70222 4.27886 7.8428 4.7662 8.07477 5.11598C8.12046 5.18279 8.15912 5.2496 8.15912 5.26139C8.15912 5.27318 7.9623 5.28497 7.72682 5.28497C7.41051 5.28497 7.2172 5.30462 7.02039 5.36358C6.71462 5.45004 6.26123 5.70157 6.06441 5.89021L5.93086 6.01991L5.51614 5.44218C5.02761 4.76227 4.90811 4.67187 4.67263 4.8448C4.53556 4.94305 3.33357 6.65266 3.2211 6.90812C2.97508 7.47406 2.97859 8.14218 3.23165 8.71205L3.3652 9.0186H3.0278C2.69391 9.0186 2.6904 9.0186 2.41274 9.19545C1.38999 9.84785 0.585151 10.9679 0.219633 12.2492C-0.0861375 13.3221 -0.0720791 14.6505 0.258293 15.692C0.560549 16.6588 1.16155 17.6138 1.80472 18.1562L2.01559 18.333L8.54221 18.3251L15.0653 18.3134L15.343 18.2269C16.2392 17.94 17.03 17.2758 17.4869 16.4269C17.6661 16.1007 17.645 15.8374 17.4342 15.7155C17.2127 15.5898 17.0194 15.6802 16.8578 15.9867C16.7101 16.2618 16.306 16.7334 16.0213 16.9614C15.8877 17.0636 15.6663 17.2011 15.5222 17.2679C15.0161 17.5038 14.9318 17.5155 13.2201 17.5352L11.6561 17.5509L11.7792 17.4448C11.8459 17.3858 12.0463 17.1775 12.2185 16.9771C12.714 16.4072 13.0339 15.7666 13.2272 14.9492C13.2939 14.6662 13.308 14.5169 13.308 13.892C13.308 12.8112 13.308 12.8112 12.3415 12.8112C11.5648 12.8112 11.2906 12.8819 10.4577 13.2867C10.4366 13.2985 10.4014 13.2317 10.3768 13.1374C10.2292 12.595 9.86018 11.9348 9.42086 11.4474L9.10806 11.0976L11.9479 11.1134C14.3764 11.1251 14.8158 11.1369 15.0126 11.188C15.7717 11.3963 16.4009 11.8876 16.8261 12.6186C17.0546 13.0077 17.0862 13.0352 17.2619 13.0431C17.4412 13.047 17.5853 12.9291 17.6275 12.7365C17.6556 12.6186 17.6485 12.5596 17.5818 12.4064C17.3849 11.9505 16.9491 11.3924 16.5239 11.0544C16.2673 10.85 15.8104 10.5867 15.5855 10.5081C15.5011 10.4845 15.4343 10.4531 15.4343 10.4413C15.4343 10.4334 15.5222 10.3195 15.6276 10.1937C15.8737 9.89502 16.0845 9.49414 16.2005 9.10899C16.2849 8.82995 16.2919 8.74742 16.2919 8.19327C16.2919 7.63519 16.2849 7.55659 16.197 7.26969C16.067 6.82558 15.8807 6.49545 15.5749 6.14567C15.2727 5.80375 14.9247 5.55615 14.5311 5.41074C14.2956 5.32427 14.1796 5.30855 13.6876 5.29283L13.1147 5.27711L13.2237 5.10419C13.4662 4.70724 13.5716 4.31423 13.5716 3.79152C13.5716 3.11554 13.3994 2.64785 12.9776 2.17624C12.693 1.86183 12.4153 1.67711 12.0603 1.571C11.7827 1.48847 9.49467 1.4924 9.2135 1.57493ZM11.6878 2.33737C12.1306 2.41205 12.4996 2.70681 12.7176 3.17056C12.8089 3.35921 12.816 3.41423 12.816 3.79152C12.816 4.18454 12.8124 4.21598 12.6965 4.45179C12.4821 4.89196 12.1236 5.17493 11.6843 5.24567C11.3855 5.29283 9.90236 5.29676 9.61065 5.2496C9.14672 5.17493 8.76363 4.86052 8.55978 4.40069C8.4684 4.18847 8.45786 4.12558 8.45786 3.79152C8.45786 3.45746 8.4684 3.39458 8.55978 3.18235C8.7566 2.73825 9.15375 2.40812 9.57902 2.33737C9.84964 2.29414 11.4101 2.29414 11.6878 2.33737ZM5.32986 6.52296C5.87814 7.28934 5.92735 7.39938 5.92735 7.81991C5.92735 8.07144 5.90977 8.16969 5.84299 8.31117C5.74107 8.53519 5.54425 8.76707 5.37555 8.86532L5.242 8.93999V8.33082C5.242 7.61554 5.21037 7.47799 5.01706 7.38759C4.86242 7.31292 4.70778 7.34829 4.5918 7.47799C4.50393 7.57624 4.50393 7.58017 4.50393 8.25615C4.50393 8.63344 4.48987 8.93999 4.47581 8.93999C4.41255 8.93999 4.12787 8.70812 4.03298 8.58235C3.76587 8.23257 3.70612 7.72951 3.87833 7.32864C3.95917 7.13213 4.84485 5.84698 4.87296 5.87842C4.87648 5.88628 5.08384 6.17711 5.32986 6.52296ZM14.2042 6.16532C14.8615 6.40506 15.3359 6.93956 15.5187 7.63912C15.5925 7.91816 15.5925 8.46838 15.5187 8.74742C15.3359 9.44698 14.8579 9.98148 14.2042 10.2212C14.025 10.288 13.7965 10.292 11.2766 10.3077L8.53869 10.3195L8.21886 9.97362C7.89552 9.62777 7.51946 9.31729 7.1926 9.12078C7.03796 9.03039 6.9747 9.0186 6.69001 9.0186C6.50725 9.0186 6.36667 9.00681 6.3737 8.98716C6.50374 8.70812 6.61269 8.4055 6.64432 8.24043C6.72867 7.78847 6.67244 7.30113 6.48968 6.8924C6.38073 6.65659 6.38776 6.64087 6.69353 6.42078C6.93252 6.24786 7.18206 6.14567 7.47377 6.10637C7.58975 6.09065 9.10806 6.08279 10.8478 6.08672C13.7965 6.09458 14.025 6.09851 14.2042 6.16532ZM7.13637 10.064C7.4562 10.3038 7.95176 10.8147 8.1064 11.0623L8.20481 11.2195L7.99393 11.4671C7.6003 11.9269 7.27695 12.5046 7.08716 13.0863C7.05202 13.1924 7.01687 13.2867 7.01336 13.2946C7.00984 13.3024 6.94658 13.2749 6.86926 13.2317C6.33855 12.9291 5.65672 12.7758 4.94677 12.7994C4.40552 12.8151 4.32117 12.8465 4.20168 13.047C4.12084 13.1806 4.09272 14.0727 4.14896 14.5208C4.30009 15.6723 4.81322 16.6627 5.64618 17.4212L5.78676 17.547H4.03298H2.2827L1.95936 17.1815C1.31267 16.4583 0.901465 15.5662 0.778454 14.6033C0.718706 14.1474 0.753852 13.216 0.841717 12.8308C1.13343 11.6007 1.79066 10.5906 2.69743 9.98148L2.90127 9.84392H4.87296H6.84114L7.13637 10.064ZM9.27676 12.5439C9.46655 12.8583 9.61416 13.1963 9.70203 13.5186L9.77583 13.7937L9.49818 14.112C9.24513 14.3989 8.89718 14.9334 8.78823 15.2007C8.76363 15.2596 8.73551 15.3068 8.72145 15.3068C8.71091 15.3068 8.67225 15.24 8.6371 15.1575C8.51409 14.8706 8.2505 14.4697 7.95878 14.1278L7.66356 13.778L7.75494 13.4793C7.92012 12.9251 8.15209 12.5007 8.51058 12.0802L8.72497 11.8286L8.93233 12.0723C9.0448 12.2059 9.19944 12.4182 9.27676 12.5439ZM5.99061 13.7505C6.69353 13.9824 7.28398 14.4382 7.70222 15.0671C7.90958 15.3815 8.16615 15.971 8.24347 16.3129C8.31376 16.6155 8.37351 17.2444 8.34539 17.3937L8.32782 17.5077H8.01502C6.82005 17.5077 5.67078 16.6666 5.15062 15.409C4.96786 14.961 4.89054 14.5955 4.86594 14.0727L4.84485 13.6051L5.26309 13.6286C5.56886 13.6444 5.76567 13.6758 5.99061 13.7505ZM12.577 14.0767C12.4996 15.971 11.0868 17.5077 9.42086 17.5077H9.10806V17.1579C9.10806 15.2596 10.5596 13.6365 12.2677 13.6208L12.5981 13.6169L12.577 14.0767Z" fill="#6C60FE"/>
<path d="M1.01706 1.98368C0.887017 2.09372 0.721831 2.4042 0.658568 2.64787C0.539072 3.10769 0.626937 3.65005 0.883502 4.00769C1.12601 4.34569 1.14007 4.38499 1.15764 4.59328C1.1717 4.81337 1.12601 4.96665 0.971367 5.20245C0.869444 5.35573 0.862415 5.47756 0.936221 5.6387C1.003 5.78411 1.08735 5.83521 1.26659 5.83521C1.45638 5.83521 1.62157 5.67014 1.76918 5.33215C1.87111 5.10813 1.88516 5.02167 1.89571 4.71512C1.90977 4.31424 1.83947 4.03521 1.65671 3.76796C1.37906 3.36315 1.35797 3.31599 1.35797 3.08018C1.35797 2.88761 1.37555 2.82865 1.49153 2.64394C1.66023 2.36883 1.66726 2.18804 1.51965 2.01905C1.3896 1.87756 1.15413 1.85791 1.01706 1.98368Z" fill="#6C60FE"/>
<path d="M17.3883 14.0727C17.3144 14.1553 17.2969 14.2142 17.2969 14.3636C17.2969 14.5129 17.3144 14.5719 17.3883 14.6544C17.4621 14.7369 17.5148 14.7566 17.6483 14.7566C17.8803 14.7566 17.9998 14.623 17.9998 14.3636C17.9998 14.2142 17.9822 14.1553 17.9084 14.0727C17.8346 13.9902 17.7819 13.9706 17.6483 13.9706C17.5148 13.9706 17.4621 13.9902 17.3883 14.0727Z" fill="#6C60FE"/>
</svg>
