<svg width="18" height="19" viewBox="0 0 18 19" fill="none" xmlns="http://www.w3.org/2000/svg">
<g clip-path="url(#clip0_81_72389)">
<path d="M3.42422 0.399805C3.24492 0.480665 3.05859 0.663477 2.96719 0.846289C2.90039 0.979883 2.90039 1.14512 2.90039 9.33301C2.90039 17.5209 2.90039 17.6861 2.96719 17.8197C3.05859 18.0025 3.24492 18.1854 3.42422 18.2662C3.56133 18.3295 3.77578 18.333 9 18.333C14.2137 18.333 14.4387 18.3295 14.5758 18.2662C14.7445 18.1889 14.9449 17.992 15.0363 17.8127C15.0961 17.6861 15.0996 17.3557 15.0996 9.33301C15.0996 1.31035 15.0961 0.979883 15.0363 0.853321C14.9449 0.674025 14.7445 0.477148 14.5758 0.399805C14.4387 0.336523 14.2137 0.333008 9 0.333008C3.77578 0.333008 3.56133 0.336523 3.42422 0.399805ZM4.92188 0.916601C4.92188 1.09238 4.91484 1.10996 4.86211 1.08535C4.725 1.02559 4.28906 1.02559 4.13086 1.08535C3.95859 1.15215 3.7125 1.39824 3.63516 1.58105C3.57187 1.73574 3.57187 2.09434 3.63516 2.24902L3.68789 2.37207H3.47695H3.2625L3.27656 1.74629C3.28711 1.16973 3.29414 1.11348 3.36797 0.993946C3.51211 0.761915 3.65625 0.719727 4.33477 0.719727H4.92188V0.916601ZM12.6562 1.08887V1.45801H9H5.34375V1.08887V0.719727H9H12.6562V1.08887ZM14.4 0.793554C14.4914 0.835743 14.5863 0.920118 14.632 0.993946C14.7059 1.11348 14.7129 1.16973 14.7234 1.74629L14.7375 2.37207H14.523H14.3121L14.3648 2.24902C14.4246 2.10137 14.4281 1.8166 14.3719 1.62676C14.3191 1.44394 14.0977 1.20137 13.9043 1.10645C13.7707 1.03965 13.7004 1.03262 13.4719 1.04317C13.3242 1.05371 13.173 1.07129 13.1414 1.08535C13.0852 1.10996 13.0781 1.09238 13.0781 0.916601V0.719727H13.6652C14.1855 0.719727 14.2664 0.726759 14.4 0.793554ZM4.70039 1.49668C4.86562 1.57754 4.99219 1.76738 4.99219 1.93613C4.99219 2.20332 4.66875 2.47402 4.40859 2.42832C4.15547 2.3791 3.9375 2.08027 3.99023 1.84473C4.03594 1.64082 4.28203 1.42988 4.47891 1.42285C4.51758 1.42285 4.61602 1.45449 4.70039 1.49668ZM13.6652 1.46152C13.8059 1.51426 13.95 1.66191 13.9922 1.79551C14.0766 2.04863 13.8691 2.37559 13.5914 2.42832C13.3313 2.47402 13.0078 2.20332 13.0078 1.93613C13.0078 1.76387 13.1414 1.56348 13.2996 1.48965C13.4719 1.41231 13.5281 1.40879 13.6652 1.46152ZM12.607 1.9959C12.6176 2.43184 13.0113 2.82559 13.4402 2.8291H13.6055V5.62051V8.4084L13.4156 8.42949C13.0852 8.46465 12.7969 8.67207 12.6633 8.97793C12.593 9.13965 12.593 9.52637 12.6633 9.68809C12.7969 9.99395 13.0852 10.2014 13.4156 10.2365L13.6055 10.2576V13.0455V15.8369H13.4402C13.0113 15.8404 12.6176 16.2342 12.607 16.6701L12.6035 16.8213H9H5.39648L5.38945 16.6631C5.36836 16.2201 4.98867 15.8404 4.56328 15.8369H4.39453V13.042V10.2471H4.51406C4.91133 10.2471 5.29453 9.92715 5.37891 9.52285C5.48789 8.99551 5.12227 8.48574 4.59141 8.42949L4.39453 8.4084V5.62051V2.8291H4.56328C4.98516 2.82559 5.36836 2.44238 5.38945 2.00293L5.39648 1.84473H9H12.6035L12.607 1.9959ZM4.00781 5.60645V8.41895H3.63867H3.26953V5.60645V2.79395H3.63867H4.00781V5.60645ZM14.7305 5.60645V8.41895H14.3613H13.9922V5.60645V2.79395H14.3613H14.7305V5.60645ZM3.69141 8.85488C3.69141 8.86191 3.6668 8.9252 3.63867 8.99199C3.61055 9.0623 3.58594 9.21699 3.58594 9.33301C3.58594 9.44902 3.61055 9.60371 3.63867 9.67402C3.6668 9.74082 3.69141 9.8041 3.69141 9.81113C3.69141 9.81816 3.59648 9.8252 3.48047 9.8252H3.26953V9.33301V8.84082H3.48047C3.59648 8.84082 3.69141 8.84785 3.69141 8.85488ZM4.74961 8.92168C5.06602 9.13262 5.05898 9.55801 4.73555 9.75488C4.47539 9.9166 4.15195 9.79707 4.02891 9.49824C3.95859 9.33301 3.95859 9.33301 4.02891 9.16777C4.15547 8.8584 4.48594 8.7459 4.74961 8.92168ZM13.7848 8.92168C13.8586 8.9709 13.9289 9.06582 13.9711 9.16777C14.0414 9.33301 14.0414 9.33301 13.9711 9.49824C13.7672 9.99043 13.0852 9.90605 13.0219 9.37871C12.9727 8.98496 13.4508 8.69668 13.7848 8.92168ZM14.7305 9.33301V9.8252H14.5195C14.4035 9.8252 14.3086 9.81816 14.3086 9.81113C14.3086 9.8041 14.3332 9.74082 14.3613 9.67402C14.3895 9.60371 14.4141 9.44902 14.4141 9.33301C14.4141 9.21699 14.3895 9.0623 14.3613 8.99199C14.3332 8.9252 14.3086 8.86191 14.3086 8.85488C14.3086 8.84785 14.4035 8.84082 14.5195 8.84082H14.7305V9.33301ZM4.00781 13.0596V15.8721H3.63867H3.26953V13.0596V10.2471H3.63867H4.00781V13.0596ZM14.7305 13.0596V15.8721H14.3613H13.9922V13.0596V10.2471H14.3613H14.7305V13.0596ZM4.69336 16.2939C4.85156 16.3713 4.99219 16.5752 4.99219 16.7299C4.99219 17.0076 4.67578 17.2783 4.40859 17.2291C4.15547 17.1799 3.9375 16.8811 3.99023 16.6455C4.03594 16.4416 4.28203 16.2307 4.47891 16.2236C4.51758 16.2236 4.6125 16.2553 4.69336 16.2939ZM13.6863 16.2729C14.0449 16.4205 14.1223 16.8459 13.834 17.099C13.6687 17.2432 13.5141 17.2678 13.3137 17.1799C13.1414 17.1025 13.0078 16.9092 13.0078 16.7299C13.0078 16.5752 13.1449 16.3713 13.3031 16.2939C13.4719 16.2096 13.5352 16.2061 13.6863 16.2729ZM3.63516 16.417C3.57187 16.5717 3.57187 16.9303 3.63516 17.085C3.7125 17.2678 3.95859 17.5139 4.13086 17.5807C4.28906 17.6404 4.725 17.6404 4.86211 17.5807C4.91484 17.5561 4.92188 17.5736 4.92188 17.7494V17.9463H4.33477C3.65977 17.9463 3.51211 17.9041 3.36797 17.6721C3.29414 17.5525 3.28711 17.4963 3.27656 16.9162L3.2625 16.2939H3.47695H3.68789L3.63516 16.417ZM14.7234 16.9162C14.7129 17.4963 14.7059 17.5525 14.632 17.6721C14.4879 17.9041 14.3402 17.9463 13.6652 17.9463H13.0781V17.7494C13.0781 17.5736 13.0852 17.5561 13.1414 17.5807C13.173 17.5947 13.3242 17.6123 13.4719 17.6229C13.7004 17.6334 13.7707 17.6264 13.9043 17.5596C14.0977 17.4646 14.3191 17.2221 14.3719 17.0393C14.4281 16.8494 14.4246 16.5646 14.3648 16.417L14.3121 16.2939H14.523H14.7375L14.7234 16.9162ZM12.6562 17.5771V17.9463H9H5.34375V17.5771V17.208H9H12.6562V17.5771Z" fill="#6C60FE"/>
<path d="M6.8732 3.8451C6.68687 3.92947 6.48297 4.1615 6.43023 4.34783C6.32125 4.75564 6.56734 5.22674 6.95055 5.34275C7.02086 5.36033 7.02789 5.38143 7.0068 5.51853C6.97516 5.76463 7.0525 5.9826 7.24234 6.17244C7.33375 6.26385 7.45328 6.34822 7.50953 6.35877C7.61148 6.37986 7.61148 6.38338 7.61148 6.64002C7.61148 6.97752 7.73102 7.18494 8.01578 7.33963L8.20914 7.4451V7.67713C8.21266 8.03924 8.36031 8.26775 8.68375 8.41541C8.96148 8.54197 9.33062 8.47869 9.55562 8.26775C9.71031 8.12361 9.78766 7.92674 9.79117 7.67713V7.4451L9.97398 7.34666C10.2798 7.18846 10.4521 6.83689 10.3923 6.50642C10.3712 6.39392 10.3783 6.38338 10.4732 6.36228C10.7615 6.299 11.0287 5.88416 10.9935 5.54666C10.9759 5.38143 10.983 5.36033 11.0498 5.33924C11.1974 5.29705 11.3943 5.13533 11.4822 4.98767C11.7986 4.44978 11.4154 3.7783 10.7931 3.7783C10.5962 3.7783 10.3959 3.84861 10.2763 3.96111L10.1955 4.03494L10.1146 3.96111C9.85797 3.71853 9.33766 3.71853 9.08102 3.96111L9.00016 4.03494L8.9193 3.96111C8.79977 3.84861 8.59937 3.7783 8.4025 3.7783C8.20562 3.7783 8.00523 3.84861 7.8857 3.96111L7.80484 4.03494L7.72398 3.96111C7.53062 3.7783 7.13687 3.72205 6.8732 3.8451ZM7.47437 4.31971C7.55875 4.40408 7.59391 4.47088 7.59391 4.55174C7.59391 4.70642 7.49547 4.8576 7.35484 4.92439C7.10523 5.04393 6.82047 4.84705 6.82047 4.55525C6.82047 4.37596 7.01031 4.20017 7.20719 4.20017C7.32672 4.20017 7.37594 4.22127 7.47437 4.31971ZM8.66969 4.31971C8.86656 4.51658 8.81383 4.79783 8.55719 4.92088C8.30055 5.04393 8.01578 4.85057 8.01578 4.55525C8.01578 4.37596 8.20562 4.20017 8.4025 4.20017C8.52203 4.20017 8.57125 4.22127 8.66969 4.31971ZM9.865 4.31971C10.0056 4.46033 10.0232 4.6115 9.91422 4.78728C9.71734 5.11424 9.21109 4.94197 9.21109 4.54822C9.21109 4.47088 9.24625 4.40408 9.33062 4.31971C9.42906 4.22127 9.47828 4.20017 9.59781 4.20017C9.71734 4.20017 9.76656 4.22127 9.865 4.31971ZM11.0603 4.31971C11.2009 4.46033 11.2185 4.6115 11.1095 4.78728C10.9127 5.11424 10.4064 4.94197 10.4064 4.54822C10.4064 4.47088 10.4416 4.40408 10.5259 4.31971C10.6244 4.22127 10.6736 4.20017 10.7931 4.20017C10.9127 4.20017 10.9619 4.22127 11.0603 4.31971ZM8.00172 5.2865C8.32867 5.48689 8.18453 5.99314 7.79781 5.99314C7.60445 5.99314 7.41812 5.81385 7.41812 5.624C7.41812 5.45877 7.46734 5.37439 7.60445 5.29002C7.74508 5.20213 7.86109 5.20213 8.00172 5.2865ZM9.17594 5.27244C9.29898 5.33572 9.38687 5.49041 9.38687 5.6451C9.38687 5.72244 9.35172 5.78924 9.26734 5.87361C9.16891 5.97205 9.11969 5.99314 9.00016 5.99314C8.88062 5.99314 8.83141 5.97205 8.73297 5.87361C8.64859 5.78924 8.61344 5.72244 8.61344 5.6451C8.61344 5.32869 8.90875 5.13533 9.17594 5.27244ZM10.3994 5.29002C10.6173 5.42361 10.6455 5.6908 10.4627 5.87361C10.3677 5.96853 10.315 5.99314 10.2025 5.99314C9.81578 5.99314 9.67164 5.48689 9.99859 5.2865C10.1392 5.20213 10.2552 5.20213 10.3994 5.29002ZM8.52203 6.28846C8.82789 6.41502 8.87711 6.76307 8.61344 6.96697C8.38141 7.14978 8.01578 6.94236 8.01578 6.62947C8.01578 6.50291 8.18805 6.28494 8.30758 6.26385C8.34977 6.25682 8.38844 6.24627 8.39547 6.24275C8.39898 6.24275 8.45523 6.26033 8.52203 6.28846ZM9.87203 6.40096C9.99859 6.53455 10.0197 6.67166 9.9318 6.83338C9.88609 6.92478 9.69625 7.04783 9.59781 7.04783C9.49937 7.04783 9.30953 6.92478 9.26383 6.83338C9.15133 6.62244 9.24273 6.38689 9.47125 6.28846C9.61891 6.22517 9.73492 6.26033 9.87203 6.40096ZM9.19703 7.36072C9.52398 7.56111 9.37984 8.06736 8.99312 8.06736C8.88062 8.06736 8.82789 8.04275 8.73297 7.94783C8.55016 7.76502 8.57828 7.49783 8.79625 7.36424C8.94039 7.27635 9.05641 7.27635 9.19703 7.36072Z" fill="#6C60FE"/>
<path d="M8.73969 12.5111C8.26508 12.6869 8.06469 13.2037 8.2932 13.6502C8.43383 13.9209 8.66937 14.058 8.99984 14.058C9.47797 14.058 9.78734 13.7486 9.78734 13.2705C9.78734 13.0314 9.73109 12.8732 9.58344 12.715C9.39711 12.5076 9.00336 12.4127 8.73969 12.5111ZM9.25297 12.9857C9.35492 13.0771 9.36898 13.1088 9.36898 13.267C9.36898 13.4146 9.3514 13.4603 9.27054 13.5412C9.18969 13.622 9.14398 13.6396 8.99984 13.6396C8.77133 13.6396 8.64828 13.5271 8.62367 13.2916C8.60609 13.1439 8.61312 13.1228 8.72914 13.0068C8.89437 12.8416 9.08422 12.8345 9.25297 12.9857Z" fill="#6C60FE"/>
<path d="M0.74885 3.74668C0.629319 3.78184 0.4676 3.95059 0.439475 4.07012C0.421897 4.16152 -0.00349395 17.0111 2.16704e-05 17.4822C2.16704e-05 17.8338 0.052756 17.9955 0.21799 18.1432C0.390256 18.3014 0.506272 18.333 0.903537 18.333C1.35002 18.333 1.49065 18.2732 1.66994 18.0236C1.76135 17.89 1.77541 17.8373 1.78596 17.6018C1.78947 17.4541 1.69455 14.3393 1.57151 10.6795C1.37112 4.76973 1.33947 4.01738 1.28674 3.94004C1.17424 3.76777 0.959787 3.69043 0.74885 3.74668ZM1.08635 8.59473C1.16369 11.0205 1.23752 13.1545 1.24807 13.3303L1.26565 13.6572H0.896506H0.527365V13.5588C0.530881 13.0033 0.843772 4.18965 0.864865 4.16152C0.875412 4.14043 0.900022 4.13691 0.914084 4.15449C0.931662 4.16856 1.00549 6.16895 1.08635 8.59473ZM1.27619 14.4025C1.29026 14.5818 1.31838 15.3904 1.34299 16.1955C1.37463 17.2994 1.37463 17.6826 1.34299 17.7494C1.27971 17.8936 1.11447 17.9568 0.83674 17.9393C0.632834 17.9287 0.583615 17.9111 0.49924 17.8303C0.383225 17.7143 0.38674 17.8549 0.453537 15.6857L0.502756 14.0791H0.878928H1.2551L1.27619 14.4025Z" fill="#6C60FE"/>
<path d="M16.9804 3.74316C16.9136 3.76073 16.8151 3.8205 16.7659 3.87675C16.6851 3.96464 16.6675 4.02792 16.6499 4.24237C16.6077 4.76972 16.1999 17.6685 16.221 17.7846C16.2526 17.9533 16.4284 18.1783 16.5901 18.2627C16.7765 18.3576 17.4128 18.3646 17.5886 18.2767C17.898 18.1185 17.9999 17.9252 17.9999 17.4822C17.9999 17.3029 17.905 14.2197 17.7855 10.6338C17.5991 4.91034 17.564 4.09823 17.5148 3.99277C17.4128 3.78183 17.2159 3.69042 16.9804 3.74316ZM17.3144 8.82675C17.4023 11.3791 17.4726 13.506 17.4726 13.5588V13.6572H17.1034H16.7343L16.7519 13.3303C16.7624 13.1545 16.8362 11.0275 16.9136 8.6123C16.9909 6.19355 17.0612 4.19667 17.0718 4.16855C17.1421 3.96112 17.1737 4.53769 17.3144 8.82675ZM17.5464 15.6682C17.6132 17.8338 17.6167 17.7142 17.5007 17.8303C17.4163 17.9111 17.3671 17.9287 17.1632 17.9392C16.8855 17.9568 16.7202 17.8935 16.6569 17.7494C16.6253 17.6826 16.6253 17.2994 16.6569 16.1955C16.6816 15.3904 16.7097 14.5818 16.7237 14.4025L16.7448 14.0791H17.121H17.4972L17.5464 15.6682Z" fill="#6C60FE"/>
</g>
<defs>
<clipPath id="clip0_81_72389">
<rect width="18" height="18" fill="white" transform="translate(0 0.333008)"/>
</clipPath>
</defs>
</svg>
