<svg width="18" height="16" viewBox="0 0 18 16" fill="none" xmlns="http://www.w3.org/2000/svg">
<path d="M16.5 5.83333H4.83329V3.33333C4.83329 2.41417 5.58079 1.66667 6.49996 1.66667C7.41913 1.66667 8.16663 2.41417 8.16663 3.33333H9.83329C9.83329 1.495 8.33829 0 6.49996 0C4.66163 0 3.16663 1.495 3.16663 3.33333V5.83333H1.49996C1.27895 5.83333 1.06698 5.92113 0.910704 6.07741C0.754423 6.23369 0.666626 6.44565 0.666626 6.66667V8.33333C0.666626 10.505 2.06163 12.3525 3.99996 13.0417V15.8333H5.66663V13.3333H12.3333V15.8333H14V13.0417C15.9383 12.3525 17.3333 10.505 17.3333 8.33333V6.66667C17.3333 6.44565 17.2455 6.23369 17.0892 6.07741C16.9329 5.92113 16.721 5.83333 16.5 5.83333V5.83333ZM15.6666 8.33333C15.6666 10.1717 14.1716 11.6667 12.3333 11.6667H5.66663C3.82829 11.6667 2.33329 10.1717 2.33329 8.33333V7.5H15.6666V8.33333Z" fill="#6C60FE"/>
</svg>
