<svg width="20" height="21" viewBox="0 0 20 21" fill="none" xmlns="http://www.w3.org/2000/svg">
<path d="M16.6666 8.46417V3H15V4.66667H4.99996V3H3.33329V8.46417C2.34163 9.04167 1.66663 10.1042 1.66663 11.3333V14.6667C1.66663 14.8877 1.75442 15.0996 1.9107 15.2559C2.06698 15.4122 2.27895 15.5 2.49996 15.5H3.33329V18.8333H4.99996V15.5H15V18.8333H16.6666V15.5H17.5C17.721 15.5 17.9329 15.4122 18.0892 15.2559C18.2455 15.0996 18.3333 14.8877 18.3333 14.6667V11.3333C18.3333 10.1042 17.6575 9.04167 16.6666 8.46417ZM15 6.33333V8H10.8333V6.33333H15ZM4.99996 6.33333H9.16663V8H4.99996V6.33333ZM16.6666 13.8333H3.33329V11.3333C3.33329 10.4142 4.08079 9.66667 4.99996 9.66667H15C15.9191 9.66667 16.6666 10.4142 16.6666 11.3333V13.8333Z" fill="#6C60FE"/>
</svg>
