<svg width="20" height="21" viewBox="0 0 20 21" fill="none" xmlns="http://www.w3.org/2000/svg">
<path d="M15.8334 2.16663H7.50003C6.58086 2.16663 5.83336 2.91413 5.83336 3.83329V8.48829L1.91086 12.4108C1.79435 12.5273 1.71501 12.6758 1.68287 12.8374C1.65073 12.9991 1.66724 13.1666 1.73029 13.3188C1.79335 13.4711 1.90014 13.6012 2.03714 13.6928C2.17415 13.7844 2.33523 13.8333 2.50003 13.8333V18C2.50003 18.221 2.58782 18.4329 2.7441 18.5892C2.90038 18.7455 3.11235 18.8333 3.33336 18.8333H16.6667C16.8877 18.8333 17.0997 18.7455 17.2559 18.5892C17.4122 18.4329 17.5 18.221 17.5 18V3.83329C17.5 2.91413 16.7525 2.16663 15.8334 2.16663ZM9.16669 17.1666H4.16669V12.5116L6.66669 10.0116L9.16669 12.5116V17.1666ZM15.8334 17.1666H10.8334V13.8333C10.9983 13.8337 11.1597 13.785 11.297 13.6935C11.4342 13.602 11.5412 13.4718 11.6043 13.3194C11.6675 13.1669 11.6839 12.9992 11.6515 12.8374C11.6191 12.6757 11.5394 12.5272 11.4225 12.4108L7.50003 8.48829V3.83329H15.8334V17.1666Z" fill="#6C60FE"/>
<path d="M9.16671 5.5H10.8334V7.16667H9.16671V5.5ZM12.5 5.5H14.1667V7.16667H12.5V5.5ZM12.5 8.85917H14.1667V10.5H12.5V8.85917ZM12.5 12.1667H14.1667V13.8333H12.5V12.1667ZM5.83337 13H7.50004V14.6667H5.83337V13Z" fill="#6C60FE"/>
</svg>
