<svg width="27" height="26" viewBox="0 0 27 26" fill="none" xmlns="http://www.w3.org/2000/svg">
<path d="M13.164 0.520824C12.9324 0.582273 12.7008 0.735897 10.9907 1.96796C10.0288 2.66234 9.20639 3.25225 9.16482 3.2799C9.12326 3.30755 8.82339 3.5257 8.49681 3.75921C8.17023 3.99579 7.71599 4.32147 7.48738 4.48431C7.25877 4.64715 6.83125 4.9544 6.53733 5.1664C6.2434 5.37533 5.34976 6.02054 4.54815 6.59202C3.74951 7.16658 3.02806 7.68582 2.94493 7.7442C2.86477 7.80258 2.51741 8.05145 2.17301 8.29725C1.4961 8.77655 1.28531 8.97012 1.16952 9.20362C0.792466 9.97174 1.06264 10.829 1.79893 11.2069C2.01863 11.3206 2.02457 11.3206 2.39271 11.3206C2.75195 11.3206 2.7757 11.3175 2.95978 11.2253C3.06666 11.1731 3.21807 11.0778 3.3012 11.0164C3.38136 10.9549 3.45856 10.9058 3.47043 10.9058C3.48528 10.9058 3.49418 14.1534 3.49418 18.123V25.3372L3.57137 25.4201L3.65154 25.5H13.4994H23.3474L23.4275 25.4201L23.5047 25.3372V18.123C23.5047 14.1534 23.5136 10.9058 23.5285 10.9058C23.5403 10.9058 23.6175 10.9549 23.6977 11.0164C24.1846 11.382 24.7249 11.4465 25.2178 11.1977C26.0699 10.7644 26.2688 9.57846 25.6008 8.89638C25.5176 8.81035 24.8407 8.30339 24.0985 7.77185C23.3563 7.24339 22.6022 6.70263 22.421 6.57359C21.4888 5.90379 18.4843 3.74692 15.4827 1.59312C14.7019 1.03393 14.0635 0.597637 13.9834 0.566912C13.8171 0.505463 13.3302 0.47781 13.164 0.520824ZM13.7637 1.11688C13.829 1.14146 14.2357 1.41491 14.6633 1.72216C15.0938 2.03248 16.1002 2.75451 16.8989 3.32906C17.7005 3.90361 18.7812 4.67788 19.3037 5.05272C19.8262 5.42756 20.7406 6.08507 21.3374 6.51214C22.9614 7.67661 23.5047 8.06988 24.3063 8.64136C25.2237 9.29887 25.2267 9.30194 25.3276 9.49244C25.4969 9.81504 25.4523 10.2022 25.2178 10.4695C25.0604 10.6446 24.9001 10.7276 24.6774 10.7429C24.3598 10.7706 24.3538 10.7675 23.3652 10.0578C22.7209 9.5969 20.8772 8.27267 19.9628 7.61516C19.4135 7.21881 18.8257 6.79788 18.6565 6.67805C18.4902 6.5613 18.1933 6.34623 17.9974 6.20489C17.8014 6.06356 17.3204 5.71944 16.9285 5.43678C16.5366 5.15718 15.6875 4.54883 15.0433 4.08489C14.399 3.62095 13.8052 3.19695 13.7251 3.14164C13.544 3.01567 13.4549 3.01567 13.2738 3.14164C13.1283 3.24303 12.9443 3.37515 10.8868 4.85301C10.29 5.28008 9.37561 5.93759 8.85308 6.31243C8.33055 6.68727 7.39534 7.35707 6.77484 7.80258C3.81483 9.92873 2.82024 10.6385 2.73711 10.6846C2.59757 10.7644 2.17895 10.7552 2.0216 10.6692C1.7633 10.5279 1.56438 10.196 1.56438 9.91029C1.56438 9.57232 1.69799 9.36032 2.08691 9.08072C2.24724 8.96397 2.63617 8.68438 2.9479 8.46316C3.25667 8.23887 3.9989 7.70733 4.59565 7.28026C5.18944 6.85318 6.01777 6.25713 6.43341 5.9591C7.3419 5.30773 8.7462 4.29996 10.9907 2.68692C13.1372 1.14454 13.1847 1.11074 13.2827 1.09538C13.4638 1.06772 13.6479 1.07694 13.7637 1.11688ZM14.6336 4.50889C15.2422 4.94518 16.2279 5.65492 16.8246 6.082C17.4214 6.50907 18.7574 7.47075 19.7936 8.21429C20.8297 8.95782 21.9609 9.76896 22.3023 10.0148L22.9258 10.4633L22.9347 17.6898L22.9406 24.9162H13.4994H4.05828V17.699V10.4818L4.15625 10.408C4.20672 10.365 4.51252 10.1469 4.8302 9.91644C5.14787 9.68907 5.89604 9.15139 6.49279 8.72432C7.08955 8.29725 8.17914 7.51377 8.91246 6.98837C11.1302 5.39683 12.4484 4.45051 12.965 4.07567C13.2352 3.87903 13.4698 3.71926 13.4905 3.71926C13.5113 3.71619 14.0249 4.0726 14.6336 4.50889Z" fill="white" stroke="#292E40" stroke-width="0.5"/>
<path d="M13.1729 7.17889C12.0655 7.35095 11.2312 8.13136 10.9581 9.24667C10.8779 9.57542 10.8839 10.1838 10.9729 10.5217C11.059 10.8566 11.2609 11.2745 11.4598 11.5418C11.8339 12.0334 12.4871 12.4297 13.0631 12.5188L13.2026 12.5404V13.459V14.3777H10.2901C8.26231 14.3777 7.36273 14.3869 7.31819 14.4115C7.17271 14.4914 7.17568 14.4084 7.17568 18.1138C7.17568 21.8899 7.16975 21.727 7.34194 21.81C7.44882 21.8592 19.5501 21.8592 19.657 21.81C19.8292 21.727 19.8233 21.8929 19.8233 18.0954C19.8233 14.3562 19.8292 14.4944 19.6778 14.4084C19.6392 14.3869 18.6476 14.3777 16.7089 14.3777H13.7964V13.459V12.5404L13.9359 12.5188C14.4377 12.442 15.0136 12.1256 15.3818 11.7231C16.0409 11.001 16.2754 9.94104 15.9756 9.01009C15.7291 8.24504 15.1116 7.58753 14.3902 7.3233C14.0101 7.18504 13.5054 7.12359 13.1729 7.17889ZM14.0072 7.81797C14.5772 7.97159 15.0819 8.40481 15.3402 8.95785C15.652 9.6338 15.5837 10.4449 15.165 11.0656C14.791 11.6248 14.1645 11.9597 13.4995 11.9597C13.1551 11.9597 12.9146 11.9013 12.5791 11.7292C12.0952 11.4865 11.6647 10.9396 11.5252 10.3835C11.4539 10.1162 11.4539 9.60307 11.5222 9.33884C11.632 8.91484 11.9052 8.47855 12.2228 8.22046C12.4574 8.02997 12.8523 7.8364 13.1195 7.78417C13.3778 7.73501 13.7429 7.7473 14.0072 7.81797ZM19.2295 18.1107V21.26H13.4995H7.76947L7.76353 18.1107L7.75462 14.9615H13.4935H19.2295V18.1107Z" fill="white" stroke="#292E40" stroke-width="0.5"/>
<path d="M9.16492 18.1261V19.9695H9.91605C10.9374 19.9695 11.2046 19.9019 11.4747 19.5855C11.6291 19.4011 11.7004 19.1891 11.6974 18.8942C11.6974 18.5101 11.5401 18.2367 11.2402 18.0953L11.1274 18.0462L11.2788 17.9386C11.3857 17.868 11.4599 17.7819 11.5222 17.6652C11.6024 17.5146 11.6143 17.4686 11.6143 17.2504C11.6143 16.7465 11.356 16.4423 10.8305 16.3256C10.6939 16.2979 10.4178 16.2826 9.90121 16.2826H9.16492V18.1261ZM10.7919 16.8756C10.9285 16.9524 11.0175 17.1613 10.9997 17.3641C10.9819 17.5515 10.9077 17.659 10.7384 17.7481C10.6197 17.8127 10.5633 17.8188 10.1981 17.8188H9.78839V17.3088V16.7988L10.2426 16.811C10.6078 16.8203 10.7117 16.8326 10.7919 16.8756ZM10.8156 18.3749C11.1066 18.5193 11.1838 18.9679 10.97 19.2506C10.8483 19.4104 10.7088 19.4472 10.2278 19.4472H9.78839V18.8788V18.3104H10.2397C10.6345 18.3104 10.7058 18.3196 10.8156 18.3749Z" fill="white" stroke="#292E40" stroke-width="0.5"/>
<path d="M12.2644 17.656C12.2703 18.9802 12.2733 19.0386 12.3357 19.2137C12.496 19.6715 12.8522 19.9358 13.3837 19.9972C14.0487 20.074 14.5564 19.8344 14.7969 19.3336L14.9097 19.097L14.9186 17.6898L14.9275 16.2826H14.6158H14.304L14.2951 17.656C14.2862 18.9618 14.2833 19.0386 14.2269 19.1523C14.0933 19.4227 13.7637 19.5578 13.4193 19.4841C13.1996 19.438 13.0749 19.3428 12.974 19.1554L12.8908 19.0017L12.8819 17.6406L12.873 16.2826H12.5643H12.2555L12.2644 17.656Z" fill="white" stroke="#292E40" stroke-width="0.5"/>
<path d="M15.2511 16.2918C15.2511 16.2979 15.5183 16.8233 15.8449 17.4593L16.4387 18.6146V19.2936V19.9695H16.7504H17.0621V19.2875V18.6054L17.5253 17.6959C17.7806 17.1982 18.0508 16.6759 18.122 16.5345L18.2556 16.2826H17.9113H17.5639L17.1542 17.149L16.7445 18.0185L16.498 17.4962C16.3644 17.2074 16.1804 16.8172 16.0943 16.6267L15.934 16.2826H15.5925C15.4055 16.2826 15.2511 16.2857 15.2511 16.2918Z" fill="white" stroke="#292E40" stroke-width="0.5"/>
</svg>
