<svg width="21" height="20" viewBox="0 0 21 20" fill="none" xmlns="http://www.w3.org/2000/svg">
<path d="M6.03369 9.16666H7.70036V10.8333H6.03369V9.16666ZM6.03369 12.5H7.70036V14.1667H6.03369V12.5ZM9.36702 9.16666H11.0337V10.8333H9.36702V9.16666ZM9.36702 12.5H11.0337V14.1667H9.36702V12.5ZM12.7004 9.16666H14.367V10.8333H12.7004V9.16666ZM12.7004 12.5H14.367V14.1667H12.7004V12.5Z" fill="#6C60FE"/>
<path d="M4.36686 18.3333H16.0335C16.9527 18.3333 17.7002 17.5858 17.7002 16.6667V4.99999C17.7002 4.08082 16.9527 3.33332 16.0335 3.33332H14.3669V1.66666H12.7002V3.33332H7.7002V1.66666H6.03353V3.33332H4.36686C3.4477 3.33332 2.7002 4.08082 2.7002 4.99999V16.6667C2.7002 17.5858 3.4477 18.3333 4.36686 18.3333ZM16.0335 6.66666L16.0344 16.6667H4.36686V6.66666H16.0335Z" fill="#6C60FE"/>
</svg>
