<svg width="81" height="81" viewBox="0 0 81 81" fill="none" xmlns="http://www.w3.org/2000/svg">
<path d="M2.7501 0.385269C2.38344 0.551937 1.85011 0.951939 1.55011 1.25194C0.466779 2.38528 0.500112 2.13528 0.500112 12.102C0.500112 22.2021 0.466779 21.8687 1.68344 23.0187C2.81677 24.1021 2.56677 24.0687 12.5334 24.0687C22.6333 24.0687 22.3 24.1021 23.45 22.8854C24.5167 21.7521 24.5 22.0021 24.5 12.0687C24.5 2.13528 24.5167 2.38528 23.45 1.25194C22.3 0.0352669 22.6333 0.0685997 12.5001 0.0685997C4.00009 0.0685997 3.36676 0.101934 2.7501 0.385269ZM21.4167 3.15195L21.8333 3.55195V12.0687V20.5854L21.4167 20.9854L21.0167 21.4021H12.5001H3.98343L3.58343 20.9854L3.16677 20.5854V12.0687V3.55195L3.58343 3.15195L3.98343 2.73528H12.5001H21.0167L21.4167 3.15195Z" fill="#4D4BC9"/>
<path d="M5.8335 6.73404V8.06738H7.16682H8.50015V6.73404V5.4007H7.16682H5.8335V6.73404Z" fill="#4D4BC9"/>
<path d="M11.1667 6.73404V8.06738H15.1667H19.1667V6.73404V5.4007H15.1667H11.1667V6.73404Z" fill="#4D4BC9"/>
<path d="M5.8335 12.068V13.4014H12.5001H19.1668V12.068V10.7347H12.5001H5.8335V12.068Z" fill="#4D4BC9"/>
<path d="M5.8335 17.401V18.7344H12.5001H19.1668V17.401V16.0677H12.5001H5.8335V17.401Z" fill="#4D4BC9"/>
<path d="M65.3666 0.402042C61.2833 1.48538 57.8833 4.90207 56.8333 9.00209C56.6 9.88543 56.5 10.8521 56.5 12.0688C56.5 15.5355 57.5833 18.1521 60 20.5688C62.4166 22.9855 65.0333 24.0688 68.4999 24.0688C71.9666 24.0688 74.5832 22.9855 76.9999 20.5688C79.4166 18.1521 80.4999 15.5355 80.4999 12.0688C80.4999 10.8521 80.3999 9.88543 80.1665 9.00209C79.1166 4.86873 75.6999 1.45205 71.5666 0.402042C69.8499 -0.0479603 67.0666 -0.0312939 65.3666 0.402042ZM70.5333 2.91872C73.7999 3.60206 76.6999 6.40208 77.5832 9.73543C77.8999 10.9354 77.8999 13.0688 77.5832 14.3188C76.7166 17.6855 74.1166 20.2855 70.7499 21.1522C69.4999 21.4688 67.3666 21.4688 66.1666 21.1522C62.8333 20.2688 60.0333 17.3688 59.35 14.1021C58.3333 9.16876 61.3333 4.26873 66.1666 3.00206C67.2833 2.70205 69.3333 2.66872 70.5333 2.91872Z" fill="#4D4BC9"/>
<path d="M70.033 10.1173L67.1663 12.984L65.6163 11.434L64.0663 9.90065L63.1997 10.784L62.333 11.6507L64.483 13.8007C66.333 15.6507 66.7163 15.9507 67.1663 15.9507C67.633 15.9507 68.1163 15.534 71.183 12.4673L74.6663 8.98398L73.7829 8.10064L72.9163 7.23397L70.033 10.1173Z" fill="#4D4BC9"/>
<path d="M33.8335 5.71793C31.4335 6.4846 29.3502 8.16794 28.2836 10.2013C27.4002 11.9013 27.1669 12.8846 27.1669 14.9513V16.7513L28.0836 17.7347L29.0169 18.7013L28.4169 19.0347C27.4169 19.6347 27.1669 20.2513 27.1669 22.068C27.1669 23.3514 27.2336 23.7514 27.5002 24.2014C28.0336 25.068 28.7336 25.4014 30.0336 25.4014C31.1336 25.4014 31.1669 25.418 31.2669 25.8514C31.8002 28.3181 33.4169 30.7347 35.3169 31.9514C35.8502 32.2847 35.8669 32.3181 35.7669 33.1348C35.5669 34.6014 35.5002 34.7348 35.0169 34.7348C34.7835 34.7348 33.6835 35.0348 32.5835 35.3848C31.4835 35.7348 30.0336 36.2014 29.3669 36.4014C28.7002 36.6181 27.7336 37.0348 27.2169 37.3348C26.7169 37.6514 26.2336 37.9014 26.1669 37.9014C26.1002 37.9014 25.1169 36.7514 23.9669 35.3514C22.3003 33.3181 21.8503 32.6681 21.7669 32.1181C21.4336 30.2181 19.9003 28.2014 18.0836 27.3014L17.0836 26.818L9.13366 26.768L1.1837 26.718L0.817031 27.0847C0.500366 27.4014 0.467033 27.5847 0.533699 28.7347C0.667032 31.0347 2.08369 33.1014 4.25035 34.1681C5.23368 34.6514 5.30034 34.6514 8.45033 34.7014L11.667 34.7681L16.0836 41.7015L20.5003 48.6515V49.6848V50.7349H12.167C4.05035 50.7349 3.81702 50.7515 3.50035 51.0682C3.16702 51.4015 3.16702 51.6182 3.16702 61.7349V72.0683H2.16702C0.500366 72.0683 0.500366 72.085 0.500366 76.0683C0.500366 79.185 0.517033 79.4184 0.833698 79.735C1.16703 80.0684 1.3837 80.0684 40.5002 80.0684C79.6166 80.0684 79.8333 80.0684 80.1666 79.735C80.4833 79.4184 80.5 79.185 80.5 76.0683C80.5 72.085 80.5 72.0683 78.8333 72.0683H77.8333V61.7349C77.8333 51.6182 77.8333 51.4015 77.5 51.0682C77.1833 50.7515 76.95 50.7349 68.8334 50.7349H60.5001V49.6348V48.5348L63.0667 44.5015C64.4834 42.2848 66.4667 39.2015 67.4667 37.6514L69.3 34.8181L72.5333 34.7348C75.6833 34.6514 75.7667 34.6348 76.75 34.1681C78.9166 33.1014 80.3333 31.0347 80.4666 28.7347C80.5333 27.5847 80.5 27.4014 80.1833 27.0847L79.8167 26.718L71.8667 26.768L63.9167 26.818L62.9167 27.3014C61.1001 28.2014 59.5667 30.2181 59.2334 32.1181C59.1501 32.6681 58.7001 33.3181 57.0334 35.3514C55.8834 36.7514 54.9001 37.9014 54.8334 37.9014C54.7668 37.9014 54.2834 37.6514 53.7834 37.3348C53.2668 37.0348 52.3001 36.6181 51.6334 36.4014C50.9668 36.2014 49.5168 35.7348 48.4168 35.3848C47.3168 35.0348 46.2168 34.7348 45.9835 34.7348C45.5001 34.7348 45.4335 34.6014 45.2335 33.1348C45.1335 32.3181 45.1502 32.2847 45.6835 31.9514C47.5835 30.7347 49.2001 28.3181 49.7335 25.8514C49.8335 25.418 49.8668 25.4014 50.9668 25.4014C52.2668 25.4014 52.9668 25.068 53.5001 24.2014C53.7668 23.7514 53.8334 23.3514 53.8334 22.068C53.8334 20.2513 53.5834 19.6347 52.5834 19.0347L51.9834 18.7013L52.9168 17.7347L53.8334 16.7513V14.9513C53.8334 12.8846 53.6001 11.9013 52.7334 10.2179C51.6668 8.1846 49.7501 6.60126 47.4501 5.81792C46.2001 5.40125 46.1501 5.40125 40.4668 5.41792C35.4669 5.41792 34.6335 5.45126 33.8335 5.71793ZM47.2501 8.63461C49.6168 9.80128 51.1668 12.1846 51.1668 14.6513C51.1668 15.418 51.1001 15.5513 50.5001 16.1513L49.8335 16.8013V16.368C49.8335 15.6846 49.5001 15.118 49.0168 14.918C48.7835 14.818 46.1501 14.1346 43.1668 13.3846L37.7502 12.0346L34.6335 13.5846C31.4169 15.1846 31.1669 15.3846 31.1669 16.368V16.8013L30.4836 16.1513L29.8002 15.4846L29.8836 14.218C30.0669 11.3846 32.1335 8.91795 34.9169 8.21794C35.2002 8.15127 37.8502 8.10127 40.8335 8.11794L46.2501 8.15127L47.2501 8.63461ZM42.1668 15.818C44.2335 16.3347 46.2001 16.8347 46.5501 16.918L47.1835 17.0847L47.1335 21.4513C47.0835 25.8014 47.0835 25.818 46.6335 26.7847C46.0001 28.1181 44.6835 29.4514 43.3502 30.1181C42.3335 30.6181 42.1502 30.6514 40.5002 30.6514C38.9502 30.6514 38.6502 30.6014 37.7835 30.2014C36.4502 29.5681 35.1169 28.2514 34.4502 26.918L33.9169 25.8347L33.8669 21.318L33.8169 16.818L35.8669 15.7847C37.0002 15.218 38.0335 14.7846 38.1669 14.818C38.3002 14.8513 40.1002 15.3013 42.1668 15.818ZM31.1669 22.068V22.7347H30.5002H29.8336V22.068V21.4013H30.5002H31.1669V22.068ZM51.1668 22.068V22.7347H50.5001H49.8335V22.068V21.4013H50.5001H51.1668V22.068ZM17.017 29.8681C17.6503 30.1847 18.0836 30.5847 18.4669 31.1514L19.0336 31.9847L12.8003 32.0347C8.85033 32.0681 6.367 32.0181 5.98367 31.9181C5.11701 31.6514 4.13368 30.8847 3.70035 30.1014L3.31702 29.4014H9.71699H16.1336L17.017 29.8681ZM77.3 30.1014C76.8667 30.8847 75.8833 31.6514 75.0167 31.9181C74.6333 32.0181 72.15 32.0681 68.2 32.0347L61.9667 31.9847L62.5334 31.1514C62.9167 30.5847 63.3501 30.1847 63.9834 29.8681L64.8667 29.4014H71.2834H77.6833L77.3 30.1014ZM42.5835 33.8014C42.6335 34.0848 42.7835 34.9181 42.9168 35.6514L43.1502 36.9848L41.8168 38.3181L40.5002 39.6515L39.1835 38.3181L37.8502 36.9848L38.0835 35.6514C38.2169 34.9181 38.3668 34.0848 38.4168 33.8014L38.5002 33.2848H40.5002H42.5002L42.5835 33.8014ZM25.6669 41.7348C28.8002 45.5848 31.4335 48.7348 31.5002 48.7348C31.7002 48.7348 33.3335 47.3515 33.3335 47.2015C33.3335 47.1182 32.1002 45.5348 30.5836 43.7015C29.0669 41.8515 27.8336 40.2848 27.8336 40.2181C27.8336 40.0681 30.1336 38.9015 30.4336 38.9015C30.5502 38.9015 31.9669 40.7348 33.5669 42.9681L36.4835 47.0515L35.1502 54.9849C34.4169 59.3516 33.8835 63.0183 33.9502 63.1349C34.2502 63.6516 39.6835 69.085 40.0668 69.2516C40.3835 69.4016 40.6002 69.4016 40.9668 69.2516C41.4335 69.0516 47.1668 63.2183 47.1668 62.9516C47.1668 62.8683 46.5668 59.2682 45.8335 54.9349L44.5168 47.0515L47.4335 42.9681C49.0335 40.7348 50.4501 38.9015 50.5668 38.9015C50.8668 38.9015 53.1668 40.0681 53.1668 40.2181C53.1668 40.2848 51.9334 41.8515 50.4168 43.7015C48.9001 45.5348 47.6668 47.1182 47.6668 47.2015C47.6668 47.3515 49.3001 48.7348 49.5001 48.7348C49.5668 48.7348 52.2001 45.5848 55.3501 41.7348L61.0834 34.7348H63.5334C64.9001 34.7348 66 34.7681 66 34.8014C66 34.8514 64.6834 36.9348 63.0667 39.4348C61.4501 41.9348 59.6001 44.8348 58.9834 45.8848L57.8334 47.7848V49.2515V50.7349H56.3168C54.8668 50.7349 54.7834 50.7515 54.3168 51.2182L53.8334 51.7015V61.8849V72.0683H40.5002H27.1669V61.8849V51.7015L26.6836 51.2182C26.2169 50.7515 26.1336 50.7349 24.6836 50.7349H23.1669V49.2515V47.7848L19.1503 41.4681C16.9336 37.9848 15.1003 35.0514 15.0503 34.9348C14.9836 34.7848 15.5336 34.7348 17.4503 34.7348H19.9336L25.6669 41.7348ZM37.5002 40.1515C39.3835 42.0181 40.2168 42.7348 40.5002 42.7348C40.7835 42.7348 41.6168 42.0181 43.5168 40.1348L46.1335 37.5348L46.8668 37.7681C47.2501 37.9014 47.5835 38.0848 47.5835 38.1681C47.5835 38.2514 46.4668 39.9181 45.0835 41.8515L42.5835 45.4015L40.5002 45.3848H38.4168L35.9169 41.8515C34.5502 39.9181 33.4169 38.2514 33.4169 38.1681C33.4169 38.0348 34.3502 37.6181 34.7502 37.5848C34.8335 37.5681 36.0669 38.7348 37.5002 40.1515ZM42.2335 48.9182C42.3002 49.4015 42.4002 50.0015 42.4502 50.2515L42.5502 50.7349H40.5002H38.4668L38.5502 50.2515C38.6002 50.0015 38.7002 49.4015 38.7668 48.9182L38.8835 48.0682H40.5002H42.1168L42.2335 48.9182ZM11.167 55.5849V57.7682L11.6503 58.2516L12.1336 58.7349H15.167H18.2003L18.6836 58.2516L19.1669 57.7682V55.5849V53.4015H21.8336H24.5002V62.7349V72.0683H15.167H5.83367V62.7349V53.4015H8.50033H11.167V55.5849ZM16.5003 54.7349V56.0682H15.167H13.8336V54.7349V53.4015H15.167H16.5003V54.7349ZM43.0002 53.5182C43.0002 53.6015 43.3335 55.6015 43.7335 57.9849L44.4668 62.3183L42.4835 64.3183L40.5002 66.3183L38.5168 64.3183L36.5335 62.3183L37.2669 57.9849C37.6669 55.6015 38.0002 53.6015 38.0002 53.5182C38.0002 53.4515 39.1335 53.4015 40.5002 53.4015C41.8835 53.4015 43.0002 53.4515 43.0002 53.5182ZM61.8334 55.5849V57.7682L62.3167 58.2516L62.8001 58.7349H65.8334H68.8667L69.35 58.2516L69.8334 57.7682V55.5849V53.4015H72.5H75.1667V62.7349V72.0683H65.8334H56.5001V62.7349V53.4015H59.1667H61.8334V55.5849ZM67.1667 54.7349V56.0682H65.8334H64.5001V54.7349V53.4015H65.8334H67.1667V54.7349ZM77.8333 76.0683V77.4017H40.5002H3.16702V76.0683V74.735H40.5002H77.8333V76.0683Z" fill="#4D4BC9"/>
<path d="M37.1665 39.9842C38.4998 41.3175 39.6165 42.4009 39.6665 42.4009C39.6998 42.4009 38.6665 41.3175 37.3332 39.9842C35.9998 38.6509 34.8832 37.5675 34.8332 37.5675C34.7998 37.5675 35.8332 38.6509 37.1665 39.9842Z" fill="#401515"/>
<path d="M43.6665 40.0177L41.2499 42.4844L43.7165 40.0677C45.9999 37.8343 46.2499 37.5677 46.1165 37.5677C46.0999 37.5677 44.9999 38.6677 43.6665 40.0177Z" fill="#401515"/>
<path d="M36.5 62.2183C36.5 62.285 37.4 63.2183 38.5 64.3183L40.5 66.3184L42.5 64.3183C43.6 63.2183 44.5 62.285 44.5 62.2183C44.5 62.1683 43.6 63.035 42.5 64.135L40.5 66.1517L38.5 64.135C37.4 63.035 36.5 62.1683 36.5 62.2183Z" fill="#401515"/>
<path d="M69.9663 10.0177L67.1663 12.8177L65.633 11.3177L64.083 9.81769L65.633 11.401L67.1663 12.9844L70.033 10.101C71.6163 8.53435 72.883 7.23434 72.833 7.23434C72.783 7.23434 71.4996 8.48435 69.9663 10.0177Z" fill="#292E40"/>
<path d="M71.2498 12.435L67.9165 15.8184L71.2998 12.485C74.4331 9.38499 74.7498 9.06832 74.6165 9.06832C74.5998 9.06832 73.0831 10.585 71.2498 12.435Z" fill="#292E40"/>
<path d="M64.2496 13.7353C65.3496 14.8353 66.283 15.7354 66.333 15.7354C66.3663 15.7354 65.5163 14.8353 64.4163 13.7353C63.3163 12.6353 62.383 11.7353 62.333 11.7353C62.2996 11.7353 63.1496 12.6353 64.2496 13.7353Z" fill="#292E40"/>
<path d="M45.4164 64.9347L44.2498 66.1514L45.4664 64.9847C46.5831 63.918 46.7497 63.7347 46.6164 63.7347C46.5997 63.7347 46.0497 64.2847 45.4164 64.9347Z" fill="#292E40"/>
<path d="M37.1665 40.1522C38.4998 41.4855 39.6165 42.5688 39.6665 42.5688C39.6998 42.5688 38.6665 41.4855 37.3332 40.1522C35.9998 38.8188 34.8832 37.7355 34.8332 37.7355C34.7998 37.7355 35.8332 38.8188 37.1665 40.1522Z" fill="#EC6B40"/>
<path d="M43.6665 40.1852L41.2499 42.6519L43.7165 40.2352C45.9999 38.0018 46.2499 37.7352 46.1165 37.7352C46.0999 37.7352 44.9999 38.8352 43.6665 40.1852Z" fill="#EC6B40"/>
<path d="M46.5665 37.8847C46.5998 37.9347 45.4498 39.6513 43.9832 41.7013L41.3499 45.4014H41.8832C42.3998 45.4014 42.5498 45.218 45.0165 41.7513L47.6165 38.118L47.0665 37.9347C46.7498 37.8513 46.5332 37.818 46.5665 37.8847Z" fill="#EC6B40"/>
<path d="M41.5666 53.6846C41.5999 53.8513 41.9666 55.9513 42.3666 58.368L43.0832 62.7347L41.6166 64.2014L40.1666 65.6514L38.3832 63.9014L36.5833 62.1513L38.5499 64.1514L40.4999 66.1514L42.4166 64.218L44.3499 62.3013L43.6666 58.218C42.7832 52.868 42.9499 53.4013 42.1499 53.4013C41.5832 53.4013 41.4832 53.4513 41.5666 53.6846Z" fill="#EC6B40"/>
<path d="M34.0333 37.9513L33.4833 38.1513L36.0333 41.768L38.5833 45.4014L39.9999 45.3514L41.3999 45.318L44.0166 41.6513C45.6665 39.3513 46.5832 37.918 46.4832 37.818C46.3832 37.718 45.3832 38.6013 43.7832 40.2013C41.2666 42.6847 41.2166 42.7347 40.4999 42.7347C39.7832 42.7347 39.7332 42.6847 37.2499 40.2347C35.8666 38.8513 34.6999 37.7347 34.6666 37.7513C34.6166 37.7513 34.3333 37.8513 34.0333 37.9513Z" fill="#EC6B6B"/>
<path d="M38.0832 53.9351C38.0332 54.2351 37.6998 56.2018 37.3332 58.3185L36.6998 62.1518L38.4332 63.9018L40.1665 65.6519L41.6165 64.2018L43.0831 62.7352L42.3665 58.3685C41.9665 55.9518 41.5998 53.8518 41.5665 53.6851C41.4831 53.4351 41.2498 53.4018 39.8331 53.4018H38.1832L38.0832 53.9351Z" fill="#EC6B6B"/>
<path d="M45.8331 19.8022C45.8331 22.2522 45.7831 22.8689 45.4998 23.8022C44.7998 26.0189 42.8832 28.0689 40.7165 28.9022C40.0998 29.1522 39.1998 29.3189 38.1832 29.3856L36.5999 29.4856L37.5165 29.9356C41.5665 31.9189 46.2665 29.4856 46.9831 25.0522C47.0831 24.4689 47.1665 22.4355 47.1665 20.5522V17.1022L46.6498 17.0022C46.3665 16.9522 46.0665 16.9022 45.9831 16.9022C45.8998 16.9022 45.8331 18.2022 45.8331 19.8022Z" fill="#ECC16B"/>
<path d="M3.50012 29.5509C3.50012 29.9509 4.66678 31.1676 5.41678 31.551L6.23344 31.9843L12.5334 32.0343C16.0001 32.0676 18.8334 32.0343 18.8334 31.9676C18.8334 31.901 18.6834 31.601 18.4834 31.3009L18.1334 30.7343H12.1667C5.73344 30.7343 5.48345 30.7009 4.13345 29.8009C3.78345 29.5843 3.50012 29.4676 3.50012 29.5509Z" fill="#ECC16B"/>
<path d="M76.9996 29.7513C76.7663 29.918 76.183 30.218 75.6996 30.4013C74.883 30.718 74.433 30.7347 68.833 30.7347H62.8664L62.5164 31.3013C62.3164 31.6013 62.1664 31.9013 62.1664 31.968C62.1664 32.1347 73.8663 32.068 74.6663 31.8847C75.6663 31.668 76.5663 31.0513 77.0996 30.2347C77.6163 29.4513 77.583 29.2847 76.9996 29.7513Z" fill="#ECC16B"/>
<path d="M41.7333 33.3676L41.2333 33.4176L41.5499 35.4176L41.8833 37.4176L41.0166 38.301C40.4166 38.9176 40.1999 39.2343 40.3333 39.3176C40.4666 39.401 40.9999 38.9843 41.7833 38.201L43.0166 36.9676L42.7333 35.2343C42.5833 34.2676 42.3999 33.4509 42.3499 33.4009C42.2999 33.3509 42.0166 33.3343 41.7333 33.3676Z" fill="#ECC16B"/>
<path d="M35.4499 8.23449C33.4499 8.55116 31.4166 10.1178 30.5499 12.0012C30.3166 12.5012 30.0499 13.4845 29.9666 14.1845L29.7999 15.4345L30.4833 16.1345L31.1666 16.8179V16.1345C31.1666 15.6512 31.2666 15.3679 31.5499 15.1179C32.1666 14.5512 37.2832 12.0678 37.8332 12.0678C38.1166 12.0678 40.7499 12.6678 43.7165 13.4179C47.6665 14.4012 49.1832 14.8512 49.4665 15.1012L49.8332 15.4512V14.7179C49.8332 13.7179 49.4165 12.0512 48.9332 11.1012C48.3498 9.9345 47.0832 8.61782 46.3665 8.38449C45.5998 8.13449 36.8332 8.03449 35.4499 8.23449Z" fill="#969696"/>
<path d="M29.8333 22.0682V22.7349H30.4999H31.1666V22.0682V21.4015H30.4999H29.8333V22.0682Z" fill="#C19696"/>
<path d="M49.8333 22.0682V22.7349H50.4999H51.1666V22.0682V21.4015H50.4999H49.8333V22.0682Z" fill="#C19696"/>
<path d="M5.8335 62.7355V72.0688H15.1668H24.5001V62.7355V53.4021H21.8334H19.1668V55.7021C19.1668 58.9021 19.3834 58.7354 15.1501 58.7354C10.9501 58.7354 11.1668 58.9021 11.1668 55.6854V53.4021H8.50015H5.8335V62.7355Z" fill="#C19696"/>
<path d="M56.5 62.7355V72.0688H65.8333H75.1666V62.7355V53.4021H72.4999H69.8333V55.7021C69.8333 58.9021 70.0499 58.7354 65.8166 58.7354C61.6166 58.7354 61.8333 58.9021 61.8333 55.6854V53.4021H59.1667H56.5V62.7355Z" fill="#C19696"/>
<path d="M35.8834 15.9511L33.8334 16.9845V20.3178C33.85 22.1512 33.9167 24.1678 33.9834 24.8012C34.1667 26.2179 34.9167 27.7512 35.8334 28.6512L36.5167 29.3179L37.8834 29.3012C40.1667 29.2845 42.3 28.3345 43.7333 26.7012C45.3667 24.8345 45.8666 23.0345 45.8 19.2678L45.75 16.8345L41.9167 15.8678C39.8167 15.3511 38.05 14.9178 38 14.9178C37.95 14.9178 37 15.3845 35.8834 15.9511Z" fill="#ECEC96"/>
<path d="M3.8335 29.4677C3.8335 29.6844 5.33349 30.3844 6.13348 30.551C6.66682 30.6677 9.1668 30.7344 12.5335 30.7344C17.9334 30.7344 18.0334 30.7344 17.6501 30.4177C16.4168 29.4677 16.5668 29.4844 9.9668 29.4344C6.58348 29.401 3.8335 29.4177 3.8335 29.4677Z" fill="#ECEC96"/>
<path d="M65.1663 29.5512C64.5163 29.6845 63.9496 29.9512 63.333 30.4345C62.933 30.7512 62.9996 30.7512 68.9163 30.7012C75.3162 30.6345 75.7496 30.5845 76.8329 29.7345C77.2495 29.4179 77.2329 29.4012 71.4996 29.4179C68.3329 29.4345 65.4829 29.4845 65.1663 29.5512Z" fill="#ECEC96"/>
<path d="M38.5831 33.652C38.5331 33.8353 38.3998 34.6187 38.2665 35.402L38.0165 36.8187L39.0998 37.902L40.1665 38.9854L40.9665 38.1853L41.7665 37.3853L41.4498 35.402L41.1165 33.4187L39.8831 33.3687C38.7665 33.3187 38.6498 33.352 38.5831 33.652Z" fill="#ECEC96"/>
<path d="M57.5332 39.2521L53.8333 43.7688V47.6188V51.4521L54.2166 51.1021C54.5666 50.7855 54.7832 50.7355 56.2166 50.7355H57.8332V49.1521V47.5521L58.8666 45.8521C59.4166 44.9188 61.2165 42.0688 62.8665 39.5354C64.4999 37.0021 65.8332 34.8687 65.8332 34.8187C65.8332 34.7687 64.7999 34.7354 63.5332 34.7354H61.2332L57.5332 39.2521Z" fill="#15C1C1"/>
<path d="M53.5997 54.2354C53.483 55.5854 52.833 57.7521 52.1164 59.1521C50.5331 62.3021 47.9997 64.8188 44.8331 66.4021L43.7498 66.9355L45.2497 65.3688C46.0831 64.5021 45.4997 65.0688 43.9831 66.6021C40.2831 70.3522 40.7831 70.3522 37.0331 66.6021C35.4998 65.0688 35.1831 64.7688 36.3331 65.9355L38.4164 68.0688H32.7831H27.1665V70.0688V72.0688H40.4998H53.833V62.5688C53.833 57.3354 53.7997 53.0687 53.7664 53.0687C53.733 53.0687 53.6664 53.5854 53.5997 54.2354Z" fill="#15C1C1"/>
<path d="M3.16675 76.068V77.4014H40.4999H77.833V76.068V74.7347H40.4999H3.16675V76.068Z" fill="#C1C1C1"/>
<path d="M20.4666 10.6354C20.4166 18.1521 20.4 18.3854 20.0666 18.8354C19.8833 19.0855 19.5166 19.4521 19.2666 19.6355C18.8166 19.9688 18.5833 19.9855 11.0667 20.0355C5.86669 20.0688 3.33337 20.1355 3.33337 20.2521C3.33337 20.6355 3.68337 21.0521 4.18337 21.2188C4.93337 21.4855 20.0833 21.4688 20.8333 21.2188C21.8166 20.8688 21.8333 20.7688 21.8333 12.1021C21.8333 6.81871 21.7666 4.1187 21.6499 3.75203C21.4833 3.25203 21.0666 2.90202 20.6833 2.90202C20.5666 2.90202 20.5 5.43537 20.4666 10.6354Z" fill="#ECC1C1"/>
<path d="M76.4663 8.96815C76.5996 12.5682 75.2663 15.5182 72.4496 17.8015C70.4496 19.4182 68.2163 20.1349 65.483 20.0349C63.683 19.9849 63.683 19.9849 64.2163 20.2682C66.0163 21.2516 68.9663 21.5516 70.9663 20.9849C74.0329 20.1015 76.5329 17.5849 77.4163 14.5182C77.9996 12.5182 77.6829 9.60149 76.6996 7.78481C76.4163 7.23481 76.3996 7.23481 76.4663 8.96815Z" fill="#1596EC"/>
<path d="M69.9663 9.85168L67.1663 12.6517L65.633 11.1517L64.083 9.65167L65.633 11.235L67.1663 12.8184L70.033 9.93501C71.6163 8.36833 72.883 7.06833 72.833 7.06833C72.783 7.06833 71.4996 8.31833 69.9663 9.85168Z" fill="#4096EC"/>
<path d="M76.3832 8.48465C76.3832 8.93465 76.4165 9.11799 76.4498 8.85132C76.4832 8.60132 76.4832 8.23465 76.4498 8.01798C76.4165 7.81798 76.3832 8.01798 76.3832 8.48465Z" fill="#4096EC"/>
<path d="M71.3332 12.5187L67.9165 15.9854L71.3832 12.5687C74.5831 9.40198 74.9165 9.06865 74.7831 9.06865C74.7665 9.06865 73.2165 10.6187 71.3332 12.5187Z" fill="#4096EC"/>
<path d="M76.3832 10.3177C76.3832 10.7677 76.4165 10.951 76.4498 10.6843C76.4832 10.4343 76.4832 10.0677 76.4498 9.85099C76.4165 9.65099 76.3832 9.85099 76.3832 10.3177Z" fill="#4096EC"/>
<path d="M64.1664 13.818C65.3164 14.968 66.2831 15.9014 66.3331 15.9014C66.3664 15.9014 65.4831 14.968 64.3331 13.818C63.1831 12.668 62.2164 11.7347 62.1664 11.7347C62.1331 11.7347 63.0164 12.668 64.1664 13.818Z" fill="#4096EC"/>
<path d="M75.8497 12.7675C75.0497 15.5008 72.233 18.3508 69.2997 19.4008C68.8164 19.5675 68.533 19.7175 68.6664 19.7175C69.083 19.7342 70.7164 19.0008 71.683 18.3508C72.933 17.5175 74.2663 16.1341 75.033 14.8675C75.6497 13.8508 76.2663 12.2841 76.133 12.1341C76.083 12.1008 75.9663 12.3841 75.8497 12.7675Z" fill="#4096EC"/>
<path d="M66.8329 19.9008L65.9163 20.0174H66.7496C67.2163 20.0341 67.7663 19.9674 67.9996 19.9008C68.5162 19.7341 68.1662 19.7341 66.8329 19.9008Z" fill="#4096EC"/>
<path d="M64.5497 20.018C64.7997 20.0513 65.1663 20.0513 65.383 20.018C65.583 19.9846 65.383 19.9513 64.9163 19.9513C64.4663 19.9513 64.283 19.9846 64.5497 20.018Z" fill="#4096EC"/>
<path d="M67.4997 2.91811C64.4164 3.25144 61.6331 5.16812 60.2997 7.90147C59.5331 9.50148 59.3164 10.4515 59.3164 12.1348C59.3331 14.6848 60.1831 16.7515 62.0164 18.5849C63.2497 19.8349 63.5997 19.9515 66.083 19.9182C68.8664 19.9015 71.183 18.9015 73.2497 16.8182C75.333 14.7515 76.333 12.4348 76.3497 9.65148C76.383 7.45147 76.233 6.8848 75.3997 5.93479C73.483 3.73478 70.533 2.61811 67.4997 2.91811ZM73.9163 8.06814L74.9163 9.08481L71.3997 12.5682C67.9164 16.0515 67.8997 16.0682 67.1664 16.0682C66.4664 16.0682 66.383 16.0182 64.2664 13.9015L62.0831 11.7348L63.1164 10.7015L64.1664 9.65148L65.6664 11.1515L67.1664 12.6515L69.9664 9.85148C71.4997 8.31814 72.783 7.06813 72.833 7.06813C72.883 7.06813 73.3663 7.51814 73.9163 8.06814Z" fill="#6B96EC"/>
<path d="M15.1666 34.8177C15.1666 34.8677 16.9666 37.7344 19.1666 41.201L23.1666 47.4844V49.1011V50.7344H24.8332C27.3999 50.7344 27.1666 49.8011 27.1666 59.7345V68.0679H32.5499C35.5165 68.0679 37.9998 68.0179 38.0665 67.9512C38.1165 67.8845 37.1999 66.8512 35.9999 65.6512C33.9165 63.5345 33.8332 63.4345 33.8332 62.7512C33.8332 62.2012 35.8665 49.4844 36.2499 47.5678C36.3332 47.2178 35.8332 46.4177 33.4999 43.1511C31.9332 40.951 30.5499 39.1344 30.4166 39.101C30.1832 39.051 28.2499 39.9677 28.0999 40.201C28.0666 40.2677 29.2999 41.8844 30.8665 43.8011C32.4165 45.7011 33.6665 47.2678 33.6332 47.3011C33.6165 47.3178 33.1499 47.6844 32.6165 48.1344C32.0999 48.5678 31.5499 48.9011 31.4332 48.8511C31.3165 48.8011 28.6332 45.6011 25.4832 41.7511L19.7499 34.7343H17.4666C16.2 34.7343 15.1666 34.7677 15.1666 34.8177Z" fill="#15ECEC"/>
<path d="M47.8332 42.6841C46.4165 44.6675 45.1165 46.4841 44.9665 46.7175C44.6832 47.1508 44.7165 47.4175 45.9165 54.5675C46.5998 58.6509 47.1665 62.3176 47.1665 62.7176C47.1665 63.4176 47.0998 63.5176 45.5498 65.1176L43.9165 66.7676L44.9998 66.2342C46.5498 65.4676 47.4165 64.8342 48.8165 63.5009C51.1998 61.2009 52.6665 58.5842 53.4331 55.2342C53.7831 53.7175 53.9665 43.6841 53.6331 44.0841C53.5165 44.2174 52.5998 45.3341 51.5998 46.5508C50.5998 47.7675 49.6831 48.8008 49.5665 48.8508C49.4498 48.9008 48.8998 48.5675 48.3831 48.1341C47.8498 47.6841 47.3832 47.3175 47.3665 47.3008C47.3332 47.2675 48.5831 45.7008 50.1331 43.8008C51.6998 41.8841 52.9331 40.2674 52.8998 40.2008C52.7831 40.0008 50.8831 39.0674 50.6331 39.0674C50.4998 39.0674 49.2498 40.6841 47.8332 42.6841Z" fill="#15ECEC"/>
<path d="M4.23347 2.85202C4.03348 2.88535 3.73348 3.06869 3.56681 3.26869C3.26681 3.58535 3.25015 4.08536 3.20015 11.8354L3.15015 20.0854L10.8668 20.0354C18.4667 19.9854 18.6001 19.9854 19.1667 19.6188C19.4834 19.4188 19.9001 19.0021 20.0834 18.7021C20.4001 18.1688 20.4167 17.8188 20.4667 10.4354L20.5167 2.73535L12.5501 2.75202C8.16679 2.76868 4.41681 2.81868 4.23347 2.85202ZM8.50012 6.73537V8.06871H7.16679H5.83347V6.73537V5.40203H7.16679H8.50012V6.73537ZM19.1667 6.73537V8.06871H15.1668H11.1668V6.73537V5.40203H15.1668H19.1667V6.73537ZM19.1667 12.0687V13.4021H12.5001H5.83347V12.0687V10.7354H12.5001H19.1667V12.0687ZM19.1667 17.4021V18.7354H12.5001H5.83347V17.4021V16.0688H12.5001H19.1667V17.4021Z" fill="#ECECEC"/>
</svg>
