<svg width="80" height="81" viewBox="0 0 80 81" fill="none" xmlns="http://www.w3.org/2000/svg">
<g clip-path="url(#clip0_81_44259)">
<path d="M38.3594 0.365234C37.6406 0.693359 12.5 17.8496 11.8125 18.4902C10.6563 19.5527 10.2813 21.5996 11 23.1152C11.4219 24.0371 12.375 24.9434 13.2188 25.2402C14.1406 25.5527 15.5781 25.4902 16.3906 25.0996C16.7813 24.9121 17.1094 24.7559 17.1406 24.7559C17.1719 24.7559 17.1875 26.4434 17.1875 28.5059C17.1875 30.5684 17.1563 32.2559 17.1094 32.2559C17.0625 32.2559 13.9844 31.0059 10.2656 29.4902C4.29689 27.0371 3.40626 26.7246 2.64064 26.7246C1.95314 26.7246 1.62501 26.8027 1.14064 27.1309C-0.0937372 27.9434 1.28063e-05 26.3809 1.28063e-05 47.4121C1.28063e-05 68.459 -0.0937372 66.8809 1.14064 67.6934C1.71876 68.0684 1.90626 68.1152 3.18751 68.1152C5.53126 68.0996 6.54689 67.4434 7.68751 65.1621C8.03126 64.4746 8.34376 63.8809 8.35939 63.8496C8.37501 63.8184 8.85939 64.0215 9.40626 64.3027L10.4219 64.8027L10.3438 65.8496C10.2656 67.0527 10.4688 67.8027 11.125 68.7871C11.9844 70.0371 13.9844 70.7871 15.4688 70.4121C16.0156 70.2715 16.0938 70.2871 16.1875 70.584C16.3594 71.1152 17.5313 72.2715 18.3125 72.6621C19.2031 73.1152 20.625 73.2871 21.4375 73.0684C22.0156 72.9121 22.0313 72.9121 22.2969 73.4746C22.6719 74.2559 23.5469 75.084 24.4531 75.5371C25.0781 75.834 25.5 75.9121 26.5313 75.9121C27.7969 75.9277 27.8281 75.9434 28.1094 76.4121C28.5313 77.0996 29.5938 77.959 30.2969 78.1621C31.1094 78.4121 32.5469 78.3965 33.1875 78.1309C33.4844 78.0059 33.9844 77.6621 34.3281 77.3652L34.9375 76.8027L36.5 78.0527C38.5313 79.709 39.2813 80.0684 40.7031 80.0684C42.5156 80.0684 44.1406 79.0215 44.7656 77.4434L45 76.8652L46.1406 76.8496C46.9688 76.8496 47.4375 76.7559 47.9063 76.5215C48.7656 76.0684 49.6094 75.084 49.9375 74.1621L50.2188 73.3809L51.125 73.2871C52.3281 73.1621 53.5781 72.5684 54.2969 71.7715C54.875 71.1152 55.4531 70.0371 55.4688 69.584C55.4688 69.3809 55.7031 69.3496 57 69.3496C58.7813 69.3652 59.5469 69.084 60.6875 68.0371C61.75 67.0527 62.2656 65.8965 62.2656 64.4434C62.2656 63.8027 62.2188 63.0527 62.1406 62.8027L62.0313 62.334L66.125 60.6465C70 59.0371 70.2344 58.959 70.4219 59.2402C70.5469 59.3965 71.1406 60.459 71.7344 61.5996C73.0625 64.0996 73.3594 64.459 74.5 65.0215C75.2813 65.3965 75.5781 65.459 76.8125 65.459C78.0781 65.459 78.2969 65.4121 78.8594 65.0371C80.0781 64.2246 80 65.6621 80 45.959V28.3965L79.6406 27.8809C79.1875 27.1777 78.4844 26.7871 77.5469 26.6934C76.8594 26.6309 76.1719 26.8652 69.8438 29.2559L62.8906 31.8965L62.8438 28.3809C62.8281 26.4434 62.8281 24.834 62.8594 24.8027C62.8906 24.7715 63.2656 24.8965 63.6719 25.084C64.2813 25.3496 64.6406 25.4121 65.5313 25.3496C66.7656 25.2715 67.375 25.0059 68.1094 24.2715C69.6563 22.7402 69.75 20.2402 68.3281 18.6934C67.7031 18.0059 42.7344 0.865234 41.6406 0.365234C40.8125 -0.0253906 39.2031 -0.0253906 38.3594 0.365234ZM40.6406 2.88086C41.5625 3.38086 65.9375 20.1621 66.2969 20.5527C66.8281 21.1309 66.8281 21.6309 66.3125 22.2402C65.8438 22.8184 65.1719 22.8809 64.4531 22.4434C64.2031 22.2871 58.7188 18.5371 52.2656 14.1152C42.2813 7.27148 40.4688 6.08398 40 6.08398C39.5313 6.08398 37.6719 7.31836 27.3125 14.3965C17.1406 21.3965 15.0938 22.7246 14.6563 22.7246C13.7031 22.7246 13.0625 21.7715 13.4219 20.8809C13.5781 20.5059 21.6563 14.8652 37.3125 4.24023C39.5313 2.74023 40 2.55273 40.6406 2.88086ZM50.0781 15.7402L59.9219 22.4902L59.9688 27.9277L60 33.3652L59.5469 33.9434C58.9844 34.6777 58.75 35.3809 58.75 36.3496C58.75 36.959 58.9063 37.4121 59.6094 38.7559C60.0938 39.6777 60.4531 40.459 60.4063 40.4902C60.375 40.5371 59.4219 40.9121 58.2969 41.334C55.9844 42.1934 55.0625 42.3027 53.9531 41.8027C53.5938 41.6309 51.7813 40.3965 49.9375 39.0527L46.5625 36.5996V32.6309C46.5625 28.1934 46.5469 28.084 45.5156 27.3027L44.9531 26.8652H40H35.0469L34.4844 27.3027C33.4375 28.0996 33.4375 28.1152 33.4375 33.334V38.0215L32.7031 39.1777L31.9531 40.3496L31.0938 40.459C30.625 40.5059 29.1875 40.7715 27.8906 41.0215C26.3438 41.334 25.3281 41.459 24.9219 41.3965C23.7813 41.209 22.2813 40.8184 21.2813 40.4121C20.1719 39.9746 20.2031 40.084 20.8438 38.584C21.5 37.0215 21.2813 35.2402 20.2969 34.1934C20.0156 33.8809 20 33.6465 20.0313 28.1777L20.0781 22.4902L29.9219 15.7402C35.3438 12.0215 39.875 8.99023 40 8.99023C40.125 8.99023 44.6719 12.0215 50.0781 15.7402ZM44.0313 32.084L44.0625 34.7871L43.7188 34.6777C40.4844 33.6465 39.1406 33.7559 36.0625 35.3496C35.9063 35.4277 35.8906 29.5371 36.0469 29.3809C36.1094 29.334 37.9063 29.3027 40.0625 29.3184L43.9844 29.3652L44.0313 32.084ZM77.3438 46.0059V62.7246H76.5625C75.9375 62.7246 75.6875 62.6465 75.4219 62.3809C75.2344 62.1777 71.9531 56.2402 68.1563 49.1934C60.7813 35.5059 60.9375 35.8496 61.7813 35.3027C61.9531 35.1934 65.375 33.8496 69.375 32.334C73.375 30.8027 76.75 29.5059 76.875 29.4277C77 29.3496 77.1563 29.2871 77.2344 29.2871C77.2969 29.2871 77.3438 36.8027 77.3438 46.0059ZM10.2188 32.4277C14.2656 34.0684 17.7656 35.5059 18 35.6309C18.2344 35.7559 18.4844 36.0684 18.5938 36.3809C18.7656 36.9121 18.6094 37.2402 11.7969 50.8809C7.95314 58.5527 4.67189 64.959 4.50001 65.1152C4.29689 65.2871 3.92189 65.3809 3.42189 65.3809H2.65626V47.4121C2.65626 37.5215 2.70314 29.4434 2.75001 29.4434C2.81251 29.4434 6.17189 30.7871 10.2188 32.4277ZM42.2031 36.8652C42.5938 37.0059 44.8125 38.5059 47.4688 40.4434C49.9844 42.2871 52.4063 43.9434 52.8281 44.1309C53.8594 44.5684 55.1875 44.7715 56.1719 44.6621C56.6094 44.5996 57.9844 44.1777 59.2344 43.7246C60.5 43.2559 61.5938 42.8809 61.6719 42.8809C61.8906 42.8809 69.1094 56.3496 68.9531 56.4746C68.6563 56.7402 60.2969 60.0996 60.125 60.0215C60.0156 59.9746 55.5781 56.0996 50.2656 51.4121C44.9531 46.7246 40.4844 42.8652 40.3438 42.8496C39.4063 42.7715 38.75 43.2715 38.75 44.0996C38.75 44.4902 38.875 44.7402 39.2031 45.0527L39.6719 45.4902L37.0313 48.4434C35.5781 50.0684 34.1719 51.5527 33.8906 51.7402C32.5 52.7246 30.4844 51.5215 30.6719 49.834C30.7656 49.084 34.0156 41.8496 34.875 40.4902C35.8125 39.0371 37.2656 37.6152 38.3594 37.084C39.125 36.709 39.5 36.6309 40.4063 36.6309C41.0156 36.6309 41.8125 36.7402 42.2031 36.8652ZM20.1406 42.7246C21.6563 43.3496 23.5625 43.834 24.9375 43.9277C25.7813 43.9902 26.5313 43.9121 28.1094 43.5996C29.2344 43.3652 30.2656 43.1934 30.3906 43.2246C30.5469 43.2559 30.2969 43.9434 29.4375 45.8652C28.7969 47.2871 28.2188 48.7715 28.1563 49.1465C27.875 50.6934 28.4844 52.4902 29.5781 53.4434C30.6406 54.3496 31.1719 54.5215 32.8125 54.5215C34.9219 54.5215 35.1406 54.3652 38.625 50.459C40.2031 48.709 41.5156 47.2715 41.5625 47.2715C41.6094 47.2559 45.5938 50.7402 50.4219 54.9902C59.9375 63.3809 59.8281 63.2715 59.6094 64.6465C59.3281 66.2402 57.2656 67.209 55.9219 66.3809C55.8125 66.3184 54.0156 64.7871 51.9531 62.9746C49.8906 61.1777 47.9688 59.5059 47.6875 59.2559C46.6719 58.3809 45.3906 58.8965 45.5 60.1621C45.5469 60.7246 45.7344 60.9277 48.9844 63.7871C50.875 65.459 52.5469 67.0371 52.7031 67.3027C53.6406 68.9902 51.9531 71.0215 50.0313 70.5059C49.5781 70.3809 48.75 69.6465 46.3125 67.2402C44.2188 65.1621 43.0625 64.1309 42.8438 64.1309C42.0313 64.1309 41.4063 64.7559 41.4063 65.5684C41.4063 65.7871 42.4375 66.9434 44.4531 68.9746C47.2969 71.8496 47.5 72.0996 47.5 72.6309C47.5 73.6777 46.6094 74.4434 45.6719 74.209C45.4219 74.1465 44.5313 73.4277 43.5781 72.4746C42.1094 71.0371 41.8594 70.8496 41.375 70.8496C40.5938 70.8496 40.0938 71.2871 40.0938 71.9902C40.0938 72.459 40.25 72.709 41.2188 73.7246C42.2813 74.8496 42.4375 75.1309 42.375 75.9277C42.2969 76.8027 41.5469 77.4121 40.5625 77.4121C40.1094 77.4121 39.7188 77.1621 38.25 75.9902C37.2813 75.209 36.3906 74.4746 36.2813 74.3652C36.1094 74.209 36.1406 74.0371 36.4688 73.3652C37.6719 70.9902 37.4844 69.1934 35.875 67.7715C35.125 67.0996 34.2969 66.7871 33.3438 66.7871C32.75 66.7871 32.7188 66.7715 32.4531 65.9902C32.1094 65.0527 31.125 63.9277 30.2344 63.4746C29.8281 63.2559 29.2031 63.1152 28.4219 63.0684L27.25 63.0059L27.0625 62.3496C26.6719 60.8652 25.3594 59.5371 23.9063 59.1309C22.6406 58.7715 21.0625 59.084 19.9219 59.8965L19.2656 60.3652L18.8906 59.9746C17.9688 58.9746 16.3125 58.5996 14.8281 59.0215C13.6719 59.3652 12.7813 60.1621 12.1875 61.3965L11.7031 62.4121L10.625 61.8652C10.0156 61.5684 9.53126 61.2871 9.53126 61.2402C9.53126 61.1934 18.9688 42.2402 18.9844 42.2559C18.9844 42.2559 19.5 42.4746 20.1406 42.7246ZM16.6406 61.5371C17.3594 61.8496 17.7188 62.4277 17.6094 63.1621C17.5625 63.4746 17.1406 64.5527 16.6719 65.5527C15.9219 67.1309 15.75 67.3965 15.25 67.6309C14.5469 67.959 13.7813 67.7715 13.2813 67.1465C12.8125 66.5371 12.8906 66.0215 13.7969 64.0371C14.6406 62.1621 15.0938 61.5371 15.6719 61.4277C15.8594 61.3965 16.0313 61.3496 16.0625 61.334C16.0781 61.334 16.3438 61.4121 16.6406 61.5371ZM23.8125 61.959C24.3281 62.3652 24.6875 63.0371 24.6875 63.6152C24.6875 64.1465 22.3125 69.3652 21.8438 69.8652C21.6563 70.0684 21.2344 70.3027 20.9063 70.3965C20.1094 70.5996 19.0469 70.1621 18.6875 69.459C18.2344 68.6152 18.375 68.0215 19.625 65.2559C21.0313 62.1309 21.4531 61.6309 22.6406 61.6309C23.1719 61.6309 23.5156 61.7246 23.8125 61.959ZM29.0781 65.7715C29.6719 66.084 30.1563 66.8809 30.1563 67.5527C30.1563 68.0371 28.75 71.4434 28.1563 72.3809C27.4531 73.4902 25.5156 73.4434 24.7656 72.3027C24.2813 71.5684 24.4063 70.7871 25.3906 68.6777C26.4844 66.2871 26.6094 66.0996 27.2344 65.7871C27.875 65.4746 28.4844 65.4746 29.0781 65.7715ZM34.3438 69.8496C34.5313 70.0684 34.6875 70.4434 34.6875 70.6934C34.6875 71.3027 32.7656 75.3027 32.375 75.5215C31.4531 76.0059 30.3125 75.3965 30.3125 74.4277C30.3125 73.6621 32.1563 69.7871 32.6406 69.5059C33.1875 69.209 33.9063 69.3496 34.3438 69.8496Z" fill="#292E40"/>
<path d="M38.2813 13.7402C36.6563 14.2715 35.2031 15.9434 34.8281 17.6934C34.3594 20.0059 35.5781 22.4434 37.7344 23.5059C38.3906 23.834 38.7344 23.8965 40 23.8965C41.75 23.8965 42.6094 23.5527 43.7188 22.4434C44.7656 21.4121 45.2188 20.2715 45.2344 18.7402C45.2344 17.6309 45.1719 17.3652 44.7188 16.4434C44.1563 15.3027 43.3594 14.5059 42.2031 13.9434C41.2969 13.5059 39.3125 13.3965 38.2813 13.7402ZM40.7656 16.1621C41.8125 16.459 42.6563 17.5684 42.6563 18.6621C42.6563 20.959 40.0156 22.2871 38.3438 20.8184C37.6094 20.1777 37.3438 19.6152 37.3438 18.709C37.3438 16.8965 39.0156 15.6621 40.7656 16.1621Z" fill="#292E40"/>
<path d="M39.6406 2.83405C39.4844 2.88093 39.375 2.95905 39.4063 3.03718C39.4375 3.1153 44.8281 6.84968 51.4063 11.3497C60.5 17.5684 63.4219 19.6466 63.6563 20.0528C63.8438 20.3653 63.9688 20.8809 63.9688 21.3497C63.9844 22.0841 64 22.1153 64.6563 22.4278C65.2344 22.7091 65.3906 22.7247 65.7969 22.5684C66.0469 22.4591 66.3281 22.2403 66.4063 22.0841C66.625 21.6934 66.5938 20.9591 66.375 20.6622C65.9219 20.0841 40.1563 2.6153 39.9531 2.7403C39.9375 2.75593 39.7969 2.78718 39.6406 2.83405Z" fill="#C11515"/>
<path d="M41.4062 31.6776V33.912L42.4688 34.1933C43.0469 34.3495 43.6094 34.5058 43.7188 34.5526C43.8594 34.6151 43.9062 34.037 43.9062 32.037V29.4433H42.6562H41.4062V31.6776Z" fill="#C11515"/>
<path d="M39.6094 9.22478C39.3281 9.44353 39.3281 9.47478 39.5469 9.64666C39.6875 9.75603 43.75 12.5373 48.5781 15.8342L57.3438 21.8498V27.9748V34.0998L56.9688 34.3342C56.7813 34.4748 56.5 34.8185 56.3438 35.1154C55.8906 36.0998 56 36.6623 57.125 38.8029C57.7031 39.881 58.2344 40.8498 58.3125 40.9592C58.4219 41.0998 58.6719 41.0685 59.3438 40.8185C59.8438 40.6467 60.25 40.4748 60.2813 40.4435C60.3125 40.4279 59.9688 39.6935 59.5313 38.8342C58.3438 36.5529 58.3281 35.381 59.4531 33.8967L60 33.1935V27.9123V22.6467L50.0625 15.8498C44.5938 12.1154 40.0781 9.03728 40.0156 9.02166C39.9688 9.00603 39.7813 9.09978 39.6094 9.22478Z" fill="#EC6B15"/>
<path d="M29.6406 16.0527L20 22.6465V28.1465V33.6621L20.5312 34.3496C21.125 35.1465 21.4844 36.3652 21.3594 37.2715C21.3125 37.5996 21.0625 38.334 20.8125 38.8965C20.375 39.8184 20.3594 39.9277 20.5938 40.0527C21.2188 40.3809 23.3281 41.0215 24.3438 41.1934C25.375 41.3652 25.6406 41.3496 28.1562 40.8809C29.6406 40.6152 31.125 40.3496 31.4531 40.3027C31.7656 40.2559 32.0312 40.1621 32.0312 40.0996C32.0312 40.0371 32.3125 39.5684 32.6562 39.0527L33.2656 38.1152L33.2812 33.5059C33.2812 29.3809 33.3125 28.834 33.5781 28.2715C34.2656 26.7559 34.7031 26.6465 40 26.6465C45.2969 26.6465 45.7344 26.7559 46.4219 28.2715C46.6719 28.8184 46.7188 29.3496 46.7188 32.7402V36.584L50.0781 39.0371C51.9375 40.3965 53.6875 41.5996 53.9844 41.7246C54.7812 42.0527 56.2188 42.0059 57.2969 41.584C57.8125 41.3965 58.25 41.1934 58.2656 41.1152C58.2812 41.0527 57.7969 40.0527 57.2031 38.9121C56 36.6621 55.875 36.1152 56.3438 35.1152C56.5 34.8184 56.7812 34.4746 56.9688 34.334L57.3438 34.0996V27.9746V21.834L50.5938 17.209C46.875 14.6777 42.7969 11.8809 41.5469 11.0215L39.2656 9.45898L29.6406 16.0527ZM42.2344 13.8652C43.2969 14.3496 44.3281 15.3496 44.8438 16.3965C45.1875 17.0684 45.2344 17.3965 45.2344 18.7402C45.2344 20.1465 45.1875 20.3809 44.7969 21.1309C44.2344 22.209 43.2656 23.1465 42.1875 23.6465C41.4844 23.9746 41.0938 24.0527 40 24.0527C38.8438 24.0527 38.5469 23.9902 37.75 23.5996C35.8438 22.6621 34.8438 21.1309 34.7188 19.0215C34.6406 17.5371 34.8906 16.6309 35.7031 15.5215C37.1406 13.5371 39.9531 12.8184 42.2344 13.8652Z" fill="#EC9615"/>
<path d="M26.4219 11.7869C19.4219 16.5838 13.6406 20.615 13.5781 20.7244C13.3906 21.0056 13.4062 21.74 13.5937 22.0994C13.7969 22.4744 14.6094 22.74 15.0469 22.5838C15.25 22.5056 20.7656 18.7869 27.2969 14.3025C33.8438 9.81814 39.375 6.09939 39.6094 6.00564C39.9062 5.89627 40.1562 5.91189 40.5156 6.06814C40.7969 6.19314 46.1562 9.80252 52.4219 14.0994C60.9375 19.9431 63.8594 21.865 63.9531 21.7088C64.1562 21.3181 63.75 20.0994 63.2188 19.5994C62.8125 19.1931 39.2812 3.00564 39.1719 3.05252C39.1562 3.05252 33.4219 6.99002 26.4219 11.7869Z" fill="#EC4040"/>
<path d="M36.0938 32.334V35.209L37.2969 34.6309C38.3281 34.1465 38.6875 34.0527 39.875 34.0059L41.25 33.9434V31.6934V29.4434H38.6719H36.0938V32.334Z" fill="#EC4040"/>
<path d="M75.8594 29.9121L74.7656 30.3496L74.7188 45.7559L74.6875 61.1621L75.0781 61.8027C75.5156 62.4746 75.9688 62.7246 76.8125 62.7246H77.3438V46.084C77.3438 32.8652 77.2969 29.4434 77.1562 29.459C77.0469 29.4746 76.4688 29.6777 75.8594 29.9121Z" fill="#154096"/>
<path d="M15.2656 34.9434C15.8594 35.584 16.1562 36.4746 16.0156 37.2246C15.9688 37.5371 12.9375 43.7246 9.28125 50.959C3.70312 62.0215 2.65625 64.2246 2.65625 64.7715V65.4277L3.4375 65.3496C3.85938 65.3027 4.32812 65.1777 4.46875 65.0527C4.84375 64.7559 18.5938 37.1621 18.5938 36.7246C18.5938 36.0996 18.1094 35.7246 16.5 35.0684C15.6406 34.7246 14.9062 34.4434 14.8594 34.4434C14.8125 34.4434 15 34.6777 15.2656 34.9434Z" fill="#154096"/>
<path d="M2.65625 46.8181C2.65625 56.2869 2.6875 63.99 2.73438 63.9431C2.78125 63.8963 2.8125 56.1931 2.8125 46.8181C2.8125 33.2713 2.84375 29.7713 3 29.7088C3.125 29.6619 3.09375 29.615 2.9375 29.615C2.67188 29.5994 2.65625 30.5213 2.65625 46.8181Z" fill="#404096"/>
<path d="M15.9688 36.7868C15.9688 37.0837 16 37.2087 16.0469 37.0525C16.0781 36.9118 16.0781 36.6618 16.0469 36.5056C16 36.365 15.9688 36.49 15.9688 36.7868Z" fill="#404096"/>
<path d="M10.5469 48.1934C8.95314 51.3652 7.68751 53.9746 7.73439 53.9746C7.78126 53.9746 9.10939 51.3652 10.7031 48.1934C12.2969 45.0059 13.5625 42.4121 13.5156 42.4121C13.4688 42.4121 12.1406 45.0059 10.5469 48.1934Z" fill="#404096"/>
<path d="M40.7969 36.9119C41.7969 37.6775 48.125 42.2556 48.6719 42.5994C49.4219 43.0838 50.3281 43.3963 50.8125 43.3181C51.0625 43.2869 50.1875 42.5681 47.1719 40.3806C43.0156 37.3494 42.2344 36.8806 41.1094 36.7088L40.4062 36.615L40.7969 36.9119Z" fill="#ECC196"/>
<path d="M60.5156 43.381L59.6875 43.7091L60.4531 45.131C60.875 45.9123 62.5 48.9123 64.0469 51.7873C65.5938 54.6623 66.8125 57.0529 66.75 57.1154C66.6875 57.1623 65.9844 57.4748 65.1875 57.8029C64.3906 58.131 63.7656 58.4279 63.7969 58.4591C63.8594 58.506 68.75 56.5216 68.875 56.3966C68.9062 56.3654 67.3281 53.3498 65.3594 49.6935C63.0781 45.4279 61.7188 43.0529 61.5625 43.0529C61.4375 43.0529 60.9531 43.2091 60.5156 43.381Z" fill="#ECC196"/>
<path d="M28.7031 43.584C28.2031 43.6934 27.7812 43.8027 27.75 43.834C27.4844 44.1465 25.4375 49.0527 25.3594 49.5527C25.0937 51.5059 26.6562 53.334 28.5781 53.3496C29.2187 53.3496 29.25 53.334 29.0312 53.0684C28.3281 52.2715 28.0469 51.4277 28.0469 49.9902V48.584L29.25 45.959L30.4375 43.3496L30.0312 43.3652C29.7969 43.3809 29.2031 43.4746 28.7031 43.584Z" fill="#ECC196"/>
<path d="M41.1875 47.8652L40.7656 48.3027L48.4844 55.1152C55.5781 61.3652 56.2344 61.9902 56.5625 62.7558C56.9688 63.6933 56.9375 65.1152 56.5 65.959L56.25 66.459L56.7812 66.5683C58.125 66.8183 59.5312 65.5996 59.5312 64.1777C59.5312 63.959 59.4219 63.5527 59.2812 63.2715C59.125 62.9277 56.1719 60.2246 50.7969 55.4746C46.25 51.4902 42.3281 48.0371 42.0781 47.8183L41.6094 47.4277L41.1875 47.8652Z" fill="#ECC196"/>
<path d="M61.875 59.162C61.0625 59.5057 60.3281 59.8495 60.2344 59.9276C60.1563 60.0057 60.8594 59.7557 61.7969 59.3651C62.7344 58.9745 63.5313 58.6151 63.5781 58.5682C63.75 58.412 63.25 58.5682 61.875 59.162Z" fill="#ECC196"/>
<path d="M10.8437 60.3652C10.4844 60.5215 10.1406 60.7402 10.0937 60.834C10.0312 60.9277 9.90624 60.959 9.81249 60.9121C9.70312 60.8496 9.68749 60.8809 9.74999 60.9746C9.81249 61.084 9.76562 61.1621 9.65624 61.1621C9.54687 61.1621 9.95312 61.3965 10.5469 61.6934L11.6406 62.209L12.1406 61.2559C12.4219 60.7246 12.6406 60.2559 12.6562 60.1777C12.6562 59.959 11.4844 60.084 10.8437 60.3652Z" fill="#ECC196"/>
<path d="M41.0938 73.8965C41.5625 74.3652 41.9844 74.7559 42.0156 74.7559C42.0625 74.7559 41.7188 74.3652 41.25 73.8965C40.7813 73.4277 40.3594 73.0371 40.3281 73.0371C40.2813 73.0371 40.625 73.4277 41.0938 73.8965Z" fill="#ECC196"/>
<path d="M2.8125 46.6464C2.8125 55.9433 2.84375 63.5214 2.875 63.4901C2.89062 63.4589 5.85938 57.5839 9.4375 50.4589C16.5156 36.3339 16.2969 36.8651 15.625 35.5526C15.4531 35.2089 15.0938 34.8026 14.8125 34.6308C14.3594 34.3495 3.76562 29.9901 3.09375 29.8026C2.82812 29.7245 2.8125 30.5995 2.8125 46.6464Z" fill="#4040C1"/>
<path d="M68.4375 32.8027C65.0469 34.0996 62.1094 35.2559 61.9219 35.3652C61.3906 35.6309 61.2969 36.2715 61.6719 36.9277C61.8437 37.2402 64.8281 42.7559 68.2969 49.209L74.6094 60.9277L74.6562 53.2246C74.6719 48.9746 74.6719 42.1152 74.6562 37.9746L74.6094 30.4277L68.4375 32.8027Z" fill="#4040C1"/>
<path d="M39.2344 36.8809C38.1406 37.1777 37.6094 37.5059 36.5312 38.6152C35.2344 39.959 34.4531 41.2871 32.5312 45.584C30.4844 50.1152 30.4375 50.3809 31.3906 51.334C31.9062 51.8652 32.0937 51.9434 32.6875 51.9434C33.1719 51.9434 33.5469 51.834 33.875 51.584C34.2656 51.3184 38.25 46.9902 39.2031 45.8027C39.375 45.584 39.3594 45.4746 39 45.0527C38.5469 44.5059 38.4844 44.0059 38.8281 43.3652C39.0781 42.8496 39.3437 42.7246 40.0937 42.7246C40.5625 42.7246 41.5312 43.5215 49.9531 50.959C55.0937 55.4746 59.4687 59.3496 59.7031 59.5527L60.0937 59.9121L63.4531 58.5215C65.6562 57.5996 66.7812 57.0527 66.75 56.9121C66.7187 56.8027 65.1094 53.7871 63.1875 50.209L59.6719 43.6934L58.4687 44.1777C57.3594 44.6309 57.1094 44.6621 55.4531 44.6777C53.6719 44.6777 53.6406 44.6777 52.4219 44.0684C51.7344 43.7246 50.8594 43.3965 50.4844 43.3184C49.3594 43.1152 48.7344 42.7246 44.4531 39.5996C42.2187 37.9746 40.3281 36.6309 40.2344 36.6465C40.1562 36.6465 39.7031 36.7559 39.2344 36.8809Z" fill="#ECECC1"/>
<path d="M14.3437 51.834C11.5937 57.3652 9.81249 61.0996 10.0312 60.8965C10.5625 60.3965 11.5156 60.0371 12.1875 60.084C12.6406 60.1152 12.8906 60.0371 13.2812 59.709C14.8125 58.4121 17.2031 58.3809 18.6719 59.6465L19.2656 60.1621L20.0156 59.6621C21.2187 58.8652 22.625 58.6465 24.0156 59.0527C25.5 59.4902 26.7969 60.8184 27.1875 62.2715L27.3437 62.8496L28.4062 62.9121C30.4844 63.0215 32.0781 64.3027 32.7031 66.334C32.7656 66.5059 33.0469 66.6152 33.6562 66.6777C34.7031 66.7871 35.9375 67.4277 36.5 68.1465C37.5469 69.5215 37.6406 70.9902 36.7969 72.9277C36.5 73.6152 36.2969 74.2402 36.3594 74.2871C36.4375 74.3496 37.2812 75.0371 38.25 75.8184C39.8594 77.1309 40.0781 77.2559 40.6875 77.2559C41.4219 77.2559 41.9375 76.8965 42.2031 76.1934C42.4531 75.5371 42.2344 75.0684 41.1094 73.8809C39.9687 72.6934 39.7812 72.2402 40.0937 71.5059C40.3281 70.9434 40.7344 70.6934 41.4219 70.6934C41.8281 70.6934 42.1719 70.959 43.6719 72.4121C45.5156 74.209 45.8281 74.3652 46.6094 73.9434C47.1406 73.6621 47.3281 73.3184 47.3437 72.6621C47.3437 72.084 47.2187 71.9277 44.3906 69.0684C42.6094 67.2871 41.3906 65.9121 41.3281 65.6777C41.1094 64.7871 42.1406 63.8027 43 64.0527C43.2031 64.1152 44.7344 65.5215 46.4062 67.1777C49.7344 70.4746 50.1719 70.7559 51.2812 70.3965C52.5469 69.9746 53.2031 68.4434 52.5937 67.3496C52.4375 67.084 50.8281 65.5684 48.9844 63.9746C47.1562 62.3809 45.5781 60.9277 45.4844 60.7246C45.2187 60.1777 45.2812 59.4746 45.625 59.1309C46.0156 58.7402 46.6562 58.584 47.125 58.7559C47.3281 58.834 49.3906 60.5684 51.7344 62.6152C54.0781 64.6621 56.0625 66.3027 56.1562 66.2715C56.4687 66.1777 56.7812 65.3184 56.8437 64.4121C56.9062 63.6621 56.8437 63.3652 56.5 62.6777C56.1406 61.9277 55.2187 61.0684 48.5 55.1309C44.3125 51.4434 40.8437 48.4277 40.7812 48.4277C40.7187 48.4277 39.6406 49.5684 38.375 50.959C37.125 52.3496 35.8594 53.6621 35.5781 53.8809C34.8437 54.4434 33.8594 54.7559 32.8281 54.7559C31.6562 54.7559 30.9531 54.5371 30 53.8965C29.4062 53.4902 29.0156 53.3496 28.5312 53.3496C27.2187 53.334 25.8125 52.2715 25.4687 51.0059C25.1406 49.8652 25.2656 49.3184 26.4844 46.584C27.1406 45.1309 27.6562 43.9121 27.625 43.8965C27.5937 43.8652 27.1562 43.9121 26.6406 44.0059C25.0312 44.2715 22.7344 43.8652 20.1875 42.8809L19.0469 42.4434L14.3437 51.834Z" fill="#ECECC1"/>
<path d="M15.5469 61.6155C15.0312 61.8342 14.75 62.2561 13.9219 64.0686C12.8906 66.3186 12.8906 66.9592 13.9062 67.4905C15 68.053 15.5469 67.6155 16.6562 65.2561C17.7344 62.9592 17.75 62.2405 16.7187 61.7092C16.2187 61.4436 16.0156 61.428 15.5469 61.6155Z" fill="#ECECC1"/>
<path d="M21.9531 61.8498C21.25 62.1623 21.0625 62.4435 19.8437 65.0685C18.375 68.2248 18.3437 68.3342 18.7187 69.1779C19.25 70.381 20.6719 70.7092 21.6406 69.8654C22.2031 69.3654 24.5312 64.2717 24.5312 63.5217C24.5312 62.8029 24.0625 62.1467 23.3437 61.8498C22.7187 61.5842 22.5469 61.5842 21.9531 61.8498Z" fill="#ECECC1"/>
<path d="M27.1406 65.9747C26.7187 66.2247 25.9062 67.7247 24.8437 70.1778C24.4062 71.1935 24.5 71.8966 25.1562 72.5372C25.9844 73.3653 27.4219 73.2716 28.0156 72.3653C28.6562 71.3497 30 68.1153 30 67.5528C30 66.0841 28.3906 65.2091 27.1406 65.9747Z" fill="#ECECC1"/>
<path d="M32.6719 69.6932C32.2031 70.0369 30.4688 73.6775 30.4688 74.3494C30.4688 75.3963 31.8438 75.9588 32.5156 75.1775C33 74.6463 34.5312 71.1932 34.5312 70.6775C34.5312 70.115 33.9219 69.4432 33.4062 69.4432C33.2031 69.4432 32.875 69.5525 32.6719 69.6932Z" fill="#ECECC1"/>
</g>
<defs>
<clipPath id="clip0_81_44259">
<rect width="80" height="80" fill="white" transform="translate(0 0.0683594)"/>
</clipPath>
</defs>
</svg>
