<svg width="81" height="81" viewBox="0 0 81 81" fill="none" xmlns="http://www.w3.org/2000/svg">
<path d="M58.3125 0.271343C58.1875 0.380718 57.6562 0.927593 57.1562 1.47447C56.6406 2.03697 55.8437 2.89634 55.375 3.39634L54.5312 4.28697L52.0625 3.50572C48.0781 2.24009 48.0937 2.24009 47.25 6.16197L46.6562 8.89634L44.0781 9.45884C41.3594 10.0526 40.9219 10.2088 40.6562 10.6932C40.375 11.2088 40.4844 11.8338 41.2812 14.3182L42.0625 16.7557L41.0937 17.662C39.3125 19.3026 38.0312 20.6932 37.9375 21.0682C37.7656 21.7401 38.0937 22.1776 40.1719 24.0526C41.2969 25.0838 42.2187 25.9276 42.2187 25.9276C42.2187 25.9432 41.875 27.0682 41.4375 28.412C40.5 31.3495 40.4531 31.9745 41.125 32.3807C41.375 32.537 42.7031 32.8963 44.0469 33.1932C45.4062 33.4745 46.5781 33.7713 46.6562 33.8338C46.75 33.912 47.0781 35.1932 47.4062 36.662C48.0469 39.5995 48.2187 39.912 49.1406 39.912C49.4062 39.912 50.75 39.5526 52.1094 39.1151L54.6094 38.3182L55.0312 38.7713C55.25 39.0057 56.125 39.9588 56.9687 40.8807C57.8281 41.8182 58.6406 42.5682 58.8281 42.5995C59.5469 42.7245 60.0469 42.3495 61.8437 40.3651C62.8437 39.2557 63.7031 38.3495 63.75 38.3495C63.7812 38.3495 64.9062 38.6932 66.25 39.1307C68.7187 39.9276 69.3594 40.037 69.8594 39.7557C70.25 39.5526 70.4062 39.0838 70.9844 36.3963C71.2656 35.0995 71.5625 33.9745 71.6562 33.8807C71.8437 33.6932 74.4375 33.1151 75.7969 32.9588C77.2187 32.8026 77.8437 32.3182 77.8437 31.3963C77.8437 31.162 77.4844 29.8495 77.0469 28.4745C76.6094 27.0995 76.3125 25.9276 76.3906 25.8651C76.4531 25.8026 77.4062 24.912 78.5156 23.912C80.4531 22.1151 80.5 22.0526 80.5 21.412C80.5 20.6932 80.2969 20.4588 77.3281 17.7713L76.25 16.8026L77.0469 14.287C77.875 11.6776 77.9531 11.1932 77.6875 10.6932C77.4375 10.2088 77.0156 10.0682 74.2656 9.45884L71.6719 8.89634L71.4219 7.72447C71.2656 7.08384 71 5.84947 70.8125 5.00572C70.4062 3.22447 70.0625 2.72447 69.2031 2.72447C68.9219 2.72447 67.5781 3.08384 66.2187 3.52134L63.75 4.30259L62.7969 3.24009C60.125 0.286968 59.875 0.0682182 59.1875 0.0682182C58.8281 0.0682182 58.4375 0.161968 58.3125 0.271343ZM60.8906 5.20884C61.875 6.31822 62.7187 7.11509 62.9531 7.17759C63.2187 7.24009 64.1094 7.02134 65.5781 6.55259C66.8125 6.16197 67.9062 5.84947 68.0312 5.84947C68.1719 5.84947 68.3906 6.56822 68.75 8.22447C69.1094 9.88072 69.3594 10.7088 69.5781 10.9432C69.8125 11.1932 70.4844 11.412 72.3125 11.787C73.7187 12.0995 74.7187 12.3807 74.7187 12.4901C74.7187 12.5838 74.4062 13.6776 74.0156 14.912C73.5625 16.3495 73.3281 17.3026 73.3906 17.5682C73.4531 17.8338 74.1406 18.5682 75.3437 19.662C76.375 20.5838 77.2187 21.3651 77.2187 21.3963C77.2187 21.412 76.375 22.1932 75.3594 23.1151C74.1094 24.2245 73.4531 24.9276 73.3906 25.2088C73.3281 25.4901 73.5469 26.3963 74.0156 27.8807C74.4062 29.1151 74.7187 30.1932 74.7187 30.287C74.7187 30.3807 73.625 30.6932 72.2969 30.9901C70.4687 31.3807 69.8125 31.5995 69.5781 31.8495C69.3437 32.0995 69.1094 32.8963 68.75 34.5682C68.375 36.3026 68.1719 36.9432 68.0156 36.9432C67.8906 36.9432 66.8125 36.6151 65.6094 36.2245C64.125 35.7401 63.2969 35.5526 63 35.6151C62.7031 35.6776 62.0312 36.3182 60.875 37.5838L59.1875 39.4745L58.4687 38.7088C58.0781 38.287 57.2969 37.4432 56.7344 36.8338C56.1562 36.2088 55.5312 35.662 55.3125 35.6151C55.0937 35.5526 54.0937 35.787 52.6875 36.2245C51.4531 36.6307 50.3594 36.9432 50.2656 36.9432C50.1562 36.9432 49.875 36.0057 49.5781 34.6307C49.3125 33.3651 48.9687 32.162 48.7969 31.9432C48.5625 31.6151 48.1562 31.4745 46.0312 30.9901C44.6719 30.6776 43.5625 30.3651 43.5781 30.287C43.5781 30.2088 43.9219 29.0995 44.3281 27.8182C45 25.6932 45.0469 25.4588 44.8594 25.0682C44.7344 24.8338 43.8437 23.912 42.8594 23.0213L41.0937 21.412L41.8594 20.7088C44.4531 18.2713 44.875 17.8495 44.9531 17.537C45 17.3182 44.7187 16.1932 44.2656 14.787C43.75 13.1776 43.5625 12.3651 43.6875 12.3338C43.7812 12.287 44.8437 12.0526 46.0469 11.787C47.25 11.5213 48.3906 11.2088 48.5781 11.0838C48.9844 10.8182 49.1094 10.4276 49.6562 7.83384C49.9375 6.52134 50.1406 5.84947 50.2812 5.84947C50.3906 5.84947 51.5156 6.17759 52.7656 6.58384C54.875 7.25572 55.0781 7.28697 55.5 7.08384C55.7344 6.95884 56.6562 6.06822 57.5312 5.09947C58.4062 4.14634 59.1406 3.34947 59.1719 3.34947C59.1875 3.34947 59.9687 4.19322 60.8906 5.20884Z" fill="#4D4BC9"/>
<path d="M50.8906 13.8031C49.4687 14.4437 48.6406 15.7718 48.625 17.3812C48.625 18.5531 48.875 19.1937 49.625 20.0374C51.6094 22.2249 55.2187 21.4749 56.2031 18.6468C56.5156 17.7562 56.5 16.9593 56.125 15.9593C55.5625 14.4437 54.1562 13.5062 52.4531 13.5062C51.875 13.5062 51.2656 13.6312 50.8906 13.8031ZM53.1562 16.2406C53.8594 16.5999 54.0312 17.6468 53.5 18.2562C53.0625 18.7249 52.5781 18.8343 51.9844 18.5999C51.0156 18.1937 50.8281 17.2093 51.5781 16.4593C52.0937 15.9437 52.4844 15.8968 53.1562 16.2406Z" fill="#4D4BC9"/>
<path d="M58.2344 20.5371L51.6719 27.0996L52.5781 27.9902L53.4688 28.8965L60.0625 22.3027L66.6719 15.6934L65.8125 14.834C65.3438 14.3652 64.9219 13.9746 64.875 13.9746C64.8281 13.9746 61.8438 16.9277 58.2344 20.5371Z" fill="#4D4BC9"/>
<path d="M64.1719 21.8499C62.75 22.5217 61.9062 23.8186 61.9062 25.3811C61.9062 28.0686 64.4531 29.8811 67.125 29.0999C67.5312 28.9749 68.0625 28.6155 68.5469 28.1155C69.4219 27.2561 69.7188 26.5217 69.7188 25.2874C69.7188 22.5217 66.6875 20.6624 64.1719 21.8499ZM66.4219 24.2092C67.9375 24.9905 66.8906 27.2717 65.3281 26.6155C64.25 26.178 64.2031 24.6467 65.25 24.1936C65.8594 23.928 65.8906 23.928 66.4219 24.2092Z" fill="#4D4BC9"/>
<path d="M9.4531 18.896C6.31248 19.7554 4.40623 22.4117 4.40623 25.9585C4.40623 26.896 4.34373 26.8648 6.0781 26.6929L7.0156 26.5835L7.12498 25.4898C7.29685 23.6617 7.99998 22.521 9.46873 21.7398L10.1094 21.396L22.6562 21.3492L35.1875 21.3023V19.9898V18.6617L22.7344 18.6773C12.5 18.6773 10.125 18.7242 9.4531 18.896Z" fill="#4D4BC9"/>
<path d="M11.2188 24.4902C10.5781 24.8496 10.125 25.4434 9.95312 26.1934L9.84375 26.6309H23.8438H37.8438V25.3809V24.1309H24.8438H11.8281L11.2188 24.4902Z" fill="#4D4BC9"/>
<path d="M1.29688 29.4434C0.5 29.7871 0.515625 29.7402 0.5 36.0996V42.0527L0.859375 42.3965L1.23438 42.7402L11.7969 42.6934L22.3594 42.6465L22.7188 42.2871L23.0781 41.9277V36.0684V30.1934L22.6406 29.8184L22.2031 29.4434H15.0625C11.1406 29.4434 6.51562 29.4121 4.79688 29.3652C2.79688 29.3184 1.53125 29.334 1.29688 29.4434ZM20.5 36.0059V40.0684H11.8281H3.15625V36.0059V31.9434H11.8281H20.5V36.0059Z" fill="#4D4BC9"/>
<path d="M5.84375 36.0376L5.89062 37.3345L7.1875 37.3813L8.46875 37.4282V36.0845V34.7563H7.14062H5.79688L5.84375 36.0376Z" fill="#4D4BC9"/>
<path d="M11.2812 36.084V37.4121L14.5312 37.3809L17.7656 37.334L17.8125 36.0371L17.8594 34.7559H14.5625H11.2812V36.084Z" fill="#4D4BC9"/>
<path d="M40.0781 35.3652L38.6406 36.8965L39.4531 37.709C39.9062 38.1465 40.3438 38.5059 40.4375 38.5059C40.5156 38.5059 41.2188 37.8652 41.9844 37.0996L43.3906 35.6934L42.4531 34.7559L41.5156 33.8184L40.0781 35.3652Z" fill="#4D4BC9"/>
<path d="M34.4687 35.834C34.2812 35.8965 31.1406 38.8809 27.4687 42.4902C21.1094 48.7559 20.7187 49.0996 19.125 50.0371C16.4531 51.6309 15.4687 52.834 15.25 54.7871C14.9687 57.1934 16.7969 59.7402 19.1562 60.209C19.6094 60.3027 19.7344 60.5059 21.0625 63.209C21.9062 64.9277 22.6406 66.2246 22.8594 66.3809C23.1719 66.584 23.7031 66.6309 26.2812 66.6309C29.5625 66.6152 29.7187 66.584 30.0312 65.7871C30.2031 65.3027 30.0625 64.8965 28.3594 61.0215C27.8281 59.7871 27.375 58.6934 27.375 58.6152C27.375 58.5059 29.875 58.4902 34.7812 58.5684L42.1875 58.6777L42.625 58.3027C42.9531 58.0215 43.0469 57.8027 43.0312 57.3965C43 56.7402 36.0469 36.5059 35.7187 36.1465C35.4375 35.834 34.9375 35.7246 34.4687 35.834ZM37.1562 47.7715L39.9687 55.9277L38.0156 55.9746C36.9375 56.0059 33.7969 55.9746 31.0312 55.9277L26.0312 55.8184L24.6562 53.0684L23.2812 50.334L28.7187 44.8965C31.7187 41.8965 34.2031 39.4902 34.25 39.5371C34.2969 39.584 35.5937 43.2871 37.1562 47.7715ZM22.3437 54.2246C22.9687 55.4902 23.4687 56.5215 23.4375 56.5527C23.4062 56.5684 22.875 56.8496 22.2344 57.1777C20.9375 57.834 20.0781 57.9121 19.1875 57.4902C18.3906 57.1152 17.9531 56.4277 17.875 55.4277C17.7812 54.2871 18.2344 53.6152 19.75 52.6777C20.375 52.2871 20.9687 51.959 21.0469 51.959C21.1406 51.9434 21.7187 52.9746 22.3437 54.2246ZM25.7031 61.3809C26.2812 62.709 26.75 63.8652 26.75 63.959C26.75 64.0684 26.3125 64.1309 25.5781 64.1309H24.4062L23.375 62.084C22.8125 60.959 22.375 60.0215 22.4062 59.9902C22.5625 59.8496 24.3594 58.9902 24.5 58.9746C24.5937 58.9746 25.125 60.0527 25.7031 61.3809Z" fill="#4D4BC9"/>
<path d="M74.6094 36.1156L73.9375 36.1781V40.7875V45.3812H72.5312H71.125V44.0531V42.725H69.7969H68.4688V44.0531V45.3656L60.875 45.4125L53.2812 45.4594L52.9062 45.8969L52.5312 46.3344V54.6156C52.5312 63.4125 52.5469 63.6625 53.2656 63.8812C53.5 63.9437 79.125 64.0531 79.6875 63.9906C79.7812 63.9906 80.0156 63.8344 80.1875 63.6625C80.5 63.35 80.5 63.1469 80.5 54.7094V46.0531L80.1406 45.725C79.8125 45.4125 79.6094 45.3812 78.1875 45.3812H76.5938V40.6937V36.0062L75.9375 36.0375C75.5625 36.0531 74.9688 36.0844 74.6094 36.1156ZM77.8438 54.7562V61.475H66.5156H55.1875V54.7562V48.0375H66.5156H77.8438V54.7562Z" fill="#4D4BC9"/>
<path d="M57.8438 52.0215V53.3496H60.5H63.1562V52.0215V50.6934H60.5H57.8438V52.0215Z" fill="#4D4BC9"/>
<path d="M65.9219 50.8027C65.8594 50.8496 65.8125 51.459 65.8125 52.1309V53.3496H70.4219H75.0312V52.0215V50.6934H70.5312C68.0469 50.6934 65.9688 50.7402 65.9219 50.8027Z" fill="#4D4BC9"/>
<path d="M57.8438 57.4121V58.6621H66.4375H75.0312V57.4121V56.1621H66.4375H57.8438V57.4121Z" fill="#4D4BC9"/>
<path d="M44.1563 45.0219L42.1094 45.7563L42.5 46.9281C42.7188 47.5844 42.9063 48.1313 42.9219 48.1625C42.9375 48.1781 43.9063 47.8656 45.0938 47.4594C47.0938 46.7563 47.2188 46.6938 47.1406 46.35C46.9688 45.6625 46.4219 44.2875 46.3125 44.3031C46.25 44.3031 45.2813 44.6313 44.1563 45.0219Z" fill="#4D4BC9"/>
<path d="M4.40625 57.334V69.2871H3C1.51562 69.2871 0.78125 69.5059 0.59375 69.9902C0.546875 70.1309 0.5 71.5059 0.5 73.0371C0.5 75.5215 0.53125 75.9434 0.84375 76.7402C1.29688 77.9746 2.59375 79.2715 3.82812 79.7246L4.73438 80.0684H40.5H76.2656L77.1719 79.7246C78.4062 79.2715 79.7031 77.9746 80.1562 76.7402C80.4688 75.9277 80.5 75.5371 80.5 72.9902C80.4844 69.3496 80.4531 69.2871 78.0156 69.2871H76.5938V67.959C76.5938 66.4434 76.7344 66.5371 74.9062 66.7246L73.9531 66.834L73.9062 68.0996L73.8594 69.3652L72.5 69.4121L71.125 69.459V68.1152V66.7871H69.7969H68.4688V68.1152V69.4277L58.0469 69.4746L47.6094 69.5215L46.9531 69.8652C46.5938 70.0684 46.0938 70.4746 45.8594 70.8027C44.7812 72.2246 45.2656 72.0996 40.5 72.0996C35.7344 72.0996 36.2188 72.2246 35.1406 70.8027C34.9062 70.4746 34.4062 70.0684 34.0469 69.8652L33.3906 69.5215L22.9219 69.4434L12.4531 69.3652L12.4062 57.3652L12.375 45.3809H11.125H9.875V57.4121V69.4434H8.46875H7.0625V57.4121V45.3809H5.73438H4.40625V57.334ZM33.1719 72.4121C34.9219 74.6777 34.625 74.5996 40.5 74.5996C46.375 74.5996 46.0781 74.6777 47.8281 72.4121L48.125 72.0215L62.9844 71.9746L77.8438 71.9434V73.584C77.8438 74.6309 77.7656 75.4121 77.625 75.7402C77.375 76.3496 76.6719 77.0215 76.0781 77.2402C75.7656 77.3652 64.9219 77.4121 40.4375 77.4121H5.23438L4.5625 77.0527C3.46875 76.4746 3.15625 75.7246 3.15625 73.6309V71.9434L18.0156 71.9746L32.875 72.0215L33.1719 72.4121Z" fill="#4D4BC9"/>
<path d="M45.8437 56.0371L45.8906 57.334L47.8125 57.3809L49.7187 57.4277V56.084V54.7559H47.7656H45.7969L45.8437 56.0371Z" fill="#4D4BC9"/>
<path d="M58.1562 20.4902L51.5156 27.1777L58.2031 20.5371C64.4062 14.3652 64.9375 13.8184 64.8281 13.8184C64.8125 13.8184 61.8125 16.8184 58.1562 20.4902Z" fill="#404015"/>
<path d="M60.0312 22.3652L53.3906 29.0527L60.0781 22.4121C66.2812 16.2402 66.8125 15.6934 66.7031 15.6934C66.6875 15.6934 63.6875 18.6934 60.0312 22.3652Z" fill="#964015"/>
<path d="M66.4688 48.1465L77.6875 48.1934L77.7344 54.8027L77.7656 61.3965V54.7559V48.1152H66.5156H55.2656L66.4688 48.1465Z" fill="#C14040"/>
<path d="M57.75 52.0217C57.75 52.7873 57.7656 53.1311 57.7969 52.7717C57.8281 52.4123 57.8281 51.7717 57.7969 51.3654C57.7656 50.9592 57.75 51.2404 57.75 52.0217Z" fill="#C14040"/>
<path d="M57.75 57.4117C57.75 58.2242 57.7656 58.5679 57.7969 58.146C57.8281 57.7398 57.8281 57.0835 57.7969 56.6617C57.7656 56.2554 57.75 56.5992 57.75 57.4117Z" fill="#C14040"/>
<path d="M3.1875 36.0371L3.23438 39.9902H11.8281H20.4219L20.4688 36.0371L20.5 32.0996H11.8281H3.15625L3.1875 36.0371ZM8.59375 36.0371L8.64062 37.4121H7.21875H5.8125V36.0059V34.584L7.1875 34.6309L8.54688 34.6777L8.59375 36.0371ZM17.8438 36.0059V37.4121H14.4844H11.125V36.0059V34.5996H14.4844H17.8438V36.0059Z" fill="#EC6B40"/>
<path d="M55.1875 54.7559V61.3184H66.4375H77.6875V54.7559V48.1934H66.4375H55.1875V54.7559ZM63.1562 52.0996V53.5059H60.4219H57.6875V52.0996V50.6934H60.4219H63.1562V52.0996ZM75.1875 52.0996V53.5059H70.5H65.8125V52.0996V50.6934H70.5H75.1875V52.0996ZM75.1875 57.4121V58.8184H66.4375H57.6875V57.4121V56.0059H66.4375H75.1875V57.4121Z" fill="#EC6B40"/>
<path d="M19.6876 52.865C18.9688 53.3337 18.3907 53.8337 18.2501 54.115C17.8907 54.7868 17.9376 55.9431 18.3126 56.5681C18.7501 57.2712 19.8594 57.7868 20.6094 57.6462C21.1719 57.5525 23.3126 56.5525 23.3126 56.3962C23.3126 56.2087 21.0938 52.0993 21.0001 52.0993C20.9376 52.0993 20.3438 52.4431 19.6876 52.865Z" fill="#EC6B40"/>
<path d="M57.7656 5.02148C57.0156 5.86523 56.2656 6.67773 56.125 6.83398C55.5625 7.44336 55.0625 7.41211 52.5625 6.63086L50.2031 5.89648L49.9375 7.08398C49.2656 10.1777 49.1094 10.7559 48.8125 11.0527C48.5938 11.2715 47.7813 11.5215 46.1094 11.8965C44.7813 12.1934 43.7031 12.4434 43.6875 12.459C43.6719 12.4746 43.9688 13.4434 44.3438 14.5996C44.7188 15.7559 45.0313 16.9746 45.0313 17.3184C45.0313 17.8652 44.9375 18.0059 43.8281 19.0371C43.1563 19.6465 42.3125 20.4277 41.9375 20.7715L41.25 21.3965L42.6406 22.6465C45.0156 24.7871 45.0313 24.8184 45.0313 25.4746C45.0313 25.8184 44.7188 27.0371 44.3438 28.1934C43.9688 29.3496 43.6719 30.3184 43.6875 30.334C43.7031 30.3496 44.75 30.584 46.0313 30.8652C47.625 31.209 48.4844 31.4746 48.7344 31.6934C49.1094 32.0215 49.2188 32.3496 49.9375 35.709L50.2031 36.8965L52.6094 36.1465C54.5625 35.5371 55.1094 35.4121 55.4375 35.5371C55.6563 35.6309 56.3125 36.209 56.875 36.8184C57.4531 37.4434 58.2031 38.2559 58.5469 38.6309L59.1719 39.3027L60.7969 37.5059C61.75 36.459 62.5938 35.6465 62.875 35.5527C63.25 35.4121 63.7188 35.5059 65.7188 36.1465L68.125 36.8965L68.5313 34.9277C69.0625 32.4434 69.3125 31.7246 69.7656 31.5215C69.9688 31.4277 71.1563 31.1309 72.3906 30.8496L74.6563 30.334L73.9219 27.9434C73.2813 25.9277 73.1875 25.4902 73.3281 25.0996C73.4219 24.8184 74.2031 23.9902 75.2813 23.0215C76.2656 22.1465 77.0625 21.4121 77.0625 21.3965C77.0625 21.3809 76.2656 20.6465 75.2813 19.7715C74.2031 18.8027 73.4219 17.9746 73.3281 17.6934C73.1875 17.3027 73.2813 16.8652 73.9219 14.834L74.6719 12.4277L73.6406 12.209C73.0781 12.084 72.0156 11.8496 71.2813 11.6934C69.625 11.3496 69.2031 10.9902 68.9375 9.66211C68.8438 9.16211 68.5938 8.09961 68.4219 7.31836L68.0781 5.89648L65.9688 6.56836C64.8125 6.94336 63.5938 7.25586 63.25 7.25586C62.5938 7.25586 62.5 7.19336 60.3281 4.78711L59.1563 3.49023L57.7656 5.02148ZM54.3438 13.7871C55.0938 14.1621 55.9063 15.0527 56.25 15.834C56.625 16.7246 56.5781 18.2871 56.125 19.1934C55.4688 20.5059 53.9375 21.4746 52.5313 21.4746C50.4375 21.4746 48.4688 19.5527 48.4688 17.4902C48.4688 15.6152 49.3906 14.2871 51.2031 13.5527C51.8906 13.2715 53.5781 13.3965 54.3438 13.7871ZM65.8906 14.7559L66.8281 15.6934L60.1875 22.334C56.5313 25.9902 53.4844 28.9746 53.3906 28.9746C53.3125 28.9746 52.8438 28.5684 52.3438 28.084L51.4375 27.1777L58.1094 20.5059C61.7813 16.8184 64.8281 13.8184 64.875 13.8184C64.9219 13.8184 65.375 14.2402 65.8906 14.7559ZM67.2656 21.6309C69.4219 22.4434 70.4688 24.959 69.5 27.0215C68.2656 29.6621 65.0469 30.2559 62.9531 28.2246C62.2969 27.584 61.75 26.3027 61.75 25.3809C61.75 24.459 62.2969 23.1777 62.9688 22.5215C64.125 21.3965 65.7344 21.0527 67.2656 21.6309Z" fill="#ECC140"/>
<path d="M51.6719 16.5526C50.9687 17.2401 51.2812 18.3807 52.2187 18.5838C52.7969 18.7088 53.4062 18.3651 53.6406 17.7713C54.0937 16.5838 52.5781 15.6463 51.6719 16.5526Z" fill="#ECC140"/>
<path d="M65.2344 24.3182C65.0469 24.4119 64.8125 24.6775 64.7188 24.9119C64.2031 26.1463 65.7344 27.1932 66.6719 26.24C67.2969 25.615 67.1406 24.74 66.3281 24.3182C65.9219 24.0994 65.6875 24.0994 65.2344 24.3182Z" fill="#ECC140"/>
<path d="M35.1875 20.6934V21.4746H22.8906C14.8906 21.4746 10.375 21.5371 10 21.6309C9.125 21.8809 8.14062 22.709 7.70312 23.584C7.39062 24.1621 7.28125 24.6465 7.23438 25.5684L7.1875 26.7871H6.5H5.8125V28.0371V29.2871H8.46875H11.125V28.0371V26.7871H10.5312C10.2031 26.7871 9.89062 26.7559 9.84375 26.709C9.79688 26.6621 9.82812 26.334 9.90625 26.0059C10.1094 25.2246 10.9531 24.3496 11.7188 24.1465C12.0938 24.0371 16.7031 23.9746 25.0781 23.9746H37.8438V24.6777V25.3809H39.6562H41.4844L40.4062 24.4121C38.1094 22.334 37.8438 22.0371 37.8438 21.4277C37.8438 21.0527 37.9844 20.709 38.25 20.3965L38.6562 19.9121H36.9219H35.1875V20.6934Z" fill="#4096C1"/>
<path d="M73.375 33.4746L71.625 33.8652L71.0312 36.5996C70.625 38.5215 70.3594 39.4121 70.1562 39.584C69.9219 39.7871 69.875 40.0684 69.875 41.2715V42.7246H70.5781H71.2812V44.0527V45.3809H72.5312H73.7812V40.6934V36.0059H74.4844H75.1875V34.5215C75.1875 33.709 75.1719 33.0527 75.1562 33.0527C75.125 33.0684 74.3281 33.2559 73.375 33.4746Z" fill="#4096C1"/>
<path d="M5.8125 44.0527V45.3809H6.51562H7.21875V57.334V69.2871H8.46875H9.71875V57.334V45.3809H10.4219H11.125V44.0527V42.7246H8.46875H5.8125V44.0527Z" fill="#4096C1"/>
<path d="M69.875 65.3652V66.6152L70.5469 66.6621L71.2031 66.709L71.25 67.9902L71.2969 69.2871H72.5312H73.7812V67.959V66.6309H74.4844H75.1875V65.3809V64.1309H72.5312H69.875V65.3652Z" fill="#4096C1"/>
<path d="M23.1562 37.6465V41.959L22.7656 42.334L22.3906 42.7246H16.75H11.125V43.4277V44.1309L17.8125 44.0996L24.4844 44.0527L24.5312 38.6934L24.5625 33.3496H23.8594H23.1562V37.6465Z" fill="#6BC1C1"/>
<path d="M40.6406 34.5527L40.1094 35.1465L40.7031 34.6152C41.2344 34.0996 41.3594 33.9746 41.2344 33.9746C41.2031 33.9746 40.9375 34.2402 40.6406 34.5527Z" fill="#6BC1C1"/>
<path d="M39.9844 38.3498C40.4063 38.8029 40.5313 38.8498 40.6875 38.6779C40.8594 38.5061 40.8438 38.4748 40.6875 38.5842C40.5469 38.6467 40.2813 38.5217 39.9844 38.2561L39.4844 37.8029L39.9844 38.3498Z" fill="#6BC1C1"/>
<path d="M62.3594 42.1934L59.1719 45.3809H63.8281H68.4688V44.0527V42.7246H69.1719H69.875V41.334V39.9277L69.375 40.0059C69.0469 40.0527 68.25 39.8965 67.1875 39.5527L65.5312 39.0215L62.3594 42.1934Z" fill="#6BC1C1"/>
<path d="M24.7188 45.0215L22.7656 47.0215L24.7656 45.0684C25.8594 43.9902 26.75 43.0996 26.75 43.084C26.75 42.959 26.5312 43.1777 24.7188 45.0215Z" fill="#6BC1C1"/>
<path d="M51.0937 53.459L49.875 54.6777V56.0527V57.4121H48.5156H47.1406L40.8125 63.7402C37.3281 67.2246 34.5625 70.0996 34.6718 70.1309C34.7656 70.1777 35.1406 70.5996 35.5 71.0684L36.1406 71.9434H40.5H44.8593L45.5312 71.0527C45.9687 70.4746 46.4687 70.0215 46.9843 69.7715L47.75 69.3652L58.1093 69.3184L68.4687 69.2715V67.959V66.6309H69.1718H69.875V65.3809V64.1309H61.75C53.1093 64.1309 52.9375 64.1152 52.5937 63.3965C52.5156 63.2402 52.4218 60.6777 52.375 57.6777L52.2968 52.2402L51.0937 53.459Z" fill="#6BC1C1"/>
<path d="M29.5312 58.6157C29.7187 58.647 30 58.647 30.1562 58.6157C30.2969 58.5688 30.1406 58.5376 29.7969 58.5532C29.4531 58.5532 29.3281 58.5845 29.5312 58.6157Z" fill="#6BC1C1"/>
<path d="M39.0626 58.772C39.2501 58.8032 39.5313 58.8032 39.6876 58.772C39.8282 58.7251 39.6719 58.6938 39.3282 58.7095C38.9844 58.7095 38.8594 58.7407 39.0626 58.772Z" fill="#6BC1C1"/>
<path d="M37.8438 26.084V26.7871H24.5625H11.2812V28.0371V29.2871H16.5781C19.75 29.2871 22.0469 29.3496 22.3125 29.4434C23.0312 29.6934 23.2188 30.1465 23.2812 31.8184L23.3438 33.3496H23.9531H24.5625V38.7402V44.1309H17.9219H11.2812V44.7559V45.3809H11.9062H12.5312V57.334V69.2715L22.9688 69.3184C32.9531 69.3652 33.4219 69.3809 33.9844 69.6777L34.5781 69.9746L40.8281 63.7402L47.0625 57.4902L46.4375 57.4434L45.8125 57.3965V55.9902V54.5996H47.8906H49.9531L51.1562 53.3809L52.3594 52.1777L52.4062 49.1777C52.4531 46.2559 52.4688 46.1777 52.8281 45.7871L53.2031 45.3809H56.1875H59.1719L62.3438 42.209L65.5156 39.0371L64.625 38.7559C63.7656 38.4902 63.7344 38.4902 63.4844 38.7715C59.7656 42.834 59.875 42.7246 59.1719 42.7246C58.4688 42.7246 58.2344 42.5215 55.5469 39.5371L54.5781 38.4746L52.0781 39.2715C49.5312 40.084 48.9844 40.1934 48.4688 39.9121C47.9844 39.6465 47.8281 39.209 47.2344 36.4746L46.6719 33.8965L44.0781 33.334C41.3281 32.7246 40.9062 32.584 40.6562 32.0996C40.375 31.584 40.4844 31.0059 41.2969 28.4434L42.0938 25.9434L41.75 25.6621C41.4688 25.4277 41.0938 25.3809 39.625 25.3809H37.8438V26.084ZM42.0625 37.209C41.2656 38.0527 40.5625 38.7559 40.5156 38.7871C40.4531 38.8027 39.9844 38.3809 39.4531 37.8496L38.4844 36.8652L39.9844 35.2559L41.4844 33.6309L42.5 34.6621L43.5312 35.6777L42.0625 37.209ZM35.7656 36.0371C36.2031 36.5059 43.1562 56.6621 43.1562 57.4434C43.1562 58.0527 42.875 58.4434 42.25 58.6777C41.8906 58.8184 34.4062 58.7559 29.5469 58.584L27.4062 58.5059L28.7969 61.6934C30.3281 65.209 30.4375 65.7715 29.7969 66.3965C29.4219 66.7871 29.4062 66.7871 26.375 66.7871C24.3125 66.7871 23.1875 66.7246 22.9062 66.5996C22.5781 66.4434 22.1875 65.7871 21.0469 63.4277L19.5938 60.459L18.6562 60.1934C17.5312 59.8652 16.1719 58.7246 15.6562 57.6621C15.1875 56.6777 15.0156 55.3809 15.2031 54.3184C15.5625 52.4277 16.3125 51.5684 19.0312 49.959C20.5781 49.0215 21.1719 48.5527 22.6094 47.0996C23.5625 46.1465 26.5469 43.1777 29.2812 40.5215C34.0625 35.8496 34.2344 35.6934 34.8281 35.6934C35.2656 35.6934 35.5469 35.8027 35.7656 36.0371ZM46.9531 45.3965C47.2031 46.0996 47.3438 46.7246 47.2656 46.7871C47.2031 46.8496 46.2969 47.1777 45.2656 47.5371C44.2344 47.8809 43.2812 48.209 43.1406 48.2715C42.9375 48.3496 42.7969 48.1309 42.4688 47.2246C42.25 46.5996 42.0469 45.9902 42.0312 45.8809C42 45.7402 42.7031 45.4121 44.0938 44.9121C45.25 44.4902 46.2812 44.1465 46.3594 44.1465C46.4531 44.1309 46.7188 44.709 46.9531 45.3965Z" fill="#96C1EC"/>
<path d="M3.3125 73.8027C3.3125 75.6934 3.51562 76.209 4.54688 76.8965L5.07812 77.2559H40.5H75.9219L76.4531 76.8965C77.4844 76.209 77.6875 75.6934 77.6875 73.8027V72.0996H63.0469C51.7656 72.1152 48.3281 72.1465 48.1562 72.3027C48.0156 72.4121 47.7344 72.7402 47.5312 73.0371C46.3906 74.6621 46 74.7559 40.5 74.7559C35 74.7559 34.6094 74.6621 33.4688 73.0371C33.2656 72.7402 32.9844 72.4121 32.8438 72.3027C32.6719 72.1465 29.2344 72.1152 17.9688 72.0996H3.3125V73.8027Z" fill="#C1ECEC"/>
<path d="M28.7969 44.9746L23.4375 50.334L24.7812 52.9902L26.1094 55.6621L28.8125 55.7559C30.2969 55.8027 33.3906 55.8652 35.6719 55.8965L39.8438 55.9277L38.3906 51.709C35.25 42.5684 34.25 39.6934 34.2031 39.6621C34.1719 39.6309 31.75 42.0215 28.7969 44.9746Z" fill="#ECECEC"/>
<path d="M23.4688 59.5684C23 59.8027 22.5938 59.9902 22.5625 60.0059C22.5313 60.0215 22.9532 60.9121 23.5 62.0059L24.4844 63.9746H25.5313C26.125 63.9746 26.5938 63.9121 26.5938 63.834C26.5938 63.5527 24.625 59.2246 24.4844 59.1934C24.3907 59.1621 23.9375 59.334 23.4688 59.5684Z" fill="#ECECEC"/>
</svg>
