<svg width="21" height="20" viewBox="0 0 21 20" fill="none" xmlns="http://www.w3.org/2000/svg">
<path d="M2.89974 16.4358V17.5C2.89974 17.721 2.98754 17.933 3.14382 18.0893C3.3001 18.2455 3.51206 18.3333 3.73307 18.3333H4.56641C4.78742 18.3333 4.99938 18.2455 5.15566 18.0893C5.31194 17.933 5.39974 17.721 5.39974 17.5V16.6667H15.3997V17.5C15.3997 17.721 15.4875 17.933 15.6438 18.0893C15.8001 18.2455 16.0121 18.3333 16.2331 18.3333H17.0664C17.2874 18.3333 17.4994 18.2455 17.6557 18.0893C17.8119 17.933 17.8997 17.721 17.8997 17.5V16.4358C18.1526 16.2909 18.3627 16.0818 18.509 15.8297C18.6553 15.5776 18.7326 15.2915 18.7331 15V12.5C18.7331 11.8075 18.3106 11.215 17.7097 10.9625L16.5697 7.54251C16.4044 7.04458 16.0863 6.61143 15.6607 6.3046C15.2351 5.99777 14.7236 5.83288 14.1989 5.83334H6.60057C6.0759 5.83288 5.56442 5.99777 5.13881 6.3046C4.7132 6.61143 4.39511 7.04458 4.22974 7.54251L3.08974 10.9625C2.78666 11.0894 2.52783 11.3031 2.34577 11.5766C2.1637 11.8502 2.06652 12.1714 2.06641 12.5V15C2.06641 15.615 2.40307 16.1467 2.89974 16.4358ZM4.98307 15C4.81887 15 4.65628 14.9676 4.50459 14.9047C4.3529 14.8418 4.21509 14.7496 4.09902 14.6335C3.8646 14.3989 3.73296 14.0808 3.73307 13.7492C3.73318 13.4175 3.86503 13.0995 4.09961 12.8651C4.33418 12.6307 4.65228 12.4991 4.98391 12.4992C5.31554 12.4993 5.63354 12.6311 5.86796 12.8657C6.10238 13.1003 6.23402 13.4184 6.23391 13.75C6.2338 14.0816 6.10195 14.3996 5.86737 14.6341C5.6328 14.8685 5.3147 15.0001 4.98307 15ZM15.8164 15C15.4848 14.9999 15.1668 14.8681 14.9324 14.6335C14.6979 14.3989 14.5663 14.0808 14.5664 13.7492C14.5665 13.4175 14.6984 13.0995 14.9329 12.8651C15.1675 12.6307 15.4856 12.4991 15.8172 12.4992C16.1489 12.4993 16.4669 12.6311 16.7013 12.8657C16.9357 13.1003 17.0674 13.4184 17.0672 13.75C17.0671 14.0816 16.9353 14.3996 16.7007 14.6341C16.4661 14.8685 16.148 15.0001 15.8164 15ZM6.60057 7.50001H14.1981C14.373 7.49997 14.5436 7.555 14.6855 7.65731C14.8275 7.75962 14.9336 7.90401 14.9889 8.07001L15.9106 10.8333H4.88891L5.80974 8.07001C5.92391 7.72918 6.24224 7.50001 6.60057 7.50001Z" fill="#6C60FE"/>
<path d="M18.7331 6.15668V4.39918L10.6631 1.70918C10.4847 1.64948 10.2914 1.65213 10.1147 1.71668L2.06641 4.64335V6.41668L10.4122 3.38168L18.7331 6.15668Z" fill="#6C60FE"/>
</svg>
