<svg width="24" height="23" viewBox="0 0 24 23" fill="none" xmlns="http://www.w3.org/2000/svg">
<path d="M16.6301 3.37964V5.04439L17.8325 5.78429V3.37964H16.6301Z" stroke="#6C60FE"/>
<path d="M14.829 11.6276C15.5998 12.3649 15.6263 13.5397 14.9094 14.3059L12.0211 17.0676L9.13288 14.3059C8.41604 13.5397 8.44284 12.3631 9.21327 11.6276C9.98458 10.8912 11.219 10.8664 12.0215 11.5531C12.8217 10.8674 14.0582 10.8902 14.829 11.6276ZM9.69503 12.0875C9.18754 12.572 9.16206 13.3479 9.62974 13.8604L12.0211 16.1471L14.4126 13.8604C14.8804 13.3477 14.855 12.5732 14.3468 12.087C13.8401 11.6023 13.0246 11.579 12.4893 12.0264L11.0576 13.3933L10.5759 12.9334L11.5381 12.0141L11.5102 11.9917C10.9738 11.5803 10.1895 11.6154 9.69503 12.0875Z" fill="#FD3358"/>
<path d="M13.5955 8.58282H20.4794L12.0547 1.37585L3.60513 8.58282L10.3648 8.45856" stroke="#6C60FE"/>
<path d="M18.74 8.63269L18.7888 15.0594L18.7897 15.1811" stroke="#6C60FE"/>
<path d="M5.39429 8.60779L5.36943 15.0138" stroke="#6C60FE"/>
<path d="M18.0937 22.6241L20.7279 19.8407C21.2415 19.3851 22.3333 18.2154 22.5918 17.1816C22.9149 15.8893 23.0391 14.2243 22.9894 13.0065C22.9397 11.7888 22.8652 11.0681 22.219 11.0681C21.5729 11.0681 21.225 10.8693 20.9764 11.4906C20.7776 11.9876 20.7279 14.332 20.7279 15.442C20.7528 15.6325 20.6832 16.1478 20.206 16.6846C19.7289 17.2214 17.9528 19.1118 17.1244 19.9898" stroke="#1E1D85"/>
<path d="M20.2805 16.5104C20.3302 16.4358 20.37 16.1824 20.1314 15.7649C19.8332 15.243 19.5847 15.069 19.2119 15.0193C18.8391 14.9696 18.5658 15.0442 18.3173 15.243C18.1184 15.402 16.9918 16.6015 16.4534 17.1814L16.1552 17.4796C15.9398 17.5045 15.3798 17.5989 14.8629 17.7778C14.2167 18.0015 13.67 18.2997 13.1481 18.9459C12.6262 19.592 12.328 20.3873 12.1789 20.9091C12.0596 21.3266 12.0298 22.1931 12.0298 22.5742" stroke="#1E1D85"/>
<path d="M12.0546 22.5745V21.0336C11.8972 20.81 11.391 20.1614 10.6256 19.3562C9.86017 18.551 8.3931 17.7698 7.75524 17.4799L5.5683 15.2432C5.37777 15.1024 5.00913 14.9699 4.66121 15.0568C4.31329 15.1438 4.07142 15.4807 3.77898 15.8645C3.72336 15.9375 3.55054 16.3211 4.1269 17.1071C4.3456 17.4053 6.09018 19.1035 6.93513 19.9153" stroke="#1E1D85"/>
<path d="M6.01587 22.5492L3.08338 19.6913C2.6609 19.2191 1.74139 18.0561 1.44317 17.1813C1.0704 16.0878 0.946141 13.0062 1.0207 12.4098C1.09525 11.8133 1.34377 11.2915 1.7911 11.1672C2.23842 11.0429 2.90461 11.0939 3.08338 11.4157C3.26215 11.7375 3.3319 13.0435 3.3319 13.6027C3.3319 14.0441 3.3319 14.9322 3.63011 15.6032L3.79165 16.5351" stroke="#1E1D85"/>
</svg>
