<svg width="24" height="24" viewBox="0 0 24 24" fill="none" xmlns="http://www.w3.org/2000/svg">
<path d="M12 17L13 15V9.858C14.721 9.411 16 7.858 16 6C16 3.794 14.206 2 12 2C9.794 2 8 3.794 8 6C8 7.858 9.279 9.411 11 9.858V15L12 17ZM10 6C10 4.897 10.897 4 12 4C13.103 4 14 4.897 14 6C14 7.103 13.103 8 12 8C10.897 8 10 7.103 10 6Z" fill="#6C60FE"/>
<path d="M16.267 10.5635L15.734 12.4915C18.325 13.2075 20 14.5845 20 16.0005C20 17.8925 16.715 20.0005 12 20.0005C7.285 20.0005 4 17.8925 4 16.0005C4 14.5845 5.675 13.2075 8.267 12.4905L7.734 10.5625C4.197 11.5405 2 13.6235 2 16.0005C2 19.3645 6.393 22.0005 12 22.0005C17.607 22.0005 22 19.3645 22 16.0005C22 13.6235 19.803 11.5405 16.267 10.5635Z" fill="#6C60FE"/>
</svg>
