<svg width="21" height="21" viewBox="0 0 21 21" fill="none" xmlns="http://www.w3.org/2000/svg">
<path d="M17.7498 3.66626H2.74984C2.52882 3.66626 2.31686 3.75406 2.16058 3.91034C2.0043 4.06662 1.9165 4.27858 1.9165 4.49959V16.1663C1.9165 16.3873 2.0043 16.5992 2.16058 16.7555C2.31686 16.9118 2.52882 16.9996 2.74984 16.9996H17.7498C17.9709 16.9996 18.1828 16.9118 18.3391 16.7555C18.4954 16.5992 18.5832 16.3873 18.5832 16.1663V4.49959C18.5832 4.27858 18.4954 4.06662 18.3391 3.91034C18.1828 3.75406 17.9709 3.66626 17.7498 3.66626ZM16.9165 12.8329C16.2535 12.8329 15.6176 13.0963 15.1487 13.5652C14.6799 14.034 14.4165 14.6699 14.4165 15.3329H6.08317C6.08317 14.6699 5.81978 14.034 5.35094 13.5652C4.8821 13.0963 4.24621 12.8329 3.58317 12.8329V7.83293C4.24621 7.83293 4.8821 7.56953 5.35094 7.10069C5.81978 6.63185 6.08317 5.99597 6.08317 5.33293H14.4165C14.4165 5.99597 14.6799 6.63185 15.1487 7.10069C15.6176 7.56953 16.2535 7.83293 16.9165 7.83293V12.8329Z" fill="#6C60FE"/>
<path d="M10.2498 6.99976C8.4115 6.99976 6.9165 8.49476 6.9165 10.3331C6.9165 12.1714 8.4115 13.6664 10.2498 13.6664C12.0882 13.6664 13.5832 12.1714 13.5832 10.3331C13.5832 8.49476 12.0882 6.99976 10.2498 6.99976ZM10.2498 11.9998C9.33067 11.9998 8.58317 11.2523 8.58317 10.3331C8.58317 9.41392 9.33067 8.66642 10.2498 8.66642C11.169 8.66642 11.9165 9.41392 11.9165 10.3331C11.9165 11.2523 11.169 11.9998 10.2498 11.9998Z" fill="#6C60FE"/>
</svg>
