<svg width="24" height="25" viewBox="0 0 24 25" fill="none" xmlns="http://www.w3.org/2000/svg">
<path d="M8.26702 15.0131C8.08302 15.0131 7.95902 15.0311 7.89502 15.0491V16.2271C7.97102 16.2451 8.06602 16.2501 8.19702 16.2501C8.67602 16.2501 8.97102 16.0081 8.97102 15.5991C8.97102 15.2331 8.71702 15.0131 8.26702 15.0131ZM11.754 15.0251C11.554 15.0251 11.424 15.0431 11.347 15.0611V17.6711C11.424 17.6891 11.548 17.6891 11.66 17.6891C12.477 17.6951 13.009 17.2451 13.009 16.2931C13.015 15.4631 12.53 15.0251 11.754 15.0251Z" fill="#FD3358"/>
<path d="M14 2.33301H6C5.46957 2.33301 4.96086 2.54372 4.58579 2.91879C4.21071 3.29387 4 3.80257 4 4.33301V20.333C4 20.8634 4.21071 21.3721 4.58579 21.7472C4.96086 22.1223 5.46957 22.333 6 22.333H18C18.5304 22.333 19.0391 22.1223 19.4142 21.7472C19.7893 21.3721 20 20.8634 20 20.333V8.33301L14 2.33301ZM9.498 16.523C9.189 16.813 8.733 16.943 8.202 16.943C8.09904 16.9441 7.99613 16.9381 7.894 16.925V18.351H7V14.415C7.40345 14.3548 7.81112 14.3274 8.219 14.333C8.776 14.333 9.172 14.439 9.439 14.652C9.693 14.854 9.865 15.185 9.865 15.575C9.864 15.967 9.734 16.298 9.498 16.523V16.523ZM13.305 17.878C12.885 18.227 12.246 18.393 11.465 18.393C10.997 18.393 10.666 18.363 10.441 18.333V14.416C10.8446 14.3571 11.2521 14.3294 11.66 14.333C12.417 14.333 12.909 14.469 13.293 14.759C13.708 15.067 13.968 15.558 13.968 16.263C13.968 17.026 13.689 17.553 13.305 17.878V17.878ZM17 15.103H15.468V16.014H16.9V16.748H15.468V18.352H14.562V14.363H17V15.103ZM14 9.33301H13V4.33301L18 9.33301H14Z" fill="#FD3358"/>
</svg>
