<svg width="24" height="24" viewBox="0 0 24 24" fill="none" xmlns="http://www.w3.org/2000/svg">
<path d="M16.712 13.2873C16.6192 13.1944 16.509 13.1207 16.3877 13.0703C16.2664 13.02 16.1363 12.9941 16.005 12.9941C15.8736 12.9941 15.7436 13.02 15.6223 13.0703C15.501 13.1207 15.3908 13.1944 15.298 13.2873L13.704 14.8813C12.965 14.6613 11.586 14.1613 10.712 13.2873C9.83797 12.4133 9.33797 11.0343 9.11797 10.2953L10.712 8.70134C10.8049 8.60855 10.8787 8.49835 10.929 8.37704C10.9793 8.25572 11.0052 8.12568 11.0052 7.99434C11.0052 7.86301 10.9793 7.73296 10.929 7.61165C10.8787 7.49033 10.8049 7.38013 10.712 7.28734L6.71197 3.28734C6.61918 3.1944 6.50898 3.12066 6.38767 3.07035C6.26635 3.02004 6.13631 2.99414 6.00497 2.99414C5.87364 2.99414 5.74359 3.02004 5.62228 3.07035C5.50096 3.12066 5.39076 3.1944 5.29797 3.28734L2.58597 5.99934C2.20597 6.37934 1.99197 6.90134 1.99997 7.43434C2.02297 8.85834 2.39997 13.8043 6.29797 17.7023C10.196 21.6003 15.142 21.9763 16.566 21.9993H16.594C17.122 21.9993 17.621 21.7913 17.999 21.4133L20.711 18.7013C20.8039 18.6086 20.8777 18.4984 20.928 18.377C20.9783 18.2557 21.0042 18.1257 21.0042 17.9943C21.0042 17.863 20.9783 17.733 20.928 17.6116C20.8777 17.4903 20.8039 17.3801 20.711 17.2873L16.712 13.2873ZM16.585 19.9993C15.337 19.9783 11.067 19.6433 7.71197 16.2873C4.34597 12.9213 4.01997 8.63634 3.99997 7.41334L6.00497 5.40834L8.59097 7.99434L7.29797 9.28734C7.18043 9.40479 7.09401 9.54968 7.04652 9.70891C6.99903 9.86814 6.99197 10.0367 7.02597 10.1993C7.04997 10.3143 7.63697 13.0413 9.29697 14.7013C10.957 16.3613 13.684 16.9483 13.799 16.9723C13.9615 17.0071 14.1302 17.0005 14.2895 16.9532C14.4489 16.9058 14.5938 16.8192 14.711 16.7013L16.004 15.4083L18.59 17.9943L16.585 19.9993Z" fill="#6C60FE"/>
<path d="M16.795 5.79014L12.298 10.2871L13.712 11.7011L18.209 7.20414L21.005 9.99914V2.99414H14L16.795 5.79014Z" fill="#6C60FE"/>
</svg>
