<svg width="138" height="54" viewBox="0 0 138 54" fill="none" xmlns="http://www.w3.org/2000/svg">
<rect width="137" height="39" transform="translate(0.5 0.0683594)" fill="#FD3358"/>
<path d="M21.58 26.0684V14.8934H23.53L27.715 20.5784H26.785L30.88 14.8934H32.83V26.0684H30.775V17.2184L31.57 17.4134L27.325 23.0684H27.085L22.945 17.4134L23.62 17.2184V26.0684H21.58ZM38.7937 26.2484C37.9937 26.2484 37.2637 26.0634 36.6037 25.6934C35.9537 25.3234 35.4337 24.8184 35.0437 24.1784C34.6637 23.5384 34.4737 22.8084 34.4737 21.9884C34.4737 21.1684 34.6637 20.4384 35.0437 19.7984C35.4337 19.1584 35.9537 18.6534 36.6037 18.2834C37.2537 17.9134 37.9837 17.7284 38.7937 17.7284C39.5937 17.7284 40.3187 17.9134 40.9687 18.2834C41.6187 18.6534 42.1337 19.1584 42.5137 19.7984C42.9037 20.4284 43.0987 21.1584 43.0987 21.9884C43.0987 22.8084 42.9037 23.5384 42.5137 24.1784C42.1237 24.8184 41.6037 25.3234 40.9537 25.6934C40.3037 26.0634 39.5837 26.2484 38.7937 26.2484ZM38.7937 24.4484C39.2337 24.4484 39.6187 24.3434 39.9487 24.1334C40.2887 23.9234 40.5537 23.6334 40.7437 23.2634C40.9437 22.8834 41.0437 22.4584 41.0437 21.9884C41.0437 21.5084 40.9437 21.0884 40.7437 20.7284C40.5537 20.3584 40.2887 20.0684 39.9487 19.8584C39.6187 19.6384 39.2337 19.5284 38.7937 19.5284C38.3437 19.5284 37.9487 19.6384 37.6087 19.8584C37.2687 20.0684 36.9987 20.3584 36.7987 20.7284C36.6087 21.0884 36.5137 21.5084 36.5137 21.9884C36.5137 22.4584 36.6087 22.8834 36.7987 23.2634C36.9987 23.6334 37.2687 23.9234 37.6087 24.1334C37.9487 24.3434 38.3437 24.4484 38.7937 24.4484ZM47.6938 26.2484C46.8238 26.2484 46.0638 26.0434 45.4138 25.6334C44.7738 25.2134 44.3338 24.6484 44.0938 23.9384L45.5638 23.2334C45.7738 23.6934 46.0638 24.0534 46.4338 24.3134C46.8138 24.5734 47.2338 24.7034 47.6938 24.7034C48.0538 24.7034 48.3388 24.6234 48.5488 24.4634C48.7588 24.3034 48.8638 24.0934 48.8638 23.8334C48.8638 23.6734 48.8188 23.5434 48.7288 23.4434C48.6488 23.3334 48.5338 23.2434 48.3838 23.1734C48.2438 23.0934 48.0888 23.0284 47.9188 22.9784L46.5838 22.6034C45.8938 22.4034 45.3688 22.0984 45.0088 21.6884C44.6588 21.2784 44.4838 20.7934 44.4838 20.2334C44.4838 19.7334 44.6088 19.2984 44.8588 18.9284C45.1188 18.5484 45.4738 18.2534 45.9238 18.0434C46.3838 17.8334 46.9088 17.7284 47.4988 17.7284C48.2688 17.7284 48.9488 17.9134 49.5388 18.2834C50.1288 18.6534 50.5488 19.1734 50.7988 19.8434L49.2988 20.5484C49.1588 20.1784 48.9238 19.8834 48.5938 19.6634C48.2638 19.4434 47.8938 19.3334 47.4838 19.3334C47.1538 19.3334 46.8938 19.4084 46.7038 19.5584C46.5138 19.7084 46.4188 19.9034 46.4188 20.1434C46.4188 20.2934 46.4588 20.4234 46.5388 20.5334C46.6188 20.6434 46.7288 20.7334 46.8688 20.8034C47.0188 20.8734 47.1888 20.9384 47.3788 20.9984L48.6838 21.3884C49.3538 21.5884 49.8688 21.8884 50.2288 22.2884C50.5988 22.6884 50.7838 23.1784 50.7838 23.7584C50.7838 24.2484 50.6538 24.6834 50.3938 25.0634C50.1338 25.4334 49.7738 25.7234 49.3138 25.9334C48.8538 26.1434 48.3138 26.2484 47.6938 26.2484ZM56.0139 26.1584C55.0939 26.1584 54.3789 25.9084 53.8689 25.4084C53.3689 24.8984 53.1189 24.1834 53.1189 23.2634V19.6634H51.7089V17.9084H51.8589C52.2589 17.9084 52.5689 17.8034 52.7889 17.5934C53.0089 17.3834 53.1189 17.0784 53.1189 16.6784V16.0484H55.0839V17.9084H56.9589V19.6634H55.0839V23.1584C55.0839 23.4284 55.1289 23.6584 55.2189 23.8484C55.3189 24.0384 55.4689 24.1834 55.6689 24.2834C55.8789 24.3834 56.1439 24.4334 56.4639 24.4334C56.5339 24.4334 56.6139 24.4284 56.7039 24.4184C56.8039 24.4084 56.8989 24.3984 56.9889 24.3884V26.0684C56.8489 26.0884 56.6889 26.1084 56.5089 26.1284C56.3289 26.1484 56.1639 26.1584 56.0139 26.1584ZM61.3212 26.0684V14.8934H65.4912C66.2512 14.8934 66.9212 15.0334 67.5012 15.3134C68.0912 15.5834 68.5512 15.9834 68.8812 16.5134C69.2112 17.0334 69.3762 17.6684 69.3762 18.4184C69.3762 19.1584 69.2062 19.7934 68.8662 20.3234C68.5362 20.8434 68.0812 21.2434 67.5012 21.5234C66.9212 21.8034 66.2512 21.9434 65.4912 21.9434H63.3612V26.0684H61.3212ZM63.3612 20.1434H65.5212C65.8912 20.1434 66.2112 20.0734 66.4812 19.9334C66.7512 19.7834 66.9612 19.5784 67.1112 19.3184C67.2612 19.0584 67.3362 18.7584 67.3362 18.4184C67.3362 18.0684 67.2612 17.7684 67.1112 17.5184C66.9612 17.2584 66.7512 17.0584 66.4812 16.9184C66.2112 16.7684 65.8912 16.6934 65.5212 16.6934H63.3612V20.1434ZM74.5798 26.2484C73.7798 26.2484 73.0498 26.0634 72.3898 25.6934C71.7398 25.3234 71.2198 24.8184 70.8298 24.1784C70.4498 23.5384 70.2598 22.8084 70.2598 21.9884C70.2598 21.1684 70.4498 20.4384 70.8298 19.7984C71.2198 19.1584 71.7398 18.6534 72.3898 18.2834C73.0398 17.9134 73.7698 17.7284 74.5798 17.7284C75.3798 17.7284 76.1048 17.9134 76.7548 18.2834C77.4048 18.6534 77.9198 19.1584 78.2998 19.7984C78.6898 20.4284 78.8848 21.1584 78.8848 21.9884C78.8848 22.8084 78.6898 23.5384 78.2998 24.1784C77.9098 24.8184 77.3898 25.3234 76.7398 25.6934C76.0898 26.0634 75.3698 26.2484 74.5798 26.2484ZM74.5798 24.4484C75.0198 24.4484 75.4048 24.3434 75.7348 24.1334C76.0748 23.9234 76.3398 23.6334 76.5298 23.2634C76.7298 22.8834 76.8298 22.4584 76.8298 21.9884C76.8298 21.5084 76.7298 21.0884 76.5298 20.7284C76.3398 20.3584 76.0748 20.0684 75.7348 19.8584C75.4048 19.6384 75.0198 19.5284 74.5798 19.5284C74.1298 19.5284 73.7348 19.6384 73.3948 19.8584C73.0548 20.0684 72.7848 20.3584 72.5848 20.7284C72.3948 21.0884 72.2998 21.5084 72.2998 21.9884C72.2998 22.4584 72.3948 22.8834 72.5848 23.2634C72.7848 23.6334 73.0548 23.9234 73.3948 24.1334C73.7348 24.3434 74.1298 24.4484 74.5798 24.4484ZM80.375 29.0684V17.9084H82.22V19.5284L82.04 19.1234C82.32 18.6834 82.7 18.3434 83.18 18.1034C83.66 17.8534 84.215 17.7284 84.845 17.7284C85.615 17.7284 86.31 17.9184 86.93 18.2984C87.55 18.6784 88.04 19.1884 88.4 19.8284C88.77 20.4684 88.955 21.1884 88.955 21.9884C88.955 22.7784 88.775 23.4984 88.415 24.1484C88.055 24.7984 87.565 25.3134 86.945 25.6934C86.325 26.0634 85.62 26.2484 84.83 26.2484C84.24 26.2484 83.695 26.1334 83.195 25.9034C82.705 25.6634 82.315 25.3234 82.025 24.8834L82.34 24.4934V29.0684H80.375ZM84.605 24.4484C85.055 24.4484 85.455 24.3434 85.805 24.1334C86.155 23.9234 86.425 23.6334 86.615 23.2634C86.815 22.8934 86.915 22.4684 86.915 21.9884C86.915 21.5084 86.815 21.0884 86.615 20.7284C86.425 20.3584 86.155 20.0684 85.805 19.8584C85.455 19.6384 85.055 19.5284 84.605 19.5284C84.175 19.5284 83.785 19.6334 83.435 19.8434C83.095 20.0534 82.825 20.3484 82.625 20.7284C82.435 21.0984 82.34 21.5184 82.34 21.9884C82.34 22.4684 82.435 22.8934 82.625 23.2634C82.825 23.6334 83.095 23.9234 83.435 24.1334C83.785 24.3434 84.175 24.4484 84.605 24.4484ZM93.3631 26.2484C92.7331 26.2484 92.1831 26.1084 91.7131 25.8284C91.2531 25.5484 90.8981 25.1584 90.6481 24.6584C90.4081 24.1584 90.2881 23.5734 90.2881 22.9034V17.9084H92.2531V22.7384C92.2531 23.0784 92.3181 23.3784 92.4481 23.6384C92.5881 23.8884 92.7831 24.0884 93.0331 24.2384C93.2931 24.3784 93.5831 24.4484 93.9031 24.4484C94.2231 24.4484 94.5081 24.3784 94.7581 24.2384C95.0081 24.0884 95.2031 23.8834 95.3431 23.6234C95.4831 23.3634 95.5531 23.0534 95.5531 22.6934V17.9084H97.5181V26.0684H95.6581V24.4634L95.8231 24.7484C95.6331 25.2484 95.3181 25.6234 94.8781 25.8734C94.4481 26.1234 93.9431 26.2484 93.3631 26.2484ZM99.3447 26.0684V14.7134H101.31V26.0684H99.3447ZM105.599 26.2484C105.029 26.2484 104.534 26.1534 104.114 25.9634C103.694 25.7734 103.369 25.5034 103.139 25.1534C102.909 24.7934 102.794 24.3784 102.794 23.9084C102.794 23.4584 102.894 23.0584 103.094 22.7084C103.294 22.3484 103.604 22.0484 104.024 21.8084C104.444 21.5684 104.974 21.3984 105.614 21.2984L108.284 20.8634V22.3634L105.989 22.7534C105.599 22.8234 105.309 22.9484 105.119 23.1284C104.929 23.3084 104.834 23.5434 104.834 23.8334C104.834 24.1134 104.939 24.3384 105.149 24.5084C105.369 24.6684 105.639 24.7484 105.959 24.7484C106.369 24.7484 106.729 24.6634 107.039 24.4934C107.359 24.3134 107.604 24.0684 107.774 23.7584C107.954 23.4484 108.044 23.1084 108.044 22.7384V20.6384C108.044 20.2884 107.904 19.9984 107.624 19.7684C107.354 19.5284 106.994 19.4084 106.544 19.4084C106.124 19.4084 105.749 19.5234 105.419 19.7534C105.099 19.9734 104.864 20.2684 104.714 20.6384L103.109 19.8584C103.269 19.4284 103.519 19.0584 103.859 18.7484C104.209 18.4284 104.619 18.1784 105.089 17.9984C105.559 17.8184 106.069 17.7284 106.619 17.7284C107.289 17.7284 107.879 17.8534 108.389 18.1034C108.899 18.3434 109.294 18.6834 109.574 19.1234C109.864 19.5534 110.009 20.0584 110.009 20.6384V26.0684H108.149V24.6734L108.569 24.6434C108.359 24.9934 108.109 25.2884 107.819 25.5284C107.529 25.7584 107.199 25.9384 106.829 26.0684C106.459 26.1884 106.049 26.2484 105.599 26.2484ZM111.825 26.0684V17.9084H113.67V19.7234L113.52 19.4534C113.71 18.8434 114.005 18.4184 114.405 18.1784C114.815 17.9384 115.305 17.8184 115.875 17.8184H116.355V19.5584H115.65C115.09 19.5584 114.64 19.7334 114.3 20.0834C113.96 20.4234 113.79 20.9034 113.79 21.5234V26.0684H111.825Z" fill="white"/>
<path d="M128 53.5684L137.5 39.0684H128V53.5684Z" fill="#FD3358" fill-opacity="0.4"/>
</svg>
