<svg width="71" height="79" viewBox="0 0 71 79" fill="none" xmlns="http://www.w3.org/2000/svg">
<path d="M26.8989 0.725319L26.3781 1.20061V4.63499V8.06936H15.8478C4.21079 8.06936 4.63396 8.0387 3.85273 9.03528C3.52722 9.46457 3.51094 9.67922 3.46212 16.134L3.41329 22.7881H2.43676C1.55788 22.7881 1.39512 22.8341 0.97196 23.2327L0.499969 23.6774V26.4218C0.499969 28.7829 0.548796 29.1969 0.792929 29.4729C1.21609 29.9635 1.68808 30.1475 2.59951 30.1475H3.42957V36.5103V42.8731H2.59951C1.68808 42.8731 1.21609 43.057 0.792929 43.5477C0.548796 43.8236 0.499969 44.2376 0.499969 46.5987V49.3432L0.97196 49.7878C1.39512 50.1864 1.55788 50.2324 2.43676 50.2324H3.42957V56.5952V62.958H2.71344C1.81829 62.958 1.2812 63.142 0.841756 63.5866C0.516245 63.9086 0.499969 64.1079 0.499969 66.7144V69.4895L0.97196 69.9188C1.3463 70.2561 1.63926 70.3634 2.43676 70.4247L3.42957 70.5167V73.7364C3.42957 76.6342 3.46212 77.0328 3.75508 77.6001C3.93411 77.9374 4.29217 78.336 4.55258 78.4894C4.99202 78.7347 6.91253 78.75 35.5412 78.75H66.0416L66.481 78.428C67.3436 77.7994 67.3924 77.5081 67.3924 73.8438V70.4707H68.1248C69.1339 70.4707 69.9152 70.1334 70.2244 69.5661C70.5662 68.9682 70.5987 64.4759 70.2732 63.8779C69.9965 63.3566 69.1014 62.958 68.1737 62.958H67.3924V56.5952V50.2324H68.4178C69.492 50.2324 69.9477 50.0178 70.3058 49.3585C70.4197 49.1592 70.4848 48.0553 70.4848 46.4761V43.9156L69.9314 43.3943C69.4269 42.9191 69.2967 42.8731 68.3853 42.8731H67.3924V36.5103V30.1475H68.3853C69.2967 30.1475 69.4269 30.1015 69.9314 29.6262L70.4848 29.1049V26.5444C70.4848 24.9653 70.4197 23.8613 70.3058 23.662C69.9477 23.0028 69.492 22.7881 68.4178 22.7881H67.3924V16.18C67.3924 8.77463 67.425 8.94328 66.2206 8.36066C65.651 8.08469 65.1464 8.06936 56.9924 8.06936C51.9307 8.06936 48.2036 8.13068 47.9594 8.22268C47.3573 8.43732 47.1457 8.89729 47.3735 9.54123C47.4712 9.83254 47.699 10.1392 47.8618 10.2158C48.0571 10.3078 51.3122 10.3692 56.5529 10.3692H64.9511V16.5786V22.7881H63.9095H62.8678L62.8027 20.1357C62.7214 16.1953 62.9492 16.3487 57.0249 16.3487C52.5003 16.3487 52.3213 16.3793 51.7028 17.1613C51.3936 17.5599 51.361 17.8359 51.3122 20.197L51.2471 22.7881L50.4984 22.8034C49.3103 22.8034 48.643 23.0947 48.3175 23.708C48.0734 24.1373 48.0246 24.6586 48.0246 26.4065C48.0246 27.6024 48.1059 28.7829 48.2036 29.0436C48.5616 30.0248 48.3501 29.9942 57.0575 29.9942H64.9511V36.5103V43.0264H63.9095H62.8678L62.8027 40.3586C62.7214 36.3569 62.8516 36.4489 57.0575 36.4489C51.2634 36.4489 51.3936 36.3569 51.3122 40.3586L51.2471 43.0264H50.1566C48.9685 43.0264 48.4965 43.2717 48.171 44.0536C47.9269 44.6822 47.992 48.6226 48.2687 49.2512C48.6918 50.2324 48.7244 50.2324 57.3016 50.2324H64.9511V56.6719V63.1113H63.8932H62.8353V60.8269C62.8353 58.0824 62.7702 57.6991 62.1517 57.1165L61.6635 56.6719H57.0575H52.4515L51.9632 57.1165C51.3773 57.6838 51.2797 58.1591 51.2797 60.9035V63.0807L50.1404 63.142C49.1638 63.188 48.936 63.2647 48.5454 63.6173L48.1059 64.0313V66.7144V69.3975L48.5616 69.8114L49.0011 70.2407L56.9761 70.2867L64.9511 70.3327V73.3838V76.4502H54.6975H44.4439V70.716V64.9665L44.0208 64.6599C43.4511 64.2459 43.0605 64.2612 42.5722 64.7212L42.1654 65.0892V70.7773V76.4502H35.4924H28.8194V47.5647C28.8194 27.4184 28.7706 18.5565 28.6404 18.2192C28.2986 17.2992 26.8989 17.2992 26.5571 18.2192C26.4269 18.5565 26.3781 27.3264 26.3781 47.5647V76.4502H16.1245H5.8709L5.90345 73.4145L5.95228 70.394L13.8459 70.3174C22.0976 70.2407 22.2441 70.2254 22.6347 69.5508C22.8463 69.1675 22.8463 64.2612 22.6347 63.8626C22.358 63.3873 21.5931 63.1113 20.5352 63.1113H19.5586L19.5098 60.3362L19.461 57.5611L18.9239 57.1165L18.4031 56.6719H13.8459H9.28876L8.76794 57.1165L8.23085 57.5611L8.18203 60.3516L8.1332 63.1267L7.04274 63.0807L5.95228 63.0347L5.90345 56.6412L5.8709 50.2324H13.4227C17.573 50.2324 21.1862 50.1864 21.4791 50.1404C21.7558 50.0791 22.1627 49.8645 22.3906 49.6498C22.7975 49.2665 22.7975 49.2512 22.7975 46.5987V43.9156L22.3255 43.471C21.886 43.057 21.7558 43.0264 20.6979 43.0264H19.5424V40.4199C19.5424 37.5528 19.4447 37.1389 18.6309 36.7402C17.9962 36.4183 9.71193 36.4029 9.07718 36.7249C8.29595 37.1235 8.14947 37.6908 8.14947 40.4813V43.0417L7.05901 42.9957L5.95228 42.9497V36.5103V30.0708L13.9761 29.9942L22.0162 29.9175L22.4068 29.4882C22.7812 29.0742 22.7975 28.9822 22.7975 26.4065C22.7975 23.7694 22.7975 23.754 22.3906 23.3707C21.9511 22.9414 21.3652 22.7881 20.2585 22.7881H19.5424V20.2583C19.5424 16.2413 19.7051 16.3487 13.8459 16.3487C10.6396 16.3487 9.64682 16.3946 9.19111 16.5786C8.29595 16.9313 8.14947 17.4526 8.14947 20.335V22.7881H7.01019H5.8709L5.90345 16.6093L5.95228 10.4458L16.1733 10.3998L26.3781 10.3692V12.1937C26.3781 13.2363 26.4595 14.2022 26.5571 14.4168C26.964 15.2447 28.2335 15.2447 28.6404 14.4015C28.7543 14.1562 28.8194 12.1783 28.8194 8.29934V2.54983H35.4924H42.1654V31.9107C42.1654 61.0722 42.1654 61.2715 42.4909 61.5781C42.6862 61.7621 43.028 61.8848 43.386 61.8848C44.4928 61.8848 44.4114 64.3226 44.4602 31.2974C44.4928 8.08469 44.4602 1.32327 44.3137 1.06262C43.8255 0.234695 44.037 0.250023 35.411 0.250023H27.4197L26.8989 0.725319ZM17.2312 20.6723L17.2801 22.7881H13.8459H10.4281V20.7489C10.4281 19.6144 10.4769 18.6485 10.542 18.5871C10.6071 18.5411 12.1207 18.5105 13.911 18.5258L17.1824 18.5718L17.2312 20.6723ZM60.394 20.6416V22.7881H57.0575H53.721V20.6416V18.4951H57.0575H60.394V20.6416ZM20.5189 26.4678V27.8477H11.7301H2.9413V26.4678V25.0879H11.7301H20.5189V26.4678ZM68.0435 26.4678V27.8477L59.2221 27.817L50.3845 27.771L50.3357 26.6364C50.3031 26.0078 50.3194 25.4099 50.3682 25.2872C50.4333 25.1186 52.0446 25.0879 59.2547 25.0879H68.0435V26.4678ZM17.2312 40.8339L17.1824 42.9497H13.8459H10.5094L10.4606 40.8339L10.4118 38.7334H13.8459H17.2801L17.2312 40.8339ZM60.394 40.8799V43.0264H57.0575H53.721V40.8799V38.7334H57.0575H60.394V40.8799ZM20.5189 46.5527V47.9326H11.7301H2.9413V46.5527V45.1729H11.7301H20.5189V46.5527ZM68.0435 46.5527V47.9326H59.1733H50.3031V46.6601C50.3031 45.9548 50.352 45.3262 50.4171 45.2802C50.4659 45.2189 54.4697 45.1729 59.2872 45.1729H68.0435V46.5527ZM17.2638 60.9648V63.1113H13.8459H10.4281V60.9648V58.8184H13.8459H17.2638V60.9648ZM60.394 60.9648V63.1113H57.0575H53.721V60.9648V58.8184H57.0575H60.394V60.9648ZM20.5189 66.7144V68.1709H11.7301H2.9413V66.7144V65.2578H11.7301H20.5189V66.7144ZM68.0109 66.6684L67.9621 68.0942H59.1733H50.3845L50.3357 66.883C50.3031 66.2084 50.3194 65.5798 50.3682 65.4571C50.4333 65.2885 52.0609 65.2578 59.2547 65.2578H68.0597L68.0109 66.6684Z" fill="#1E1D85"/>
<path d="M31.9118 13.2822C31.6025 13.5735 31.5862 13.7882 31.5862 18.5718V23.57L31.9931 23.938C32.3837 24.3213 32.4163 24.3213 35.4924 24.3213C38.3569 24.3213 38.601 24.306 38.9102 24.0146C39.0893 23.846 39.2683 23.5547 39.3171 23.3707C39.366 23.1714 39.3985 20.9022 39.366 18.3265C39.3171 13.9568 39.3008 13.6042 39.0079 13.2976C38.7149 12.9909 38.5359 12.9756 35.4598 12.9756C32.4488 12.9756 32.221 12.9909 31.9118 13.2822ZM36.9572 18.6484V22.1901L35.4598 22.1441L33.9462 22.0981L33.8974 18.6024L33.8648 15.1221H35.411H36.9572V18.6484Z" fill="#1E1D85"/>
<path d="M32.2861 34.1338C32.0908 34.2105 31.8629 34.4098 31.7653 34.5784C31.6513 34.7778 31.5862 36.6023 31.5862 39.776C31.5862 44.3756 31.6025 44.6976 31.8955 45.0349C32.2047 45.3875 32.2861 45.4029 35.0367 45.4488C38.3406 45.5102 38.9591 45.4029 39.2195 44.6822C39.4636 44.0536 39.4636 35.4217 39.2357 34.7931C39.1381 34.5324 38.8777 34.2565 38.6498 34.1491C38.1616 33.9498 32.8232 33.9345 32.2861 34.1338ZM36.9572 39.73V43.1797H35.411H33.8648V39.73V36.2803H35.411H36.9572V39.73Z" fill="#1E1D85"/>
<path d="M31.9931 55.522L31.5862 55.8899V60.8882C31.5862 65.6718 31.6025 65.8864 31.9118 66.1777C32.221 66.469 32.4488 66.4844 35.4598 66.4844C38.5359 66.4844 38.7149 66.469 39.0079 66.1624C39.3008 65.8558 39.3171 65.5338 39.3171 60.7809V55.7213L38.9265 55.43C38.5847 55.1693 38.2592 55.1387 35.4598 55.1387C32.4163 55.1387 32.3837 55.1387 31.9931 55.522ZM36.9572 60.8115V64.3379H35.411H33.8648V60.9188C33.8648 59.033 33.9136 57.4385 33.9787 57.3925C34.0276 57.3312 34.7274 57.2852 35.5249 57.2852H36.9572V60.8115Z" fill="#1E1D85"/>
<path d="M2.94128 26.4678V27.6944H11.6487H20.3561V26.4678V25.2412H11.6487H2.94128V26.4678Z" fill="#6C60FE"/>
<path d="M50.4659 26.4678V27.6944H59.1733H67.8807V26.4678V25.2412H59.1733H50.4659V26.4678Z" fill="#6C60FE"/>
<path d="M2.94128 46.6294V47.9326H11.6487H20.3561V46.6294V45.3262H11.6487H2.94128V46.6294Z" fill="#6C60FE"/>
<path d="M50.4659 46.6294V47.9326H59.1733H67.8807V46.6294V45.3262H59.1733H50.4659V46.6294Z" fill="#6C60FE"/>
<path d="M2.94131 66.7144V68.0176H11.6487H20.3561V66.7144V65.4111H11.6487H2.94131V66.7144Z" fill="#6C60FE"/>
<path d="M50.4659 66.7144V68.0176H59.1733H67.8807V66.7144V65.4111H59.1733H50.4659V66.7144Z" fill="#6C60FE"/>
</svg>
