<svg width="71" height="71" viewBox="0 0 71 71" fill="none" xmlns="http://www.w3.org/2000/svg">
<path d="M0.791667 0.834801C0.536458 1.13914 0.5 4.6848 0.5 35.5C0.5 66.3152 0.536458 69.8609 0.791667 70.1652L1.0651 70.5H35.5H69.9349L70.2083 70.1652C70.4635 69.8609 70.5 66.9696 70.5 42.3174C70.5 15.0022 70.5 14.8044 70.1354 14.5C69.7708 14.1957 69.5339 14.1957 56.099 14.1957H42.4271V10.2544V6.31306L43.8125 6.25219C45.7083 6.1761 45.7083 6.19132 45.7083 3.31523C45.7083 1.27611 45.6719 0.971756 45.3802 0.758713C45.0703 0.515236 43.2656 0.500015 23.0495 0.500015H1.0651L0.791667 0.834801ZM43.7031 3.31523V4.45654H24.9635C8.30208 4.45654 6.1875 4.48698 5.82292 4.70002L5.42188 4.92828V36.8848V68.8261H3.96354H2.50521V35.5V2.17393H23.1042H43.7031V3.31523ZM40.4219 10.2391V14.1957H33.5859C26.987 14.1957 26.7318 14.2109 26.3854 14.5C26.0573 14.7739 26.0208 15.0022 26.0208 17.087C26.0208 19.9935 26.0208 19.9783 28.3906 19.9783H30.0312V30.7826V41.587H28.3177C25.9479 41.587 26.0208 41.5109 26.0208 44.2957C26.0208 47.2478 26.0026 47.2174 28.3177 47.2174H30.0312V58.0218V68.8261H18.7292H7.42708V37.5544V6.28262H23.9245H40.4219V10.2391ZM68.4948 42.3478V68.8261H67.0365H65.5781V43.7478C65.5781 24.4522 65.5234 18.6239 65.3594 18.487C65.1953 18.35 60.8021 18.3044 46.6745 18.3044H28.2083V17.087V15.8696H48.3516H68.4948V42.3478ZM63.5729 30.7826V41.587H47.8047H32.0365V30.7826V19.9783H47.8047H63.5729V30.7826ZM63.5729 44.4022V45.5435H45.8906H28.2083V44.4022V43.2609H45.8906H63.5729V44.4022ZM45.7083 58.0218V68.8261H43.7031H41.6979V61.0957C41.6979 55.2826 41.6432 53.3196 41.4792 53.1826C41.3151 53.0457 39.9844 53 36.6484 53H32.0365V50.1087V47.2174H38.8724H45.7083V58.0218ZM48.8073 58.0218V68.8261H48.2604H47.7135V58.0218V47.2174H48.2604H48.8073V58.0218ZM63.5729 58.0218V68.8261H57.1927H50.8125V58.0218V47.2174H57.1927H63.5729V58.0218ZM39.6927 61.75V68.8261H35.8646H32.0365V61.75V54.6739H35.8646H39.6927V61.75Z" fill="#1E1D85"/>
<path d="M9.28644 7.83482C9.12238 7.97178 9.06769 11.0305 9.06769 20.6783V33.3544L9.46873 33.5826C9.81508 33.7805 10.5443 33.8261 13.8073 33.8261C17.0703 33.8261 17.7995 33.7805 18.1458 33.5826L18.5469 33.3544V20.8C18.5469 12.4305 18.4922 8.13917 18.3646 7.94134C18.1823 7.66743 17.9271 7.65221 13.8437 7.65221C10.7083 7.65221 9.4505 7.69786 9.28644 7.83482ZM16.6875 20.6935L16.7239 32.1522H13.8073H10.8906V20.6631V9.15873L13.7708 9.20438L16.6328 9.25004L16.6875 20.6935Z" fill="#1E1D85"/>
<path d="M9.35935 36.6566C9.10415 36.8696 9.06769 38.2392 9.06769 49.5C9.06769 60.7609 9.10415 62.1305 9.35935 62.3435C9.59633 62.5566 10.2526 62.587 13.789 62.587C17.5807 62.587 17.9635 62.5566 18.237 62.3131C18.5286 62.0544 18.5469 60.9435 18.5469 49.4544C18.5469 38.2392 18.5104 36.8696 18.2552 36.6566C18.0182 36.4435 17.3437 36.4131 13.8073 36.4131C10.2708 36.4131 9.59633 36.4435 9.35935 36.6566ZM16.6328 49.5V60.9892H13.8073H10.9818L10.9271 49.6522C10.9088 43.4131 10.9271 38.2239 10.9818 38.1174C11.0364 37.9652 11.7291 37.9348 13.8437 37.9652L16.6328 38.0109V49.5Z" fill="#1E1D85"/>
<path d="M46.1094 22.3522L45.7083 22.5805V31.2391C45.7083 38.9087 45.7448 39.9131 46 40.1261C46.237 40.3391 47.112 40.3696 52.7083 40.3696C58.7057 40.3696 59.1614 40.3544 59.4349 40.0957C59.7083 39.837 59.7448 39 59.7448 31.2696C59.7448 22.9152 59.7448 22.7174 59.3802 22.4131C59.0338 22.1239 58.7786 22.1087 52.763 22.1087C47.4036 22.1087 46.4557 22.1391 46.1094 22.3522ZM57.7396 31.2391V38.6957H52.7265H47.7135V31.2391V23.7826H52.7265H57.7396V31.2391Z" fill="#1E1D85"/>
<path d="M50.776 26.9326C50.4844 27.2217 48.9896 30.4935 48.9896 30.8435C48.9896 31.4065 50.3568 31.7717 50.7943 31.3457C51.1406 30.9804 52.4531 27.9065 52.4531 27.4348C52.4531 26.7196 51.3411 26.4 50.776 26.9326Z" fill="#1E1D85"/>
<path d="M53.6745 26.9326C53.2916 27.3131 50.0833 34.4957 50.0833 35.0131C50.0833 35.2565 50.1745 35.5152 50.3021 35.6218C50.6302 35.8957 51.4505 35.85 51.7604 35.5305C52.1068 35.1957 55.3698 27.9065 55.3698 27.4805C55.3698 26.7652 54.2578 26.4152 53.6745 26.9326Z" fill="#1E1D85"/>
<path d="M37.3594 60.3957C36.612 60.8218 37.0677 61.8261 38.0157 61.8261C38.3985 61.8261 38.9636 61.3087 38.9636 60.9587C38.9636 60.7 38.3073 60.1522 37.9974 60.1522C37.8698 60.1522 37.5782 60.2587 37.3594 60.3957Z" fill="#1E1D85"/>
<path d="M11.0729 19.9783V31.3913H13.8073H16.5416V19.9783V8.56525H13.8073H11.0729V19.9783Z" fill="#6C60FE"/>
<path d="M11.0729 48.7391V60.1522H13.8073H16.5416V48.7391V37.3261H13.8073H11.0729V48.7391Z" fill="#6C60FE"/>
</svg>
