<svg width="71" height="71" viewBox="0 0 71 71" fill="none" xmlns="http://www.w3.org/2000/svg">
<path d="M34.0234 0.692139C33.5449 0.80175 32.793 1.08948 32.3555 1.3361C31.3027 1.92525 0.964844 27.2589 0.705078 27.7658C0.595703 27.9713 0.5 28.4783 0.5 28.8756C0.5 30.2046 1.33398 31.0404 2.66016 31.0404C3.05664 31.0404 3.52148 30.9719 3.68555 30.876C4.0957 30.6705 6.33789 28.7934 6.85742 28.2453C7.08984 27.9987 13.3652 22.71 20.8164 16.4897C29.7715 9.00879 34.543 5.11764 34.8711 5.00803C35.5273 4.80251 36.1426 4.91212 36.8262 5.39166C37.127 5.59718 42.8555 10.3378 49.5684 15.9416L61.75 26.1353V45.3171C61.75 66.554 61.8184 65.0743 60.875 65.7456C60.4512 66.0471 60.4102 66.0471 54.5449 66.0882L48.625 66.1293V54.1681C48.625 47.3723 48.5566 41.7685 48.4883 41.1793C48.1191 38.3295 45.7949 35.9728 42.9512 35.5618C42.4316 35.4933 39.0684 35.4248 35.5 35.4248C31.9316 35.4248 28.582 35.4933 28.0488 35.5618C25.2051 35.9728 22.8809 38.3295 22.5117 41.1793C22.4434 41.7685 22.375 47.3723 22.375 54.1681V66.1293L16.4688 66.0882C10.5898 66.0471 10.5488 66.0471 10.125 65.7456C9.19531 65.088 9.25 65.9238 9.25 51.0853C9.25 43.3852 9.19531 37.4526 9.11328 37.1374C8.92188 36.288 8.11523 35.6166 7.1582 35.4933C6.25586 35.3837 5.68164 35.6303 5.17578 36.3839L4.875 36.836L4.90234 51.236L4.94336 65.636L5.43555 66.6636C6.29688 68.4448 7.5957 69.6231 9.35938 70.2122C10.1934 70.5 10.3301 70.5 35.5 70.5C60.752 70.5 60.8066 70.5 61.6406 70.2122C63.6777 69.5272 65.3184 67.8419 65.9199 65.8004C66.0977 65.1976 66.125 62.7725 66.125 47.5915C66.125 37.9595 66.1523 30.0813 66.1934 30.0813C66.2344 30.0813 66.5352 30.3005 66.8906 30.5608C67.4375 30.9856 67.6152 31.0404 68.2852 31.0404C69.6797 31.0404 70.5 30.232 70.5 28.8756C70.5 28.4783 70.418 27.985 70.3086 27.7795C70.1992 27.574 67.4922 25.2174 64.293 22.5456L58.4688 17.6817V13.5713C58.4688 9.72126 58.4551 9.43353 58.1953 9.00879C57.7852 8.35114 57.1699 8.0223 56.2812 8.0223C55.3926 8.0223 54.7773 8.35114 54.3672 9.00879C54.1211 9.40613 54.0938 9.70756 54.0938 11.6942C54.0938 12.9273 54.0391 13.9138 53.9844 13.8864C53.916 13.859 50.6211 11.1325 46.6699 7.81678C42.7051 4.50108 39.1094 1.58272 38.6582 1.3361C37.8105 0.870255 36.3477 0.486618 35.4316 0.50032C35.1309 0.50032 34.502 0.59623 34.0234 0.692139ZM43.375 40.1791C44.291 40.8368 44.25 40.1243 44.25 53.7708V66.1156H35.5H26.75L26.7773 53.6063L26.8184 41.1108L27.1191 40.6861C27.7617 39.7818 27.543 39.8092 35.6367 39.8503L42.9512 39.8777L43.375 40.1791Z" fill="#1E1D85"/>
<path d="M39.5607 40.2477C39.7931 40.6724 39.8068 41.5356 39.8478 53.4145L39.8751 66.1156H42.0626H44.2501V54.0859C44.2501 45.9885 44.1954 41.8918 44.0997 41.5493C43.8947 40.8094 43.2111 40.0969 42.5411 39.9462C42.2404 39.8777 41.3927 39.8092 40.6544 39.8092H39.3146L39.5607 40.2477Z" fill="#8A909A"/>
<path d="M28.2949 39.9599C27.707 40.1243 27.0645 40.8094 26.8867 41.426C26.8047 41.7548 26.75 46.1529 26.75 54.0174V66.1156H33.3125H39.875L39.8477 53.4145C39.8066 41.5356 39.793 40.6724 39.5605 40.2477L39.3145 39.8092L34.0234 39.8229C31.1113 39.8229 28.541 39.8914 28.2949 39.9599ZM34.4199 51.0853C35.8691 52.0581 35.8691 53.8667 34.4199 54.8395C33.0801 55.7438 31.125 54.634 31.125 52.9624C31.125 51.7704 32.123 50.7702 33.3125 50.7702C33.75 50.7702 34.1055 50.8661 34.4199 51.0853Z" fill="#6C60FE"/>
</svg>
