<svg width="71" height="71" viewBox="0 0 71 71" fill="none" xmlns="http://www.w3.org/2000/svg">
<g clip-path="url(#clip0_81_43531)">
<path d="M35.3086 0.855469L34.9531 1.22461V12.9414V24.6582L35.3086 25.0273L35.6777 25.3828H43.5117H51.3594V28.1172V30.8516H36.2383C21.8828 30.8516 21.1172 30.8379 21.2129 30.6055C21.6094 29.6758 21.6914 29.0332 21.6914 27.0234V24.877L22.7578 24.3438C24.3027 23.5645 26.0801 21.7734 26.8594 20.1875C27.543 18.7793 27.8438 17.5898 27.8438 16.209C27.8438 15.2656 27.8164 15.1289 27.4883 14.8008L27.1191 14.4453H24.0293C21.8555 14.4453 20.7207 14.5 20.2148 14.6367L19.5039 14.8145L19.4219 14.459C18.7656 11.4922 17.3848 8.85352 15.416 6.81641C14.8965 6.29688 14.7871 6.24219 14.1719 6.24219C13.543 6.24219 13.4336 6.29688 12.9277 6.81641C10.9863 8.82617 9.53711 11.5742 8.92188 14.459L8.83984 14.8145L8.12891 14.6367C7.62305 14.5 6.48828 14.4453 4.31445 14.4453H1.22461L0.855469 14.8008C0.527344 15.1289 0.5 15.2656 0.5 16.209C0.5 17.5898 0.800781 18.7793 1.48438 20.1875C2.26367 21.7734 4.04102 23.5645 5.59961 24.3438L6.65234 24.877V27.0234C6.65234 29.0332 6.73438 29.6758 7.13086 30.6055C7.22656 30.8379 7.03516 30.8516 4.21875 30.8516H1.22461L0.855469 31.207L0.5 31.5762V50.6758V69.7754L0.855469 70.1445C1.14258 70.4316 1.34766 70.5 1.86719 70.5C2.38672 70.5 2.5918 70.4316 2.87891 70.1445C3.2207 69.7891 3.23438 69.7344 3.23438 68.0938V66.3984H14.1719H25.1094V68.0938C25.1094 69.7344 25.123 69.7891 25.4648 70.1445C25.9844 70.6504 26.9688 70.6504 27.4883 70.1445L27.8438 69.7754V55.7891V41.7891H47.8047H67.7656V55.7891V69.7754L68.1211 70.1445C68.4082 70.4316 68.6133 70.5 69.1328 70.5C69.6523 70.5 69.8574 70.4316 70.1445 70.1445L70.5 69.7754V50.6758V31.5762L70.1445 31.207L69.7754 30.8516H61.9414H54.0938V28.1172V25.3828H61.9414H69.7754L70.1445 25.0273L70.5 24.6582V12.9414V1.22461L70.1445 0.855469L69.7754 0.5H64.0059H58.2363L57.8535 0.869141C57.5391 1.19727 57.498 1.33398 57.5527 1.85352C57.5938 2.25 57.7305 2.56445 57.9766 2.81055L58.332 3.16602L63.0488 3.20703L67.7656 3.24805V12.9414V22.6484H52.7266H37.6875V12.9414V3.24805L42.4043 3.20703L47.1211 3.16602L47.4766 2.81055C47.7227 2.56445 47.8594 2.25 47.9004 1.85352C47.9551 1.33398 47.9141 1.19727 47.5996 0.869141L47.2168 0.5H41.4473H35.6777L35.3086 0.855469ZM14.8145 10.5078C15.7852 11.957 16.5781 13.9941 16.8105 15.6895C16.8789 16.1406 16.8242 16.2227 16.0312 16.9336C15.5664 17.3574 14.9785 18 14.7188 18.3828C14.459 18.7793 14.2129 19.0801 14.1719 19.0801C14.1309 19.0801 13.8848 18.7793 13.625 18.3828C13.3652 18 12.7773 17.3574 12.3125 16.9336C11.5195 16.2227 11.4648 16.1406 11.5332 15.6895C11.6562 14.7734 12.1211 13.2012 12.5312 12.2852C12.9277 11.4102 14.0215 9.66016 14.1719 9.66016C14.2129 9.66016 14.5 10.043 14.8145 10.5078ZM7.69141 17.3711C9.52344 17.8633 11.2461 19.2578 12.0527 20.9395C12.3125 21.459 12.5586 22.0605 12.6133 22.2656L12.6953 22.6484H10.877C9.76953 22.6484 8.77148 22.5664 8.34766 22.457C7.28125 22.1699 6.03711 21.4453 5.23047 20.6523C4.49219 19.9141 3.61719 18.4238 3.43945 17.6172L3.34375 17.1797H5.17578C6.26953 17.1797 7.26758 17.2617 7.69141 17.3711ZM24.9043 17.6172C24.7402 18.4102 23.8652 19.9004 23.1406 20.6387C22.3613 21.4316 21.0762 22.1699 19.9961 22.457C19.5723 22.5664 18.5742 22.6484 17.4668 22.6484H15.6484L15.7305 22.2656C15.7852 22.0605 16.0312 21.459 16.291 20.9395C17.084 19.2852 18.8066 17.8633 20.584 17.3711C20.9395 17.2754 22.0469 17.1934 23.0996 17.1934L25 17.1797L24.9043 17.6172ZM18.957 27.0234C18.957 28.9102 18.8613 29.3066 18.2188 30.0039C17.5352 30.7695 17.1387 30.8516 14.1719 30.8516C11.2461 30.8516 10.9863 30.7969 10.2344 30.1133C9.53711 29.498 9.38672 28.9512 9.38672 27.1055V25.3828L13.9395 25.3418C16.4277 25.3281 18.5879 25.3008 18.7246 25.2734C18.9297 25.2461 18.957 25.4102 18.957 27.0234ZM67.7656 36.3203V39.0547H35.5H3.23438V36.3203V33.5859H35.5H67.7656V36.3203ZM25.1094 46.5742V51.3594H14.1719H3.23438V46.5742V41.7891H14.1719H25.1094V46.5742ZM25.1094 58.8789V63.6641H14.1719H3.23438V58.8789V54.0938H14.1719H25.1094V58.8789Z" fill="#1E1D85"/>
<path d="M13.2695 45.6719C12.6269 46.3145 12.6406 46.8477 13.2832 47.4902C13.707 47.9141 13.8301 47.9688 14.2676 47.9004C14.9101 47.791 15.3887 47.3125 15.498 46.6699C15.5664 46.2324 15.5117 46.1094 15.0879 45.6856C14.4453 45.043 13.9121 45.0293 13.2695 45.6719Z" fill="#1E1D85"/>
<path d="M13.2695 57.9766C12.6269 58.6191 12.6406 59.1523 13.2832 59.7949C13.707 60.2188 13.8301 60.2734 14.2676 60.2051C14.9101 60.0957 15.3887 59.6172 15.498 58.9746C15.5664 58.5371 15.5117 58.4141 15.0879 57.9902C14.4453 57.3477 13.9121 57.334 13.2695 57.9766Z" fill="#1E1D85"/>
<path d="M51.7149 0.855467C51.168 1.41601 51.209 2.15429 51.8379 2.7832C52.2617 3.20703 52.3848 3.26172 52.8223 3.19336C53.5195 3.07031 53.9707 2.57812 54.0527 1.85351C54.1074 1.33398 54.0664 1.19726 53.752 0.869138C53.2188 0.349607 52.2344 0.335935 51.7149 0.855467Z" fill="#1E1D85"/>
<path d="M13.6797 10.4395C12.6953 11.9434 11.998 13.6387 11.7109 15.2246L11.5605 16.0859L12.5723 17.0703C13.1328 17.6172 13.7207 18.2461 13.8711 18.4785L14.1719 18.8887L14.4727 18.4785C14.623 18.2461 15.2109 17.6172 15.7715 17.0703L16.7832 16.0859L16.6328 15.2246C16.4277 14.1309 16.0449 12.9824 15.5117 11.9297C15.0469 11.0137 14.2812 9.79688 14.1719 9.79688C14.1309 9.79688 13.9121 10.084 13.6797 10.4395Z" fill="white"/>
<path d="M3.5625 17.6035C3.71289 18.4102 4.4375 19.6953 5.13477 20.4336C6.61133 21.9648 7.96484 22.498 10.7402 22.6074L12.5723 22.6895L12.4902 22.2246C12.2168 20.8574 10.7539 18.957 9.3457 18.1504C8.21094 17.5078 7.30859 17.3027 5.29883 17.2207L3.4668 17.1387L3.5625 17.6035Z" fill="white"/>
<path d="M21.623 17.2754C20.8164 17.3848 19.6953 17.7539 18.998 18.1504C17.5898 18.957 16.127 20.8574 15.8535 22.2246L15.7715 22.6895L17.6035 22.6074C20.3789 22.498 21.7324 21.9648 23.209 20.4336C23.9062 19.709 24.6309 18.4102 24.7812 17.6172L24.877 17.1797L23.4551 17.1934C22.6758 17.207 21.8555 17.248 21.623 17.2754Z" fill="white"/>
<path d="M3.23438 36.3203V39.0547H35.5H67.7656V36.3203V33.5859H35.5H3.23438V36.3203Z" fill="#6C60FE"/>
<path d="M3.23438 46.5742V51.3594H14.1719H25.1094V46.5742V41.7891H14.1719H3.23438V46.5742ZM15.1562 45.5762C15.4707 45.877 15.5391 46.0547 15.5391 46.5605C15.5391 47.4355 15.0469 47.9414 14.1719 47.9414C13.3105 47.9414 12.8047 47.4355 12.8047 46.5742C12.8047 45.7129 13.3105 45.207 14.1582 45.207C14.6367 45.207 14.8555 45.2891 15.1562 45.5762Z" fill="#6C60FE"/>
<path d="M3.23438 58.8789V63.6641H14.1719H25.1094V58.8789V54.0938H14.1719H3.23438V58.8789ZM15.1562 57.8809C15.4707 58.1816 15.5391 58.3594 15.5391 58.8652C15.5391 59.7402 15.0469 60.2461 14.1719 60.2461C13.3105 60.2461 12.8047 59.7402 12.8047 58.8789C12.8047 58.0176 13.3105 57.5117 14.1582 57.5117C14.6367 57.5117 14.8555 57.5938 15.1562 57.8809Z" fill="#6C60FE"/>
<path d="M47.9414 2.1543C47.9414 2.30469 47.7637 2.61914 47.5449 2.83789L47.1484 3.23438H42.418H37.6875V12.9414V22.6484H52.7266H67.7656V12.9414V3.23438H63.0352H58.3047L57.9082 2.83789C57.6895 2.61914 57.5117 2.30469 57.5117 2.1543C57.5117 1.88086 57.4434 1.86719 55.8027 1.86719C54.1621 1.86719 54.0938 1.88086 54.0938 2.1543C54.0938 2.30469 53.916 2.61914 53.6973 2.83789C53.3828 3.15234 53.1777 3.23438 52.7266 3.23438C52.2754 3.23438 52.0703 3.15234 51.7559 2.83789C51.5371 2.61914 51.3594 2.30469 51.3594 2.1543C51.3594 1.88086 51.291 1.86719 49.6504 1.86719C48.0098 1.86719 47.9414 1.88086 47.9414 2.1543Z" fill="#FAFAFF"/>
<path d="M9.38672 26.791C9.38672 28.5273 9.61914 29.4023 10.248 30.0039C10.959 30.6875 11.6973 30.8516 14.1719 30.8516C16.6465 30.8516 17.3848 30.6875 18.0957 30.0039C18.7246 29.4023 18.957 28.5273 18.957 26.791V25.3828H14.1719H9.38672V26.791Z" fill="#727272"/>
</g>
<defs>
<clipPath id="clip0_81_43531">
<rect width="70" height="70" fill="white" transform="translate(0.5 0.5)"/>
</clipPath>
</defs>
</svg>
