<svg width="25" height="26" viewBox="0 0 25 26" fill="none" xmlns="http://www.w3.org/2000/svg">
<path d="M8.4591 2.84209C5.2759 5.09744 4.67051 5.72393 5.35402 5.99541C5.51025 6.05805 7.05302 5.09744 8.8692 3.8027L12.111 1.48471L17.6572 5.43157C20.7037 7.62427 23.2619 9.50373 23.3401 9.62902C23.3986 9.73344 23.3205 9.9005 23.1448 9.96315C22.9299 10.0467 21.0942 8.85636 17.6767 6.41306C14.8255 4.38742 12.3258 2.73768 12.1305 2.73768C11.9157 2.73768 9.39648 4.38742 6.54527 6.41306C1.83883 9.75432 0.784276 10.339 0.784276 9.67079C0.784276 9.56637 1.5459 8.93989 2.46375 8.29252C4.04559 7.16485 4.37758 6.68454 3.65501 6.53836C3.34255 6.47571 1.31155 7.81221 0.452286 8.64753C-0.426511 9.48284 0.0617097 11.0908 1.17485 11.0908C1.4092 11.0908 1.91695 10.9029 2.26847 10.6523L2.93244 10.2137V16.6039V22.9941H2.05365C0.647574 22.9941 0.00312327 23.9756 0.70616 25.0406L0.999093 25.5H12.111H23.2229L23.5158 25.0406C24.2188 23.9756 23.5744 22.9941 22.1879 22.9941H21.3091L21.2505 21.9081C21.2114 21.0937 21.1138 20.8014 20.8989 20.8014C20.6841 20.8014 20.5865 21.0937 20.5474 21.9081L20.4888 22.9941H18.8289H17.1885V21.7411V20.4881H20.6646C23.4768 20.4881 24.2188 20.4255 24.5704 20.154C24.9805 19.8407 25 19.7363 25 15.9148C25 13.1582 24.9219 11.9261 24.7657 11.7591C24.6094 11.592 23.4572 11.5085 20.8599 11.5085H17.1885V10.8193C17.1885 9.7752 16.7198 9.21137 15.841 9.21137C14.9036 9.21137 14.4544 9.71255 14.4544 10.7358V11.5085H10.6463C7.09208 11.5085 6.83821 11.5294 6.64292 11.9053C6.34999 12.5317 6.38904 19.4857 6.70151 19.9452C6.83821 20.1331 7.32643 20.3628 7.77559 20.4255L8.5958 20.5508V21.762V22.9941H6.1547H3.7136V16.3115V9.60814L7.83418 6.70542C10.0995 5.09744 12.0133 3.78182 12.0915 3.78182C12.1696 3.78182 14.1029 5.09744 16.3683 6.70542C20.4693 9.58726 20.5084 9.62902 20.5084 10.3599C20.5084 10.882 20.5865 11.0908 20.8208 11.0908C20.9966 11.0908 21.1724 10.9029 21.2309 10.6732L21.3286 10.2555L21.973 10.6732C22.3246 10.9029 22.8323 11.0908 23.0862 11.0908C24.1603 11.0908 24.629 9.46196 23.7892 8.64753C23.0081 7.89575 12.6187 0.586744 12.2086 0.503212C11.9548 0.440563 10.6073 1.29676 8.4591 2.84209ZM16.212 10.9029C16.212 11.4041 16.1339 11.5085 15.7238 11.5085C15.1965 11.5085 15.0989 11.1326 15.4309 10.4643C15.7238 9.9005 16.212 10.172 16.212 10.9029ZM24.1798 15.9356L24.2188 19.444H15.8215H7.42407V15.8939V12.3438L15.7824 12.3856L24.1212 12.4482L24.1798 15.9356ZM14.4544 21.7411V22.9941H12.0133H9.57224V21.7411V20.4881H12.0133H14.4544V21.7411ZM16.212 22.472C16.212 24.4559 16.212 24.4559 15.7238 24.4559C15.2356 24.4559 15.2356 24.4559 15.2356 22.472C15.2356 20.4881 15.2356 20.4881 15.7238 20.4881C16.212 20.4881 16.212 20.4881 16.212 22.472ZM14.4544 24.247C14.4544 24.3723 12.15 24.4559 7.91229 24.4559C3.67454 24.4559 1.37014 24.3723 1.37014 24.247C1.37014 24.1217 3.67454 24.0382 7.91229 24.0382C12.15 24.0382 14.4544 24.1217 14.4544 24.247ZM22.8518 24.247C22.8518 24.3723 21.7777 24.4559 20.0202 24.4559C18.2626 24.4559 17.1885 24.3723 17.1885 24.247C17.1885 24.1217 18.2626 24.0382 20.0202 24.0382C21.7777 24.0382 22.8518 24.1217 22.8518 24.247Z" fill="#292E40"/>
<path d="M9.96277 15.8939C9.96277 17.836 9.9823 17.9822 10.3533 17.9822C10.6853 17.9822 10.7439 17.836 10.7439 17.1469C10.7439 16.6874 10.822 16.3115 10.9002 16.3115C10.9978 16.3115 11.2321 16.6874 11.4274 17.1469C11.6422 17.6689 11.9156 17.9822 12.1305 17.9822C12.6968 17.9822 12.7554 17.6063 12.3258 16.8545C11.9742 16.2489 11.9547 16.1236 12.2086 16.0192C12.4039 15.9565 12.5015 15.6224 12.5015 15.0795C12.5015 14.0771 12.15 13.8056 10.8611 13.8056H9.96277V15.8939ZM11.6618 14.9542C11.7985 15.3509 11.7594 15.3718 11.1931 15.5598C10.8025 15.6851 10.7439 15.6433 10.7439 15.1839C10.7439 14.7871 10.8416 14.6409 11.1345 14.6409C11.3493 14.6409 11.5837 14.7871 11.6618 14.9542Z" fill="#292E40"/>
<path d="M12.9703 14.077C12.9117 14.2441 12.8922 15.163 12.9312 16.1236L12.9898 17.8777L14.2201 17.9404C15.3333 18.003 15.4309 17.9613 15.4309 17.5645C15.4309 17.2095 15.3137 17.1468 14.6497 17.1468C14.0053 17.1468 13.8686 17.0842 13.8686 16.7292C13.8686 16.4159 14.0053 16.3115 14.3763 16.3115C15.0208 16.3115 14.9622 15.6224 14.2982 15.518C14.0248 15.4762 13.8686 15.3091 13.8686 15.0377C13.8686 14.7035 14.0053 14.6409 14.6497 14.6409C15.2942 14.6409 15.4309 14.5782 15.4309 14.2232C15.4309 13.8473 15.2942 13.8056 14.2592 13.8056C13.4585 13.8056 13.0484 13.8891 12.9703 14.077Z" fill="#292E40"/>
<path d="M15.8215 15.873C15.8215 17.836 15.8411 17.9822 16.2121 17.9822C16.5441 17.9822 16.6027 17.836 16.6027 16.8754V15.7895L17.1495 16.8336C17.501 17.5436 17.8135 17.8986 18.1259 17.9404C18.5556 18.0031 18.5556 17.9613 18.5556 15.8939C18.5556 13.8265 18.5556 13.7847 18.1259 13.8474C17.7549 13.8891 17.6572 14.0562 17.6182 14.7245L17.5596 15.5598L17.13 14.7245C16.8566 14.2233 16.5246 13.8891 16.2512 13.8474C15.8411 13.7847 15.8215 13.8265 15.8215 15.873Z" fill="#292E40"/>
<path d="M18.8485 14.0144C18.6727 14.3276 18.9071 14.6408 19.3367 14.6408C19.6687 14.6408 19.7273 14.8288 19.7663 16.2488C19.8249 17.7524 19.864 17.8777 20.2741 17.9403C20.6842 18.003 20.7037 17.9612 20.7037 16.3324C20.7037 14.7661 20.7232 14.6617 21.1529 14.5991C21.3872 14.5573 21.5825 14.3902 21.5825 14.2232C21.5825 13.9726 21.2896 13.8891 20.2741 13.8473C19.532 13.8055 18.9266 13.8682 18.8485 14.0144Z" fill="#292E40"/>
<path d="M11.447 5.26468C10.1581 5.66145 9.51367 7.01884 9.96283 8.45976C10.451 10.0677 12.482 10.6107 13.6342 9.46214C15.4309 7.66621 13.7905 4.53378 11.447 5.26468ZM11.7204 6.7056C11.7204 7.01884 11.5837 7.12325 11.1931 7.12325C10.7049 7.12325 10.6854 7.12325 11.0369 6.7056C11.2322 6.47589 11.4665 6.28794 11.5642 6.28794C11.6423 6.28794 11.7204 6.47589 11.7204 6.7056ZM13.1851 6.7056C13.5366 7.12325 13.5171 7.12325 13.0289 7.12325C12.6383 7.12325 12.5016 7.01884 12.5016 6.7056C12.5016 6.47589 12.5797 6.28794 12.6578 6.28794C12.7554 6.28794 12.9898 6.47589 13.1851 6.7056ZM11.7204 8.58506C11.7204 8.81477 11.6423 9.00271 11.5642 9.00271C11.4665 9.00271 11.2322 8.81477 11.0369 8.58506C10.6854 8.1674 10.7049 8.1674 11.1931 8.1674C11.5837 8.1674 11.7204 8.27181 11.7204 8.58506ZM13.2827 8.33446C13.2827 8.41799 13.1851 8.60594 13.0484 8.75212C12.6969 9.12801 12.5016 9.06536 12.5016 8.58506C12.5016 8.31358 12.6383 8.1674 12.8922 8.1674C13.107 8.1674 13.2827 8.25093 13.2827 8.33446Z" fill="#292E40"/>
</svg>
