<svg width="21" height="20" viewBox="0 0 21 20" fill="none" xmlns="http://www.w3.org/2000/svg">
<path d="M8.49534 15C9.97449 14.9997 11.411 14.5045 12.5762 13.5933L16.2395 17.2566L17.4178 16.0783L13.7545 12.415C14.6662 11.2497 15.1617 9.81282 15.162 8.33329C15.162 4.65746 12.1712 1.66663 8.49534 1.66663C4.81951 1.66663 1.82867 4.65746 1.82867 8.33329C1.82867 12.0091 4.81951 15 8.49534 15ZM8.49534 3.33329C11.2528 3.33329 13.4953 5.57579 13.4953 8.33329C13.4953 11.0908 11.2528 13.3333 8.49534 13.3333C5.73784 13.3333 3.49534 11.0908 3.49534 8.33329C3.49534 5.57579 5.73784 3.33329 8.49534 3.33329Z" fill="#8A909A"/>
<path d="M9.67199 7.15495C9.98782 7.47162 10.162 7.88995 10.162 8.33328H11.8287C11.8294 7.89531 11.7433 7.46153 11.5754 7.05702C11.4075 6.65251 11.161 6.2853 10.8503 5.97662C9.58865 4.71662 7.40115 4.71662 6.14032 5.97662L7.31699 7.15662C7.95032 6.52495 9.04199 6.52662 9.67199 7.15495Z" fill="#8A909A"/>
</svg>
