<svg width="37" height="37" viewBox="0 0 37 37" fill="none" xmlns="http://www.w3.org/2000/svg">
<path d="M16.9252 0.581676C14.7782 1.03219 12.9551 2.44005 11.9977 4.38289C11.505 5.38951 11.3571 6.00896 11.3149 7.20564C11.2867 8.09259 11.3008 8.26153 11.4557 8.85987C11.5542 9.22591 11.7513 9.83129 11.8921 10.1973C12.1807 10.9294 13.0466 12.7033 13.483 13.4495C13.6379 13.7029 13.7575 13.9352 13.7575 13.9563C13.7575 13.9774 12.6312 13.9985 11.2586 13.9985H8.75964V12.9708C8.75964 12.2669 8.72445 11.8093 8.64701 11.5137C8.26689 10.0495 7.07725 8.85987 5.61308 8.47975C5.07106 8.33896 3.98701 8.33193 3.45906 8.47271C2.00193 8.85283 0.798217 10.0565 0.418096 11.5137C0.333624 11.8304 0.312506 12.4288 0.312506 14.3927V16.8635L0.495528 17.0536C0.643353 17.2014 0.748942 17.2366 1.01643 17.2366C1.28393 17.2366 1.38952 17.2014 1.53734 17.0536L1.72036 16.8635V14.8151C1.72036 13.6888 1.75556 12.5414 1.79076 12.2739C1.93154 11.2955 2.52988 10.4719 3.39571 10.0706C3.74767 9.90169 3.88142 9.88057 4.53607 9.88057C5.19073 9.88057 5.31743 9.90169 5.68348 10.0706C6.1903 10.31 6.80976 10.9224 7.03502 11.4151C7.13357 11.6193 7.23916 12.0064 7.28139 12.2739C7.32363 12.5837 7.35179 15.8217 7.35179 20.9182V29.0696L7.05614 28.8655C6.2255 28.2953 5.52157 28.0771 4.53607 28.0771C3.55057 28.0771 2.84665 28.2953 2.02305 28.8655L1.72036 29.0696V25.4515V21.8333L1.53734 21.6432C1.38952 21.4954 1.28393 21.4602 1.01643 21.4602C0.748942 21.4602 0.643353 21.4954 0.495528 21.6432L0.312506 21.8333V27.3873C0.312506 33.5185 0.305467 33.3636 0.755981 34.2365C1.07979 34.863 1.97378 35.7218 2.63547 36.0456C3.67024 36.5594 2.50172 36.5242 18.4316 36.5242C34.3826 36.5242 33.1367 36.5594 34.1362 36.0456C34.812 35.7006 35.5511 34.9545 35.882 34.2998C36.3888 33.3002 36.3536 34.1027 36.3536 22.4457C36.3536 13.1327 36.3395 11.8938 36.241 11.5137C35.8609 10.0495 34.6712 8.85987 33.2071 8.47975C32.665 8.33896 31.581 8.33193 31.053 8.47271C29.5959 8.85283 28.3922 10.0565 28.0121 11.5137C27.9417 11.7812 27.9065 12.2669 27.9065 12.9567V13.9985H25.4075C24.0349 13.9985 22.9086 13.9845 22.9086 13.9634C22.9086 13.9422 23.0494 13.6818 23.2183 13.3791C24.1545 11.7319 24.9218 9.98616 25.2034 8.86691C25.485 7.75471 25.4216 6.375 25.0204 5.19945C24.2953 3.07358 22.3736 1.27857 20.1985 0.687267C19.4805 0.497208 17.6362 0.433853 16.9252 0.581676ZM19.6635 2.1092C20.7475 2.35558 21.8949 3.07358 22.6411 3.97461C23.0916 4.51664 23.6407 5.64996 23.7885 6.34685C23.9786 7.22676 23.9152 8.14186 23.5844 9.10625C23.0987 10.5352 22.0216 12.6048 20.5504 14.9137C19.6564 16.3145 18.3964 18.1517 18.326 18.1517C18.2697 18.1517 16.5873 15.6739 15.8904 14.5617C14.6093 12.5203 13.5182 10.3944 13.0747 9.08513C12.596 7.67727 12.6735 6.45244 13.3352 5.09386C13.9265 3.8831 14.6938 3.11582 15.9045 2.52452C17.1575 1.9121 18.2767 1.79243 19.6635 2.1092ZM33.2775 10.0777C33.7843 10.31 34.4037 10.9224 34.629 11.4151C34.7275 11.6193 34.8331 12.0064 34.8754 12.2739C34.9176 12.5837 34.9458 15.8217 34.9458 20.9111V29.0485L34.4952 28.7458C33.735 28.239 33.2493 28.1123 32.0949 28.1123C31.1938 28.1193 31.0671 28.1334 30.6236 28.3094C30.3561 28.415 29.9549 28.6262 29.7297 28.781L29.3143 29.0626V20.9182C29.3143 15.8217 29.3425 12.5837 29.3847 12.2739C29.5537 11.1476 30.2646 10.2818 31.3065 9.94392C31.7992 9.78202 32.7847 9.84537 33.2775 10.0777ZM13.835 19.63L18.2627 23.8535H23.0846H27.9065V25.2614V26.6692H25.0415H22.1765L17.9459 30.8928L13.7223 35.1164H11.8006H9.88593L13.6731 31.5123C15.7496 29.5272 17.4883 27.8589 17.5376 27.7955C17.5869 27.7392 17.6291 27.5421 17.6291 27.3591C17.6291 27.0846 17.5939 27.0001 17.4039 26.803C17.2772 26.6763 15.278 24.7686 12.9691 22.5653L8.75964 18.56V16.9832V15.4064H9.07641H9.40022L13.835 19.63ZM15.3484 16.4764C16.3057 17.9476 17.5235 19.6863 17.791 19.9608C17.9741 20.1579 18.0585 20.1931 18.3331 20.1931C18.6076 20.1931 18.6921 20.1579 18.8751 19.9608C19.1426 19.6863 20.3604 17.9476 21.3177 16.4764L22.0216 15.4064H24.9641H27.9065V18.926V22.4457H23.4295H18.9596L15.271 18.926L11.5754 15.4064H13.1099H14.6445L15.3484 16.4764ZM12.5186 24.2055C14.3207 25.9231 15.7989 27.3521 15.7989 27.3732C15.7989 27.3943 13.9757 29.1471 11.7513 31.2659L7.71079 35.1164H6.31701C5.54973 35.1164 4.6839 35.0812 4.39529 35.046C3.36755 34.9122 2.43133 34.2646 1.99489 33.3777C1.84707 33.0891 1.82595 32.9342 1.82595 32.3007C1.82595 31.646 1.84707 31.5193 2.01601 31.1533C2.26239 30.6324 2.86776 30.027 3.38867 29.7806C3.75471 29.6117 3.88142 29.5905 4.53607 29.5905C5.19073 29.5905 5.31743 29.6117 5.66236 29.7736C6.64786 30.2452 7.18284 31.0406 7.31659 32.2444C7.37994 32.7864 7.59112 33.0046 8.05571 33.0046C8.32321 33.0046 8.42879 32.9694 8.57662 32.8216L8.75964 32.6315V26.6552V20.6788L8.99898 20.8759C9.12568 20.9815 10.7095 22.4809 12.5186 24.2055ZM27.9065 30.3578V32.6315L28.0895 32.8216C28.2373 32.9694 28.3429 33.0046 28.6104 33.0046C29.075 33.0046 29.2932 32.7864 29.3495 32.2444C29.4692 31.0618 30.0253 30.2311 30.9897 29.7806C31.3416 29.6117 31.4754 29.5905 32.13 29.5905C32.7988 29.5905 32.9114 29.6117 33.3056 29.7947C33.8406 30.0411 34.3826 30.5901 34.6501 31.1533C34.819 31.5193 34.8402 31.646 34.8402 32.3007C34.8402 32.9553 34.819 33.082 34.6501 33.4481C34.4108 33.9549 33.7984 34.5744 33.3056 34.7996C33.1015 34.8982 32.7143 35.0038 32.4468 35.046C32.1371 35.0882 28.9342 35.1164 23.9293 35.1164H15.9045L19.4241 31.5967L22.9438 28.0771H25.4216H27.9065V30.3578Z" fill="white"/>
</svg>
