<svg width="43" height="39" viewBox="0 0 43 39" fill="none" xmlns="http://www.w3.org/2000/svg">
<path d="M2.55172 0.992176C1.92184 1.21093 1.40114 1.67968 1.0736 2.29686L0.796448 2.8203V15.125V27.4297L1.0316 27.8984C1.15758 28.1562 1.40953 28.5 1.5775 28.6719C1.90504 28.9922 2.77008 29.4219 3.08922 29.4219C3.29078 29.4219 3.29078 29.5 3.14801 30.5937C3.09762 30.9766 3.23199 32.1172 3.40836 32.75C3.99625 34.9609 5.73473 36.8437 7.95192 37.7031C10.0347 38.5156 12.697 38.4062 14.7798 37.4297C15.7289 36.9844 20.7007 34.1406 20.9947 33.875C21.4818 33.4297 21.7002 32.9219 21.7002 32.2344C21.7002 31.5234 21.465 31.0391 20.8771 30.5312L20.4908 30.2031L20.6756 29.8516L20.8603 29.5L30.6025 29.4844L40.3531 29.4609L40.857 29.2422C41.5121 28.9609 42.0076 28.5 42.3015 27.9062L42.5367 27.4297V15.125V2.8203L42.2595 2.29686C41.932 1.67186 41.4029 1.21093 40.7646 0.984364C40.3111 0.828114 40.2103 0.828114 21.6414 0.835926C3.25719 0.835926 2.97164 0.835926 2.55172 0.992176ZM40.2943 2.24218C40.5127 2.34374 40.7478 2.53905 40.8822 2.72655C41.1006 3.03124 41.1089 3.08593 41.1341 4.3203L41.1593 5.59374H21.6666H2.17379L2.19899 4.3203C2.22418 3.08593 2.23258 3.03124 2.45094 2.72655C2.57692 2.54686 2.82047 2.34374 3.03883 2.24218L3.39996 2.07811H21.6582H39.9248L40.2943 2.24218ZM41.1509 16.9609C41.1509 26.1406 41.1341 27.1094 41.0166 27.3359C40.8234 27.6875 40.647 27.8516 40.2943 28.0234C39.992 28.1641 39.6392 28.1719 30.4093 28.1719H20.8435L20.7847 27.9531C20.6672 27.5078 20.1548 26.9062 19.6761 26.6484C19.6677 26.6484 19.7517 26.4297 19.8609 26.1719C20.0877 25.6641 20.1381 24.9922 19.9785 24.4687C19.9197 24.2734 19.7181 23.9922 19.441 23.7266L18.9959 23.2969L20.8183 22.2578C21.8177 21.6797 22.7752 21.1094 22.9431 20.9844C23.615 20.4766 23.9425 19.3203 23.6402 18.4766C23.4218 17.8828 22.6996 17.2187 22.0865 17.0469C21.0283 16.75 20.6756 16.875 17.6605 18.5547C16.2832 19.3281 15.1494 19.9453 15.1326 19.9375C15.1242 19.9219 15.2586 19.6328 15.4265 19.2969C15.7373 18.6953 15.7457 18.6562 15.7457 17.7812C15.7457 16.9453 15.7289 16.8516 15.5021 16.4141C15.0318 15.5312 13.8476 14.6562 13.2765 14.7734C13.1422 14.7969 12.9826 14.8828 12.9154 14.9531C12.8482 15.0234 12.042 16.2812 11.1181 17.7422C8.80016 21.4297 7.89313 22.6875 5.21403 25.8672C4.74371 26.4219 4.19782 27.1719 4.00465 27.5234C3.62672 28.2266 3.55114 28.2656 3.08082 28.0469C2.70289 27.8672 2.52653 27.7031 2.34176 27.375C2.19059 27.0937 2.18219 26.7422 2.18219 16.9609V6.84374H21.6666H41.1509V16.9609ZM14.2423 17.2422C14.3095 17.5156 14.3431 17.8672 14.3179 18.0234C14.2843 18.1797 13.8476 19.0234 13.3353 19.8984C12.3191 21.6406 12.2267 21.9297 12.5795 22.25C12.9826 22.6328 13.0918 22.5859 17.0894 20.3828C19.1302 19.2578 20.9275 18.3203 21.0871 18.2891C22.0025 18.1328 22.708 19.1562 22.1201 19.8047C21.9017 20.0469 19.9449 21.1875 16.6275 23.0078C15.5861 23.5781 14.6539 24.1328 14.5531 24.2422C14.2927 24.4922 14.3011 24.8437 14.5699 25.0859C14.9058 25.4062 15.2334 25.3516 16.3084 24.7812C16.8291 24.5 17.333 24.2656 17.4254 24.2578C17.8537 24.2266 18.0132 24.2812 18.324 24.5781C18.5759 24.8281 18.6431 24.9609 18.6431 25.1875C18.6431 25.6719 18.3996 25.9219 17.3498 26.5312C16.8123 26.8437 16.3336 27.1641 16.2916 27.2422C16.1572 27.4687 16.1992 27.8281 16.3839 28.0469C16.6191 28.3281 17.0474 28.3203 17.6437 28.0156C17.8957 27.8906 18.2148 27.7812 18.3492 27.7812C19.1638 27.7812 19.7517 28.6953 19.3486 29.3359C19.273 29.4531 18.8783 29.7422 18.4584 29.9766C17.4673 30.5391 17.2322 30.9297 17.6773 31.3359C17.9209 31.5703 18.2652 31.5859 18.7859 31.4062C19.399 31.1875 20.1045 31.4531 20.306 31.9844C20.4152 32.2891 20.2304 32.7656 19.9113 33.0156C19.5082 33.3281 14.5195 36.1172 13.8392 36.4062C12.9826 36.7812 12.3611 36.9219 11.3365 36.9766C9.53922 37.0703 7.93512 36.5312 6.65016 35.4141C5.52477 34.4219 4.8193 33.0937 4.61774 31.5859C4.45817 30.3984 4.77731 28.9609 5.41559 27.9766C5.57516 27.7344 6.19664 26.9609 6.78453 26.2656C9.1445 23.5234 9.96754 22.3828 12.1763 18.8594L13.73 16.375L13.9232 16.5547C14.0408 16.6641 14.1668 16.9375 14.2423 17.2422Z" fill="white"/>
<path d="M10.841 3.45312C10.6058 3.73438 10.6142 4.07031 10.8746 4.30469L11.0761 4.5H18.4584C25.3703 4.5 25.8574 4.49219 26.0254 4.35938C26.3025 4.15625 26.3445 3.72656 26.1177 3.46094L25.9414 3.25H18.4752H11.009L10.841 3.45312Z" fill="white"/>
<path d="M28.7213 3.40625C28.4777 3.63281 28.4945 4.10938 28.7464 4.32812C28.9312 4.49219 29.0152 4.5 30.6025 4.5C32.2486 4.5 32.257 4.5 32.4586 4.30469C32.7189 4.07031 32.7273 3.73438 32.4921 3.45312L32.3242 3.25H30.6025C28.9984 3.25 28.8808 3.25781 28.7213 3.40625Z" fill="white"/>
<path d="M31.6775 7.99218C31.6187 8.01562 30.0734 9.51562 28.2341 11.3203C23.3295 16.1641 23.825 15.6328 23.8754 16.0078C23.9425 16.4531 24.0937 16.5312 24.8748 16.5312H25.5298V21.3047C25.5298 26.0781 25.5382 26.3047 25.8154 26.4687C25.8658 26.5 28.6205 26.5312 31.9379 26.5312C37.8504 26.5312 37.9595 26.5312 38.1275 26.375C38.2955 26.2187 38.2955 26.1172 38.2955 21.375V16.5312H38.9925C39.4713 16.5312 39.74 16.4922 39.866 16.4141C40.0759 16.2812 40.1767 15.9297 40.0843 15.6953C40.0088 15.5078 32.5593 8.125 32.3242 8.01562C32.1646 7.92968 31.8623 7.92187 31.6775 7.99218ZM35.2384 12.7812L37.7412 15.2422L34.8185 15.2656C33.2144 15.2734 30.6193 15.2734 29.0404 15.2656L26.1849 15.2422L29.074 12.4141L31.9547 9.57812L32.341 9.95312C32.5593 10.1562 33.8611 11.4297 35.2384 12.7812ZM36.9517 20.9062V25.2812H35.608H34.2642V22.7109C34.2642 20.2969 34.2558 20.1328 34.1047 19.9609L33.9451 19.7734H31.9211C29.9306 19.7734 29.897 19.7734 29.7123 19.9531C29.5191 20.125 29.5191 20.1406 29.4939 22.7031L29.4687 25.2812H28.2173H26.9576V20.9062V16.5312H31.9547H36.9517V20.9062ZM32.9205 23.1328V25.2031H31.9127H30.9048V23.1328V21.0625H31.9127H32.9205V23.1328Z" fill="white"/>
<path d="M5.13843 9.60156C4.88648 9.85156 4.89488 10.2812 5.14683 10.5L5.33999 10.6719H12.0755C18.7019 10.6719 18.8111 10.6719 18.9791 10.5156C19.0882 10.4141 19.147 10.2578 19.147 10.0469C19.147 9.83594 19.0882 9.67969 18.9791 9.57812C18.8111 9.42188 18.7019 9.42188 12.0671 9.42188H5.3148L5.13843 9.60156Z" fill="white"/>
<path d="M5.13842 12.2578C4.89486 12.4922 4.88646 12.9531 5.12162 13.1719C5.28119 13.3203 5.39877 13.3281 8.50619 13.3281C11.664 13.3281 11.7312 13.3281 11.8908 13.1641C12.1259 12.9219 12.1007 12.4141 11.8488 12.2266C11.664 12.0859 11.4708 12.0781 8.48939 12.0781H5.31478L5.13842 12.2578Z" fill="white"/>
</svg>
