<svg width="38" height="38" viewBox="0 0 38 38" fill="none" xmlns="http://www.w3.org/2000/svg">
<path d="M24.3549 2.88165V5.2633H27.3171H30.2793L30.3611 5.97035C30.4207 6.42435 30.5174 6.82626 30.6365 7.08675C30.8821 7.62262 31.5296 8.26269 32.0729 8.52318C32.46 8.70181 32.5939 8.72413 33.2861 8.72413C33.9783 8.72413 34.1122 8.70181 34.4993 8.52318C35.05 8.26269 35.6901 7.62262 35.9506 7.07187C36.1292 6.68485 36.1515 6.55088 36.1515 5.85871C36.1515 5.16655 36.1292 5.03258 35.9506 4.64556C35.6975 4.10225 35.05 3.45473 34.5216 3.20913C33.3456 2.67326 31.9836 2.95608 31.1054 3.92362C30.8821 4.16923 30.6812 4.37018 30.644 4.37018C30.5993 4.37018 29.7657 3.89385 29.6466 3.80454C29.5945 3.75988 30.0113 3.17936 30.3165 2.87421C30.7407 2.44998 31.3287 2.09273 31.9687 1.87689C32.6535 1.64617 33.755 1.6164 34.4099 1.80991C35.8166 2.2267 36.9181 3.32821 37.3349 4.73487C37.4912 5.27074 37.4912 6.44668 37.3349 6.98255C36.9181 8.38921 35.8166 9.49073 34.4099 9.90751C33.755 10.101 32.6535 10.0713 31.9687 9.84053C31.0756 9.53538 30.309 8.9623 29.7881 8.20315C29.5722 7.88311 29.2373 7.09419 29.1554 6.69229L29.1033 6.45412H26.7291H24.3549V10.622V14.7899H27.3171H30.2793L30.3611 15.4969C30.4207 15.9509 30.5174 16.3529 30.6365 16.6133C30.8821 17.1492 31.5296 17.7893 32.0729 18.0498C32.46 18.2284 32.5939 18.2507 33.2861 18.2507C33.9783 18.2507 34.1122 18.2284 34.4993 18.0498C35.05 17.7893 35.6901 17.1492 35.9506 16.5985C36.1292 16.2114 36.1515 16.0775 36.1515 15.3853C36.1515 14.6931 36.1292 14.5592 35.9506 14.1722C35.6975 13.6288 35.05 12.9813 34.5216 12.7357C33.3456 12.1999 31.9836 12.4827 31.1054 13.4502C30.8821 13.6958 30.6812 13.8968 30.644 13.8968C30.5993 13.8968 29.7657 13.4204 29.6466 13.3311C29.5945 13.2865 30.0113 12.706 30.3165 12.4008C30.7407 11.9766 31.3287 11.6193 31.9687 11.4035C32.6535 11.1728 33.755 11.143 34.4099 11.3365C35.8166 11.7533 36.9181 12.8548 37.3349 14.2615C37.4912 14.7973 37.4912 15.9733 37.3349 16.5091C36.9181 17.9158 35.8166 19.0173 34.4099 19.4341C33.755 19.6276 32.6535 19.5978 31.9687 19.3671C31.0756 19.062 30.309 18.4889 29.7881 17.7297C29.5722 17.4097 29.2373 16.6208 29.1554 16.2189L29.1033 15.9807H26.7291H24.3549V17.8488C24.3549 19.315 24.3772 19.702 24.4442 19.6574C24.4963 19.6276 25.0024 19.3076 25.5681 18.9429C26.1337 18.5782 26.6398 18.2656 26.6845 18.2433C26.7366 18.2284 29.1703 19.7616 32.0953 21.6595L37.4168 25.098L37.4391 25.9018L37.4614 26.6981H36.8586H36.2632V32.0568V37.4156H21.9733H7.68338V35.0339V32.6523H4.1109H0.538429V19.6797V6.71462L3.64946 3.60359L6.75304 0.500004H15.5577H24.3549V2.88165ZM7.68338 2.28624V2.88165H14.8283H21.9733V7.04954V11.2174H12.4467H2.92008V9.43118V7.64495H2.32467H1.72926V19.5532V31.4614H4.70631H7.68338V30.8437V30.2334L7.05075 30.2557C5.24963 30.3227 3.58247 29.0649 3.03916 27.2266C2.88287 26.6907 2.88287 25.5148 3.03916 24.9789C3.32943 23.9965 3.99926 23.0885 4.83284 22.56C6.11298 21.7339 7.95131 21.7116 9.26122 22.5005C9.77476 22.8131 10.2883 23.3043 10.5711 23.7434L10.7721 24.0634L12.2606 23.1406C14.1213 21.9869 14.2255 21.9348 14.8134 21.9348C15.4014 21.9348 15.4982 21.9795 16.9867 22.8949C17.6863 23.3266 18.2594 23.6318 18.3189 23.6094C18.3785 23.5871 19.4949 22.8801 20.7973 22.0316L23.1641 20.4984V11.0983V1.69083H15.4237H7.68338V2.28624ZM4.55746 4.55625L2.65959 6.45412H4.57979H6.49255V4.55625C6.49255 3.51428 6.48511 2.65837 6.47022 2.65837C6.46278 2.65837 5.59943 3.51428 4.55746 4.55625ZM7.68338 5.85871V7.64495H5.89714H4.1109V8.83577V10.0266H12.4467H20.7824V7.04954V4.07248H14.2329H7.68338V5.85871ZM27.332 22.828V25.5073H31.4775C33.755 25.5073 35.5933 25.485 35.571 25.4552C35.4817 25.3733 27.4436 20.1635 27.3841 20.156C27.3543 20.1486 27.332 21.3543 27.332 22.828ZM21.1843 23.3117L19.4651 24.4207L20.3508 24.964L21.229 25.5073H23.6479H26.0667V22.828V20.156L24.4814 21.1757C23.6181 21.7413 22.1296 22.7014 21.1843 23.3117ZM5.84504 23.4606C5.32405 23.6987 4.67654 24.3463 4.4235 24.8896C4.24487 25.2766 4.22254 25.4106 4.22254 26.1027C4.22254 26.8098 4.24487 26.9289 4.43094 27.3084C4.55002 27.5466 4.78819 27.8964 4.96681 28.0899C5.29428 28.4397 5.29428 28.4472 5.30173 28.2388C5.30173 27.9336 5.50268 27.5168 5.76317 27.2415C5.8897 27.1149 6.82003 26.4972 7.83967 25.872L9.68545 24.7333L9.55892 24.5174C9.35053 24.1676 8.74767 23.6467 8.30856 23.4457C7.54941 23.1033 6.61908 23.1033 5.84504 23.4606ZM10.6902 25.619C8.52439 26.9512 6.70839 28.0974 6.65629 28.1643C6.41813 28.4918 6.67118 29.0054 7.07308 29.0054C7.21449 29.0054 8.45741 28.2834 11.0326 26.6981C13.0942 25.4254 14.806 24.3909 14.8283 24.3909C14.8506 24.3909 16.5625 25.4254 18.6241 26.6981C21.1992 28.2834 22.4422 29.0054 22.5836 29.0054C22.9855 29.0054 23.2385 28.4918 22.9929 28.1643C22.8217 27.9336 15.0293 23.2001 14.8283 23.2001C14.7018 23.2001 13.2356 24.0634 10.6902 25.619ZM11.8438 27.7103L8.8742 29.5412V32.883V36.2247H10.065H11.2558V33.8431V31.4614H14.8283H18.4008V33.8431V36.2247H19.5916H20.7824V32.883V29.5412L17.8203 27.7103C16.1978 26.7056 14.8581 25.8869 14.8432 25.8794C14.8283 25.8794 13.4812 26.7056 11.8438 27.7103ZM23.3427 26.7949C23.7074 27.0182 24.1316 27.4796 24.2433 27.7773C24.3251 27.9932 24.3624 28.2537 24.34 28.5886L24.3177 29.0798H26.1188H27.9274V31.4614V33.8431H25.5085H23.0897V32.0345V30.2334H22.5315H21.9733V33.2253V36.2247H28.4856H34.9979V31.4614V26.6981L29.0959 26.7056C24.5038 26.7056 23.2311 26.7279 23.3427 26.7949ZM24.3549 31.4614V32.6523H25.5085H26.6621V31.4614V30.2706H25.5085H24.3549V31.4614ZM12.4467 34.4385V36.2247H14.8283H17.21V34.4385V32.6523H14.8283H12.4467V34.4385Z" fill="white"/>
<path d="M21.9733 14.1945V15.9807H20.1871H18.4009V14.1945V12.4082H20.1871H21.9733V14.1945ZM19.5917 14.1945V14.7899H20.1871H20.7825V14.1945V13.5991H20.1871H19.5917V14.1945Z" fill="white"/>
<path d="M17.21 13.0036V13.5991H16.6146H16.0192V13.0036V12.4082H16.6146H17.21V13.0036Z" fill="white"/>
<path d="M14.8283 13.0036V13.5991H8.87419H2.92006V13.0036V12.4082H8.87419H14.8283V13.0036Z" fill="white"/>
<path d="M17.21 15.3853V15.9807H10.0651H2.92013V15.3853V14.7899H10.0651H17.21V15.3853Z" fill="white"/>
<path d="M21.9733 18.9578V20.744H20.1871H18.4009V18.9578V17.1715H20.1871H21.9733V18.9578ZM19.5917 18.9578V19.5532H20.1871H20.7825V18.9578V18.3624H20.1871H19.5917V18.9578Z" fill="white"/>
<path d="M17.21 17.767V18.3624H10.0651H2.92013V17.767V17.1715H10.0651H17.21V17.767Z" fill="white"/>
<path d="M17.21 20.1486V20.744H11.2559H5.30178V20.1486V19.5532H11.2559H17.21V20.1486Z" fill="white"/>
<path d="M4.1109 20.1486V20.744H3.51549H2.92008V20.1486V19.5532H3.51549H4.1109V20.1486Z" fill="white"/>
<path d="M15.6098 26.8395C16.2573 27.1372 16.6146 27.7327 16.6146 28.4992C16.6071 29.5561 15.8926 30.2706 14.8283 30.2706C13.7566 30.2706 13.0421 29.5561 13.0421 28.4844C13.0421 27.7103 13.4366 27.0926 14.0989 26.8172C14.486 26.6535 15.2377 26.6684 15.6098 26.8395ZM14.4562 28.1122C14.3743 28.1941 14.3073 28.3578 14.3073 28.4844C14.3073 28.6109 14.3743 28.7746 14.4562 28.8565C14.7762 29.1765 15.3493 28.9384 15.3493 28.4844C15.3493 28.3578 15.2823 28.1941 15.2005 28.1122C15.1186 28.0304 14.9549 27.9634 14.8283 27.9634C14.7018 27.9634 14.5381 28.0304 14.4562 28.1122Z" fill="white"/>
<path d="M33.8815 31.4614V33.8431H31.4627H29.0438V31.4614V29.0798H31.4627H33.8815V31.4614ZM30.3091 31.4614V32.6523H31.4627H32.6163V31.4614V30.2706H31.4627H30.3091V31.4614Z" fill="white"/>
<path d="M32.9289 5.16654L33.8816 6.1192L34.2537 5.74706L34.6258 5.37493L35.0947 5.84382L35.5562 6.30526L34.7151 7.13884L33.8816 7.97986L32.4526 6.55087L31.0161 5.11444L31.4627 4.66788C31.7083 4.42227 31.9241 4.22132 31.9465 4.22132C31.9688 4.22132 32.4079 4.64555 32.9289 5.16654Z" fill="white"/>
<path d="M32.9289 14.6931L33.8816 15.6458L34.2537 15.2737L34.6258 14.9015L35.0947 15.3704L35.5562 15.8319L34.7151 16.6655L33.8816 17.5065L32.4526 16.0775L31.0161 14.641L31.4627 14.1945C31.7083 13.9489 31.9241 13.7479 31.9465 13.7479C31.9688 13.7479 32.4079 14.1722 32.9289 14.6931Z" fill="white"/>
</svg>
